%FSDAX24Y24*%
%MOMM*%
%SFA1B1*%

%IPPOS*%
%ADD10C,0.507999*%
%ADD11C,0.634999*%
%ADD12C,1.299997*%
%ADD13C,1.349997*%
%ADD14C,1.499997*%
%ADD15O,1.999996X0.999998*%
%ADD16R,1.999996X0.999998*%
%ADD17C,3.499993*%
%ADD18C,1.523997*%
%LNpcb_final_v1-1*%
%LPD*%
G36*
X225435Y-065968D02*
X225386Y-065791D01*
X225238Y-065634*
X224991Y-065494*
X224645Y-065373*
X224201Y-065271*
X223658Y-065188*
X222276Y-065076*
X220499Y-065039*
Y-059959*
X221437Y-059950*
X223658Y-059810*
X224201Y-059727*
X224645Y-059625*
X224991Y-059504*
X225238Y-059365*
X225386Y-059207*
X225435Y-059030*
Y-065968*
G37*
G36*
X269929Y-064474D02*
X269603Y-064179D01*
X269235Y-063916*
X268824Y-063684*
X268369Y-063482*
X267872Y-063312*
X267332Y-063172*
X266749Y-063063*
X266123Y-062986*
X265454Y-062940*
X264742Y-062924*
Y-056574*
X265454Y-056559*
X266749Y-056434*
X267332Y-056326*
X267872Y-056187*
X268369Y-056016*
X268824Y-055815*
X269235Y-055582*
X269603Y-055318*
X269929Y-055024*
Y-064474*
G37*
G36*
X241855Y-058380D02*
X242298Y-058578D01*
X242834Y-058753*
X243462Y-058904*
X244183Y-059033*
X245902Y-059219*
X247993Y-059312*
X249177Y-059324*
Y-065674*
X247993Y-065686*
X244183Y-065966*
X243462Y-066094*
X242834Y-066245*
X242298Y-066421*
X241855Y-066618*
X241505Y-066840*
Y-058158*
X241855Y-058380*
G37*
G36*
X281520Y-060255D02*
X281595Y-060702D01*
X281721Y-061157*
X281900Y-061620*
X282131Y-062093*
X282414Y-062573*
X282749Y-063062*
X283137Y-063560*
X283577Y-064065*
X284070Y-064580*
X279580Y-069070*
X279065Y-068577*
X278062Y-067749*
X277573Y-067414*
X277093Y-067131*
X276620Y-066900*
X276157Y-066721*
X275701Y-066595*
X275255Y-066521*
X274817Y-066499*
X281499Y-059817*
X281520Y-060255*
G37*
G36*
X151493Y-066840D02*
X151001Y-066498D01*
X150466Y-066192*
X149887Y-065921*
X149264Y-065687*
X148597Y-065489*
X147886Y-065327*
X147132Y-065201*
X146333Y-065111*
X144604Y-065039*
Y-059959*
X145491Y-059941*
X147132Y-059797*
X147886Y-059671*
X148597Y-059509*
X149264Y-059311*
X149887Y-059077*
X150466Y-058807*
X151001Y-058500*
X151493Y-058158*
Y-066840*
G37*
G36*
X166997Y-033500D02*
X167532Y-033806D01*
X168111Y-034077*
X168734Y-034311*
X169401Y-034509*
X170112Y-034671*
X170866Y-034798*
X171665Y-034887*
X173394Y-034959*
Y-040039*
X172508Y-040057*
X170866Y-040201*
X170112Y-040327*
X169401Y-040489*
X168734Y-040687*
X168111Y-040921*
X167532Y-041192*
X166997Y-041498*
X166505Y-041840*
Y-033158*
X166997Y-033500*
G37*
G36*
X241997D02*
X242532Y-033806D01*
X243111Y-034077*
X243734Y-034311*
X244401Y-034509*
X245112Y-034671*
X245866Y-034798*
X246665Y-034887*
X248394Y-034959*
Y-040039*
X247508Y-040057*
X245866Y-040201*
X245112Y-040327*
X244401Y-040489*
X243734Y-040687*
X243111Y-040921*
X242532Y-041192*
X241997Y-041498*
X241505Y-041840*
Y-033158*
X241997Y-033500*
G37*
G36*
X439387Y-045124D02*
X438680Y-045024D01*
X437994Y-044989*
X437328Y-045019*
X436681Y-045114*
X436055Y-045274*
X435449Y-045498*
X434862Y-045787*
X434296Y-046142*
X433749Y-046561*
X433223Y-047045*
X430299Y-042784*
X430766Y-042286*
X431196Y-041760*
X431590Y-041205*
X431949Y-040622*
X432272Y-040012*
X432559Y-039373*
X432810Y-038705*
X433025Y-038010*
X433204Y-037286*
X433348Y-036534*
X439387Y-045124*
G37*
G36*
X199067Y-057950D02*
X199151Y-058640D01*
X199290Y-059313*
X199486Y-059969*
X199738Y-060609*
X200045Y-061232*
X200408Y-061839*
X200827Y-062428*
X201302Y-063001*
X201833Y-063557*
X191165*
X191696Y-063001*
X192171Y-062428*
X192590Y-061839*
X192953Y-061232*
X193261Y-060609*
X193512Y-059969*
X193707Y-059313*
X193847Y-058640*
X193931Y-057950*
X193959Y-057243*
X199039*
X199067Y-057950*
G37*
G36*
X269929Y-046474D02*
X269488Y-046059D01*
X269024Y-045687*
X268535Y-045360*
X268023Y-045076*
X267487Y-044835*
X266927Y-044639*
X266342Y-044486*
X265734Y-044376*
X265102Y-044311*
X264445Y-044289*
Y-039209*
X265102Y-039187*
X265734Y-039122*
X266342Y-039012*
X266927Y-038859*
X267487Y-038663*
X268023Y-038422*
X268535Y-038138*
X269024Y-037811*
X269488Y-037439*
X269929Y-037024*
Y-046474*
G37*
G36*
X323267Y-063320D02*
X323335Y-064040D01*
X323455Y-064735*
X323625Y-065405*
X323847Y-066047*
X324119Y-066664*
X324442Y-067255*
X324816Y-067821*
X325241Y-068361*
X325717Y-068875*
X322125Y-072467*
X321611Y-071991*
X321071Y-071566*
X320505Y-071192*
X319914Y-070869*
X319297Y-070597*
X318653Y-070375*
X317985Y-070205*
X317290Y-070085*
X316570Y-070016*
X315824Y-069999*
X323249Y-062574*
X323267Y-063320*
G37*
G36*
X445484Y-093645D02*
X445023Y-094203D01*
X444617Y-094779*
X444265Y-095372*
X443967Y-095983*
X443723Y-096612*
X443533Y-097259*
X443397Y-097923*
X443316Y-098606*
X443289Y-099306*
X438209*
X438182Y-098606*
X438101Y-097923*
X437965Y-097259*
X437775Y-096612*
X437532Y-095983*
X437233Y-095372*
X436881Y-094779*
X436475Y-094203*
X436014Y-093645*
X435499Y-093105*
X445999*
X445484Y-093645*
G37*
G36*
X320795Y-093114D02*
X320454Y-093588D01*
X320154Y-094097*
X319894Y-094642*
X319674Y-095224*
X319494Y-095841*
X319354Y-096495*
X319254Y-097184*
X319194Y-097910*
X319174Y-098671*
X312824Y-098905*
X312803Y-098142*
X312738Y-097418*
X312631Y-096733*
X312481Y-096087*
X312288Y-095479*
X312052Y-094911*
X311774Y-094382*
X311452Y-093891*
X311088Y-093440*
X310680Y-093027*
X321175Y-092677*
X320795Y-093114*
G37*
G36*
X319196Y-104270D02*
X319260Y-105003D01*
X319368Y-105700*
X319519Y-106361*
X319714Y-106985*
X319951Y-107572*
X320232Y-108123*
X320556Y-108638*
X320923Y-109116*
X321333Y-109557*
X310665*
X311075Y-109116*
X311442Y-108638*
X311766Y-108123*
X312047Y-107572*
X312284Y-106985*
X312479Y-106361*
X312630Y-105700*
X312738Y-105003*
X312802Y-104270*
X312824Y-103500*
X319174*
X319196Y-104270*
G37*
G36*
X226493Y-116840D02*
X226001Y-116498D01*
X225466Y-116192*
X224887Y-115921*
X224264Y-115687*
X223597Y-115489*
X222886Y-115327*
X222132Y-115201*
X221333Y-115111*
X219604Y-115039*
Y-109959*
X220491Y-109941*
X222132Y-109797*
X222886Y-109671*
X223597Y-109509*
X224264Y-109311*
X224887Y-109077*
X225466Y-108806*
X226001Y-108500*
X226493Y-108158*
Y-116840*
G37*
G36*
X442960Y-107360D02*
X444296Y-108515D01*
X444549Y-108686*
X444770Y-108809*
X444959Y-108885*
X445116Y-108914*
X445240Y-108896*
X440896Y-113240*
X440914Y-113116*
X440885Y-112959*
X440809Y-112770*
X440686Y-112549*
X440515Y-112295*
X440298Y-112010*
X439720Y-111342*
X438953Y-110545*
X442545Y-106953*
X442960Y-107360*
G37*
G36*
X241997Y-083500D02*
X242532Y-083806D01*
X243111Y-084077*
X243734Y-084311*
X244401Y-084509*
X245112Y-084671*
X245866Y-084797*
X246665Y-084887*
X248394Y-084959*
Y-090039*
X247508Y-090057*
X245866Y-090201*
X245112Y-090327*
X244401Y-090489*
X243734Y-090687*
X243111Y-090921*
X242532Y-091192*
X241997Y-091498*
X241505Y-091840*
Y-083158*
X241997Y-083500*
G37*
G36*
X440674Y-070249D02*
X439928Y-070267D01*
X439208Y-070335*
X438513Y-070455*
X437844Y-070625*
X437201Y-070847*
X436584Y-071120*
X435993Y-071442*
X435427Y-071816*
X434887Y-072241*
X434373Y-072717*
X430781Y-069125*
X431257Y-068611*
X431682Y-068072*
X432056Y-067505*
X432379Y-066914*
X432651Y-066296*
X432873Y-065654*
X433043Y-064985*
X433163Y-064290*
X433231Y-063570*
X433249Y-062824*
X440674Y-070249*
G37*
G36*
X151493Y-091840D02*
X151001Y-091498D01*
X150466Y-091192*
X149887Y-090921*
X149264Y-090687*
X148597Y-090489*
X147886Y-090327*
X147132Y-090201*
X146333Y-090111*
X144604Y-090039*
Y-084959*
X145491Y-084941*
X147132Y-084797*
X147886Y-084671*
X148597Y-084509*
X149264Y-084311*
X149887Y-084077*
X150466Y-083806*
X151001Y-083500*
X151493Y-083158*
Y-091840*
G37*
G36*
X446645Y-083014D02*
X447203Y-083475D01*
X447779Y-083881*
X448372Y-084233*
X448983Y-084531*
X449612Y-084775*
X450259Y-084965*
X450923Y-085101*
X451606Y-085182*
X452306Y-085209*
Y-090289*
X451606Y-090316*
X450923Y-090397*
X450259Y-090533*
X449612Y-090723*
X448983Y-090967*
X448372Y-091265*
X447779Y-091617*
X447203Y-092023*
X446645Y-092484*
X446105Y-092999*
Y-082499*
X446645Y-083014*
G37*
G36*
X310393Y-092749D02*
X309967Y-092355D01*
X309505Y-092002*
X309004Y-091691*
X308467Y-091421*
X307891Y-091193*
X307279Y-091006*
X306629Y-090861*
X305941Y-090757*
X305216Y-090695*
X304454Y-090674*
Y-084324*
X305216Y-084303*
X305941Y-084241*
X306629Y-084137*
X307279Y-083992*
X307891Y-083805*
X308467Y-083577*
X309004Y-083307*
X309505Y-082996*
X309967Y-082643*
X310393Y-082249*
Y-092749*
G37*
G36*
X309887Y-028007D02*
X310427Y-028432D01*
X310993Y-028806*
X311584Y-029129*
X312201Y-029401*
X312844Y-029623*
X313513Y-029793*
X314208Y-029913*
X314928Y-029982*
X315674Y-029999*
X308249Y-037424*
X308231Y-036678*
X308163Y-035958*
X308043Y-035263*
X307873Y-034594*
X307651Y-033952*
X307379Y-033334*
X307056Y-032743*
X306682Y-032177*
X306257Y-031637*
X305781Y-031123*
X309373Y-027531*
X309887Y-028007*
G37*
G36*
X093997Y036802D02*
X094570Y036327D01*
X095159Y035908*
X095766Y035545*
X096389Y035237*
X097028Y034986*
X097685Y034791*
X098358Y034651*
X099048Y034567*
X099755Y034539*
Y029459*
X099048Y029431*
X098358Y029347*
X097685Y029208*
X097028Y029012*
X096389Y028760*
X095766Y028453*
X095159Y028090*
X094570Y027671*
X093997Y027196*
X093441Y026665*
Y037333*
X093997Y036802*
G37*
G36*
X440674Y029749D02*
X439928Y029731D01*
X439208Y029663*
X438513Y029543*
X437844Y029373*
X437201Y029151*
X436584Y028879*
X435993Y028556*
X435427Y028182*
X434887Y027757*
X434373Y027281*
X430781Y030873*
X431257Y031387*
X431682Y031927*
X432056Y032493*
X432379Y033084*
X432651Y033701*
X432873Y034345*
X433043Y035013*
X433163Y035708*
X433231Y036428*
X433249Y037174*
X440674Y029749*
G37*
G36*
X-408932Y018856D02*
X-408851Y018174D01*
X-408715Y017509*
X-408525Y016862*
X-408282Y016233*
X-407983Y015622*
X-407631Y015029*
X-407225Y014453*
X-406764Y013895*
X-406249Y013355*
X-416749*
X-416234Y013895*
X-415773Y014453*
X-415367Y015029*
X-415015Y015622*
X-414716Y016233*
X-414473Y016862*
X-414283Y017509*
X-414147Y018174*
X-414066Y018856*
X-414039Y019556*
X-408959*
X-408932Y018856*
G37*
G36*
X309887Y021991D02*
X310427Y021566D01*
X310993Y021192*
X311584Y020869*
X312201Y020597*
X312844Y020375*
X313513Y020205*
X314208Y020085*
X314928Y020016*
X315674Y019999*
X308249Y012574*
X308231Y013320*
X308163Y014040*
X308043Y014735*
X307873Y015403*
X307651Y016047*
X307379Y016664*
X307056Y017255*
X306682Y017821*
X306257Y018361*
X305781Y018875*
X309373Y022467*
X309887Y021991*
G37*
G36*
X325717Y018875D02*
X325241Y018361D01*
X324816Y017821*
X324442Y017255*
X324119Y016664*
X323847Y016047*
X323625Y015403*
X323455Y014735*
X323335Y014040*
X323267Y013320*
X323249Y012574*
X315824Y019999*
X316570Y020016*
X317290Y020085*
X317985Y020205*
X318653Y020375*
X319297Y020597*
X319914Y020869*
X320505Y021192*
X321071Y021566*
X321611Y021991*
X322125Y022467*
X325717Y018875*
G37*
G36*
X309887Y046991D02*
X310427Y046566D01*
X310993Y046192*
X311584Y045869*
X312201Y045597*
X312844Y045375*
X313513Y045205*
X314208Y045085*
X314928Y045016*
X315674Y044999*
X308249Y037574*
X308231Y038320*
X308163Y039040*
X308043Y039735*
X307873Y040404*
X307651Y041047*
X307379Y041664*
X307056Y042255*
X306682Y042821*
X306257Y043361*
X305781Y043875*
X309373Y047467*
X309887Y046991*
G37*
G36*
X143637Y048154D02*
X143706Y047413D01*
X143826Y046700*
X143998Y046015*
X144221Y045356*
X144496Y044726*
X144822Y044124*
X145199Y043549*
X145628Y043002*
X146108Y042482*
X142516Y038890*
X141996Y039370*
X141449Y039799*
X140874Y040176*
X140272Y040502*
X139641Y040777*
X138984Y041000*
X138298Y041172*
X137585Y041292*
X136844Y041362*
X136075Y041379*
X143619Y048923*
X143637Y048154*
G37*
G36*
X225589Y045036D02*
X227388Y043522D01*
X228192Y042968*
X228932Y042549*
X229607Y042265*
X230219Y042116*
X230767Y042103*
X231251Y042224*
X231671Y042481*
X224157Y036201*
X224040Y036898*
X223871Y037585*
X223652Y038261*
X223382Y038927*
X223061Y039583*
X222690Y040228*
X222268Y040864*
X221795Y041489*
X221272Y042104*
X220698Y042708*
X224594Y045996*
X225589Y045036*
G37*
G36*
X082002Y041628D02*
X082550Y041199D01*
X083124Y040822*
X083726Y040496*
X084357Y040221*
X085014Y039998*
X085700Y039826*
X086413Y039706*
X087154Y039636*
X087923Y039619*
X080379Y032075*
X080362Y032844*
X080292Y033585*
X080172Y034298*
X080000Y034984*
X079777Y035641*
X079502Y036272*
X079176Y036874*
X078799Y037449*
X078370Y037996*
X077890Y038516*
X081482Y042108*
X082002Y041628*
G37*
G36*
X241997Y041497D02*
X242532Y041191D01*
X243111Y040921*
X243734Y040687*
X244401Y040489*
X245112Y040327*
X245866Y040201*
X246665Y040111*
X248394Y040039*
Y034959*
X247508Y034941*
X245866Y034798*
X245112Y034671*
X244401Y034509*
X243734Y034310*
X243111Y034076*
X242532Y033806*
X241997Y033500*
X241505Y033158*
Y041840*
X241997Y041497*
G37*
G36*
Y016498D02*
X242532Y016191D01*
X243111Y015921*
X243734Y015687*
X244401Y015489*
X245112Y015327*
X245866Y015201*
X246665Y015111*
X248394Y015039*
Y009959*
X247508Y009941*
X245866Y009797*
X245112Y009671*
X244401Y009509*
X243734Y009311*
X243111Y009076*
X242532Y008806*
X241997Y008500*
X241505Y008158*
Y016840*
X241997Y016498*
G37*
G36*
Y-008500D02*
X242532Y-008807D01*
X243111Y-009077*
X243734Y-009311*
X244401Y-009509*
X245112Y-009671*
X245866Y-009797*
X246665Y-009887*
X248394Y-009959*
Y-015039*
X247508Y-015057*
X245866Y-015201*
X245112Y-015327*
X244401Y-015489*
X243734Y-015687*
X243111Y-015921*
X242532Y-016192*
X241997Y-016498*
X241505Y-016840*
Y-008158*
X241997Y-008500*
G37*
G36*
X309887Y-003007D02*
X310427Y-003432D01*
X310993Y-003806*
X311584Y-004129*
X312201Y-004401*
X312844Y-004623*
X313513Y-004793*
X314208Y-004913*
X314928Y-004982*
X315674Y-004999*
X308249Y-012424*
X308231Y-011678*
X308163Y-010958*
X308043Y-010263*
X307873Y-009595*
X307651Y-008952*
X307379Y-008334*
X307056Y-007743*
X306682Y-007177*
X306257Y-006637*
X305781Y-006123*
X309373Y-002531*
X309887Y-003007*
G37*
G36*
X166997Y-008500D02*
X167532Y-008807D01*
X168111Y-009077*
X168734Y-009311*
X169401Y-009509*
X170112Y-009671*
X170866Y-009797*
X171665Y-009887*
X173394Y-009959*
Y-015039*
X172508Y-015057*
X170866Y-015201*
X170112Y-015327*
X169401Y-015489*
X168734Y-015687*
X168111Y-015921*
X167532Y-016192*
X166997Y-016498*
X166505Y-016840*
Y-008158*
X166997Y-008500*
G37*
G36*
X440674Y-020249D02*
X439928Y-020267D01*
X439208Y-020335*
X438513Y-020455*
X437844Y-020625*
X437201Y-020847*
X436584Y-021119*
X435993Y-021442*
X435427Y-021816*
X434887Y-022241*
X434373Y-022717*
X430781Y-019125*
X431257Y-018611*
X431682Y-018071*
X432056Y-017505*
X432379Y-016914*
X432651Y-016297*
X432873Y-015653*
X433043Y-014986*
X433163Y-014290*
X433231Y-013570*
X433249Y-012824*
X440674Y-020249*
G37*
G36*
X151493Y-016840D02*
X151001Y-016498D01*
X150466Y-016192*
X149887Y-015921*
X149264Y-015687*
X148597Y-015489*
X147886Y-015327*
X147132Y-015201*
X146333Y-015111*
X144604Y-015039*
Y-009959*
X145491Y-009941*
X147132Y-009797*
X147886Y-009671*
X148597Y-009509*
X149264Y-009311*
X149887Y-009077*
X150466Y-008807*
X151001Y-008500*
X151493Y-008158*
Y-016840*
G37*
G36*
X323267Y011678D02*
X323335Y010958D01*
X323455Y010263*
X323625Y009595*
X323847Y008952*
X324119Y008334*
X324442Y007743*
X324816Y007177*
X325241Y006637*
X325717Y006123*
X322125Y002531*
X321611Y003007*
X321071Y003432*
X320505Y003806*
X319914Y004129*
X319297Y004401*
X318653Y004623*
X317985Y004793*
X317290Y004913*
X316570Y004982*
X315824Y004999*
X323249Y012424*
X323267Y011678*
G37*
G36*
X-330603Y012734D02*
X-330045Y012273D01*
X-329469Y011867*
X-328876Y011515*
X-328265Y011216*
X-327636Y010973*
X-326989Y010783*
X-326324Y010647*
X-325642Y010566*
X-324942Y010539*
Y005459*
X-325642Y005432*
X-326324Y005351*
X-326989Y005215*
X-327636Y005025*
X-328265Y004781*
X-328876Y004483*
X-329469Y004131*
X-330045Y003725*
X-330603Y003264*
X-331143Y002749*
Y013249*
X-330603Y012734*
G37*
G36*
X440674Y004749D02*
X439928Y004732D01*
X439208Y004663*
X438513Y004543*
X437844Y004373*
X437201Y004151*
X436584Y003879*
X435993Y003556*
X435427Y003182*
X434887Y002757*
X434373Y002281*
X430781Y005873*
X431257Y006387*
X431682Y006927*
X432056Y007493*
X432379Y008084*
X432651Y008701*
X432873Y009344*
X433043Y010013*
X433163Y010708*
X433231Y011428*
X433249Y012174*
X440674Y004749*
G37*
G36*
X-386574Y000499D02*
X-387320Y000482D01*
X-388040Y000413*
X-388735Y000293*
X-389403Y000123*
X-390046Y-000097*
X-390664Y-000369*
X-391255Y-000692*
X-391821Y-001066*
X-392361Y-001491*
X-392875Y-001967*
X-396467Y001623*
X-395991Y002137*
X-395566Y002677*
X-395192Y003243*
X-394869Y003834*
X-394597Y004452*
X-394375Y005094*
X-394205Y005763*
X-394085Y006458*
X-394016Y007178*
X-393999Y007924*
X-386574Y000499*
G37*
G36*
X-353982Y007178D02*
X-353913Y006458D01*
X-353793Y005763*
X-353623Y005094*
X-353401Y004452*
X-353129Y003834*
X-352806Y003243*
X-352432Y002677*
X-352007Y002137*
X-351531Y001623*
X-355123Y-001967*
X-355637Y-001491*
X-356177Y-001066*
X-356743Y-000692*
X-357334Y-000369*
X-357951Y-000097*
X-358594Y000123*
X-359263Y000293*
X-359958Y000413*
X-360678Y000482*
X-361424Y000499*
X-353999Y007924*
X-353982Y007178*
G37*
G36*
X151493Y-116840D02*
X151143Y-116618D01*
X150700Y-116420*
X150164Y-116245*
X149536Y-116094*
X148815Y-115966*
X147096Y-115779*
X145005Y-115686*
X143821Y-115674*
Y-109324*
X145005Y-109312*
X148815Y-109033*
X149536Y-108904*
X150164Y-108753*
X150700Y-108578*
X151143Y-108380*
X151493Y-108158*
Y-116840*
G37*
G36*
X095225Y-386704D02*
X094632Y-386663D01*
X094051Y-386676*
X093483Y-386744*
X092926Y-386866*
X092381Y-387044*
X091848Y-387276*
X091328Y-387563*
X090819Y-387905*
X090322Y-388301*
X089838Y-388753*
X086655Y-384751*
X087101Y-384277*
X087506Y-383789*
X087871Y-383286*
X088195Y-382768*
X088478Y-382236*
X088720Y-381690*
X088921Y-381129*
X089081Y-380554*
X089201Y-379963*
X089279Y-379359*
X095225Y-386704*
G37*
G36*
X065989Y-371366D02*
X066482Y-371767D01*
X066990Y-372119*
X067511Y-372424*
X068046Y-372682*
X068595Y-372891*
X069158Y-373052*
X069736Y-373166*
X070327Y-373231*
X070931Y-373249*
X064249Y-379932*
X064232Y-379327*
X064166Y-378736*
X064052Y-378158*
X063891Y-377595*
X063682Y-377046*
X063424Y-376511*
X063119Y-375990*
X062767Y-375482*
X062366Y-374989*
X061917Y-374509*
X065509Y-370917*
X065989Y-371366*
G37*
G36*
X-222488Y-384689D02*
X-222024Y-385061D01*
X-221536Y-385388*
X-221023Y-385672*
X-220487Y-385913*
X-219927Y-386109*
X-219342Y-386262*
X-218734Y-386372*
X-218101Y-386437*
X-217445Y-386459*
Y-391539*
X-218101Y-391561*
X-218734Y-391626*
X-219342Y-391736*
X-219927Y-391889*
X-220487Y-392085*
X-221023Y-392326*
X-221536Y-392610*
X-222024Y-392938*
X-222488Y-393309*
X-222928Y-393724*
Y-384274*
X-222488Y-384689*
G37*
G36*
X005145Y-388068D02*
X005513Y-388332D01*
X005924Y-388564*
X006379Y-388766*
X006876Y-388936*
X007416Y-389076*
X007999Y-389184*
X008625Y-389262*
X009294Y-389309*
X010006Y-389324*
Y-395674*
X009294Y-395689*
X007999Y-395814*
X007416Y-395922*
X006876Y-396062*
X006379Y-396232*
X005924Y-396434*
X005513Y-396666*
X005145Y-396930*
X004820Y-397224*
Y-387774*
X005145Y-388068*
G37*
G36*
X183261Y-385689D02*
X183724Y-386061D01*
X184213Y-386388*
X184725Y-386672*
X185261Y-386913*
X185822Y-387109*
X186406Y-387262*
X187014Y-387372*
X187647Y-387437*
X188303Y-387459*
Y-392539*
X187647Y-392561*
X187014Y-392626*
X186406Y-392736*
X185822Y-392889*
X185261Y-393085*
X184725Y-393326*
X184213Y-393610*
X183724Y-393937*
X183261Y-394309*
X182820Y-394724*
Y-385274*
X183261Y-385689*
G37*
G36*
X-086251Y-341462D02*
X-085833Y-342063D01*
X-085332Y-342593*
X-084748Y-343052*
X-084081Y-343441*
X-083331Y-343759*
X-082497Y-344006*
X-081581Y-344183*
X-080582Y-344289*
X-079499Y-344324*
Y-350674*
X-080582Y-350709*
X-081581Y-350815*
X-082497Y-350992*
X-083331Y-351239*
X-084081Y-351557*
X-084748Y-351946*
X-085332Y-352405*
X-085833Y-352935*
X-086251Y-353536*
X-086586Y-354207*
Y-340791*
X-086251Y-341462*
G37*
G36*
X-019946Y-315997D02*
X-020421Y-316570D01*
X-020840Y-317159*
X-021203Y-317766*
X-021510Y-318389*
X-021762Y-319029*
X-021957Y-319685*
X-022098Y-320358*
X-022181Y-321048*
X-022209Y-321755*
X-027289*
X-027317Y-321048*
X-027401Y-320358*
X-027540Y-319685*
X-027736Y-319029*
X-027988Y-318389*
X-028295Y-317766*
X-028658Y-317159*
X-029077Y-316570*
X-029552Y-315997*
X-030083Y-315441*
X-019415*
X-019946Y-315997*
G37*
G36*
X183145Y-365568D02*
X183513Y-365832D01*
X183924Y-366064*
X184379Y-366266*
X184876Y-366436*
X185416Y-366576*
X185999Y-366684*
X186625Y-366762*
X187294Y-366809*
X188006Y-366824*
Y-373174*
X187294Y-373189*
X185999Y-373314*
X185416Y-373422*
X184876Y-373562*
X184379Y-373732*
X183924Y-373934*
X183513Y-374166*
X183145Y-374430*
X182820Y-374724*
Y-365274*
X183145Y-365568*
G37*
G36*
X-222488Y-366689D02*
X-222024Y-367061D01*
X-221536Y-367388*
X-221023Y-367672*
X-220487Y-367913*
X-219927Y-368109*
X-219342Y-368262*
X-218734Y-368372*
X-218101Y-368437*
X-217445Y-368459*
Y-373539*
X-218101Y-373561*
X-218734Y-373626*
X-219342Y-373736*
X-219927Y-373889*
X-220487Y-374085*
X-221023Y-374326*
X-221536Y-374610*
X-222024Y-374937*
X-222488Y-375309*
X-222928Y-375724*
Y-366274*
X-222488Y-366689*
G37*
G36*
X173179Y-374724D02*
X172853Y-374430D01*
X172485Y-374166*
X172074Y-373934*
X171620Y-373732*
X171122Y-373562*
X170582Y-373422*
X169999Y-373314*
X169373Y-373236*
X168704Y-373189*
X167992Y-373174*
Y-366824*
X168704Y-366809*
X169999Y-366684*
X170582Y-366576*
X171122Y-366436*
X171620Y-366266*
X172074Y-366064*
X172485Y-365832*
X172853Y-365568*
X173179Y-365274*
Y-374724*
G37*
G36*
X-004820Y-397224D02*
X-005145Y-396930D01*
X-005513Y-396666*
X-005924Y-396434*
X-006379Y-396232*
X-006876Y-396062*
X-007416Y-395922*
X-007999Y-395814*
X-008625Y-395736*
X-009294Y-395689*
X-010006Y-395674*
Y-389324*
X-009294Y-389309*
X-007999Y-389184*
X-007416Y-389076*
X-006876Y-388936*
X-006379Y-388766*
X-005924Y-388564*
X-005513Y-388332*
X-005145Y-388068*
X-004820Y-387774*
Y-397224*
G37*
G36*
X100882Y-404825D02*
X101360Y-405192D01*
X101875Y-405516*
X102426Y-405797*
X103013Y-406034*
X103637Y-406229*
X104298Y-406380*
X104995Y-406488*
X105728Y-406552*
X106498Y-406574*
Y-412924*
X105728Y-412946*
X104995Y-413010*
X104298Y-413118*
X103637Y-413269*
X103013Y-413464*
X102426Y-413701*
X101875Y-413982*
X101360Y-414306*
X100882Y-414673*
X100441Y-415083*
Y-404415*
X100882Y-404825*
G37*
G36*
X-120441Y-413083D02*
X-120997Y-412552D01*
X-121570Y-412077*
X-122159Y-411658*
X-122766Y-411295*
X-123389Y-410987*
X-124029Y-410736*
X-124685Y-410540*
X-125358Y-410401*
X-126048Y-410317*
X-126755Y-410289*
Y-405209*
X-126048Y-405181*
X-125358Y-405097*
X-124685Y-404957*
X-124029Y-404762*
X-123389Y-404510*
X-122766Y-404203*
X-122159Y-403840*
X-121570Y-403421*
X-120997Y-402946*
X-120441Y-402415*
Y-413083*
G37*
G36*
X060858Y-417732D02*
X060378Y-418252D01*
X059949Y-418799*
X059572Y-419374*
X059246Y-419976*
X058971Y-420606*
X058748Y-421264*
X058576Y-421950*
X058456Y-422663*
X058386Y-423404*
X058369Y-424173*
X050825Y-416629*
X051594Y-416612*
X052335Y-416542*
X053048Y-416422*
X053733Y-416250*
X054391Y-416027*
X055022Y-415752*
X055624Y-415426*
X056199Y-415049*
X056746Y-414620*
X057266Y-414140*
X060858Y-417732*
G37*
G36*
X-070441Y-475833D02*
X-070997Y-475302D01*
X-071570Y-474827*
X-072159Y-474408*
X-072766Y-474045*
X-073389Y-473738*
X-074028Y-473486*
X-074685Y-473291*
X-075358Y-473151*
X-076048Y-473067*
X-076755Y-473039*
Y-467959*
X-076048Y-467931*
X-075358Y-467847*
X-074685Y-467708*
X-074028Y-467512*
X-073389Y-467261*
X-072766Y-466953*
X-072159Y-466590*
X-071570Y-466171*
X-070997Y-465696*
X-070441Y-465165*
Y-475833*
G37*
G36*
X181196Y-429270D02*
X181261Y-430003D01*
X181368Y-430700*
X181520Y-431361*
X181714Y-431985*
X181951Y-432572*
X182232Y-433123*
X182556Y-433638*
X182923Y-434116*
X183333Y-434557*
X172665*
X173075Y-434116*
X173442Y-433638*
X173766Y-433123*
X174047Y-432572*
X174284Y-431985*
X174479Y-431361*
X174630Y-430700*
X174738Y-430003*
X174803Y-429270*
X174824Y-428500*
X181174*
X181196Y-429270*
G37*
G36*
X-068302Y-397020D02*
X-068238Y-397753D01*
X-068130Y-398450*
X-067979Y-399111*
X-067784Y-399735*
X-067547Y-400322*
X-067266Y-400873*
X-066942Y-401388*
X-066575Y-401866*
X-066165Y-402307*
X-076833*
X-076423Y-401866*
X-076056Y-401388*
X-075732Y-400873*
X-075451Y-400322*
X-075214Y-399735*
X-075020Y-399111*
X-074868Y-398450*
X-074761Y-397753*
X-074696Y-397020*
X-074674Y-396250*
X-068324*
X-068302Y-397020*
G37*
G36*
X182430Y-395145D02*
X182166Y-395513D01*
X181934Y-395924*
X181732Y-396379*
X181562Y-396876*
X181422Y-397416*
X181314Y-397999*
X181236Y-398625*
X181190Y-399294*
X181174Y-400006*
X174824*
X174809Y-399294*
X174685Y-397999*
X174576Y-397416*
X174437Y-396876*
X174266Y-396379*
X174065Y-395924*
X173832Y-395513*
X173569Y-395145*
X173274Y-394820*
X182724*
X182430Y-395145*
G37*
G36*
X029173Y-395152D02*
X029737Y-395625D01*
X030306Y-396041*
X030880Y-396402*
X031459Y-396705*
X032042Y-396953*
X032630Y-397144*
X033223Y-397279*
X033820Y-397357*
X034423Y-397379*
X026879Y-404923*
X026857Y-404321*
X026779Y-403723*
X026644Y-403130*
X026453Y-402542*
X026205Y-401959*
X025902Y-401380*
X025541Y-400806*
X025125Y-400237*
X024652Y-399673*
X024123Y-399113*
X028613Y-394623*
X029173Y-395152*
G37*
G36*
X-039325Y-396152D02*
X-038761Y-396625D01*
X-038192Y-397041*
X-037618Y-397402*
X-037039Y-397705*
X-036456Y-397953*
X-035868Y-398145*
X-035275Y-398279*
X-034677Y-398357*
X-034075Y-398379*
X-041619Y-405923*
X-041641Y-405321*
X-041719Y-404723*
X-041854Y-404130*
X-042045Y-403542*
X-042293Y-402959*
X-042596Y-402380*
X-042957Y-401806*
X-043373Y-401237*
X-043846Y-400673*
X-044375Y-400113*
X-039885Y-395623*
X-039325Y-396152*
G37*
G36*
X-023623Y-400113D02*
X-024152Y-400673D01*
X-024625Y-401237*
X-025041Y-401806*
X-025402Y-402380*
X-025705Y-402959*
X-025953Y-403542*
X-026144Y-404130*
X-026279Y-404723*
X-026357Y-405321*
X-026379Y-405923*
X-033923Y-398379*
X-033320Y-398357*
X-032723Y-398279*
X-032131Y-398145*
X-031542Y-397953*
X-030959Y-397705*
X-030380Y-397402*
X-029806Y-397041*
X-029237Y-396625*
X-028673Y-396152*
X-028113Y-395623*
X-023623Y-400113*
G37*
G36*
X089012Y-317226D02*
X088531Y-317726D01*
X087722Y-318691*
X087394Y-319155*
X087118Y-319607*
X086892Y-320046*
X086717Y-320474*
X086593Y-320890*
X086520Y-321293*
X086499Y-321684*
X080064Y-315249*
X080455Y-315228*
X080858Y-315155*
X081274Y-315031*
X081701Y-314856*
X082141Y-314631*
X082593Y-314354*
X083058Y-314026*
X083533Y-313647*
X084522Y-312736*
X089012Y-317226*
G37*
G36*
X226493Y-166840D02*
X226001Y-166498D01*
X225466Y-166192*
X224887Y-165922*
X224264Y-165687*
X223597Y-165489*
X222886Y-165327*
X222132Y-165201*
X221333Y-165111*
X219604Y-165039*
Y-159959*
X220491Y-159941*
X222132Y-159797*
X222886Y-159671*
X223597Y-159509*
X224264Y-159311*
X224887Y-159077*
X225466Y-158806*
X226001Y-158500*
X226493Y-158158*
Y-166840*
G37*
G36*
X241997Y-158500D02*
X242532Y-158806D01*
X243111Y-159077*
X243734Y-159311*
X244401Y-159509*
X245112Y-159671*
X245866Y-159797*
X246665Y-159887*
X248394Y-159959*
Y-165039*
X247508Y-165057*
X245866Y-165201*
X245112Y-165327*
X244401Y-165489*
X243734Y-165687*
X243111Y-165922*
X242532Y-166192*
X241997Y-166498*
X241505Y-166840*
Y-158158*
X241997Y-158500*
G37*
G36*
X141048Y-157831D02*
X141481Y-158173D01*
X141940Y-158474*
X142425Y-158735*
X142936Y-158957*
X143474Y-159137*
X144037Y-159278*
X144626Y-159379*
X145241Y-159439*
X145606Y-159450*
X145919Y-159446*
X148337Y-159251*
X149019Y-159134*
X149638Y-158991*
X150195Y-158822*
X150690Y-158627*
X151123Y-158405*
X151493Y-158158*
Y-166840*
X150882Y-166403*
X150249Y-166012*
X149594Y-165666*
X148916Y-165367*
X148216Y-165114*
X147495Y-164907*
X146751Y-164746*
X145984Y-164631*
X145204Y-164563*
X144626Y-164619*
X144037Y-164720*
X143474Y-164861*
X142936Y-165041*
X142425Y-165263*
X141940Y-165524*
X141481Y-165825*
X141048Y-166167*
X140641Y-166549*
Y-157449*
X141048Y-157831*
G37*
G36*
X165497Y-195696D02*
X166070Y-196171D01*
X166659Y-196590*
X167266Y-196953*
X167889Y-197261*
X168529Y-197512*
X169185Y-197707*
X169859Y-197847*
X170549Y-197931*
X171255Y-197959*
Y-203039*
X170549Y-203067*
X169859Y-203151*
X169185Y-203290*
X168529Y-203486*
X167889Y-203737*
X167266Y-204045*
X166659Y-204408*
X166070Y-204827*
X165497Y-205302*
X164941Y-205833*
Y-195165*
X165497Y-195696*
G37*
G36*
X-133751Y-171196D02*
X-133178Y-171671D01*
X-132589Y-172090*
X-131982Y-172453*
X-131359Y-172760*
X-130720Y-173012*
X-130063Y-173208*
X-129390Y-173347*
X-128700Y-173431*
X-127993Y-173459*
Y-178539*
X-128700Y-178567*
X-129390Y-178651*
X-130063Y-178791*
X-130720Y-178986*
X-131359Y-179237*
X-131982Y-179545*
X-132589Y-179908*
X-133178Y-180327*
X-133751Y-180802*
X-134307Y-181333*
Y-170665*
X-133751Y-171196*
G37*
G36*
X167612Y-134206D02*
X167760Y-134364D01*
X168007Y-134504*
X168352Y-134625*
X168797Y-134727*
X169340Y-134810*
X170722Y-134922*
X172499Y-134959*
Y-140039*
X171561Y-140048*
X169340Y-140188*
X168797Y-140271*
X168352Y-140373*
X168007Y-140494*
X167760Y-140634*
X167612Y-140792*
X167562Y-140968*
Y-134030*
X167612Y-134206*
G37*
G36*
X206608Y-118482D02*
X206128Y-119002D01*
X205699Y-119549*
X205322Y-120124*
X204996Y-120726*
X204721Y-121356*
X204498Y-122014*
X204326Y-122700*
X204206Y-123413*
X204136Y-124154*
X204119Y-124923*
X196575Y-117379*
X197344Y-117361*
X198085Y-117292*
X198798Y-117172*
X199484Y-117000*
X200141Y-116777*
X200772Y-116502*
X201374Y-116176*
X201949Y-115799*
X202496Y-115370*
X203016Y-114890*
X206608Y-118482*
G37*
G36*
X241997Y-133500D02*
X242532Y-133806D01*
X243111Y-134077*
X243734Y-134311*
X244401Y-134509*
X245112Y-134671*
X245866Y-134797*
X246665Y-134887*
X248394Y-134959*
Y-140039*
X247508Y-140057*
X245866Y-140201*
X245112Y-140327*
X244401Y-140489*
X243734Y-140687*
X243111Y-140921*
X242532Y-141192*
X241997Y-141498*
X241505Y-141840*
Y-133158*
X241997Y-133500*
G37*
G36*
X051357Y-166549D02*
X050950Y-166167D01*
X050517Y-165825*
X050058Y-165524*
X049573Y-165263*
X049062Y-165041*
X048525Y-164861*
X047961Y-164720*
X047372Y-164619*
X046757Y-164559*
X046116Y-164539*
Y-159459*
X046757Y-159439*
X047372Y-159379*
X047961Y-159278*
X048525Y-159137*
X049062Y-158957*
X049573Y-158735*
X050058Y-158474*
X050517Y-158173*
X050950Y-157831*
X051357Y-157449*
Y-166549*
G37*
G36*
X259557Y-142833D02*
X259001Y-142302D01*
X258428Y-141827*
X257839Y-141408*
X257232Y-141045*
X256609Y-140738*
X255969Y-140486*
X255313Y-140291*
X254640Y-140151*
X253950Y-140067*
X253243Y-140039*
Y-134959*
X253950Y-134931*
X254640Y-134847*
X255313Y-134708*
X255969Y-134512*
X256609Y-134261*
X257232Y-133953*
X257839Y-133590*
X258428Y-133171*
X259001Y-132696*
X259557Y-132165*
Y-142833*
G37*
G36*
X-032196Y-200997D02*
X-032671Y-201570D01*
X-033090Y-202159*
X-033453Y-202766*
X-033760Y-203389*
X-034012Y-204029*
X-034208Y-204685*
X-034347Y-205359*
X-034431Y-206048*
X-034459Y-206756*
X-039539*
X-039567Y-206048*
X-039651Y-205359*
X-039791Y-204685*
X-039986Y-204029*
X-040237Y-203389*
X-040545Y-202766*
X-040908Y-202159*
X-041327Y-201570*
X-041802Y-200997*
X-042333Y-200441*
X-031665*
X-032196Y-200997*
G37*
G36*
X165497Y-249696D02*
X166070Y-250171D01*
X166659Y-250590*
X167266Y-250953*
X167889Y-251261*
X168529Y-251512*
X169185Y-251708*
X169859Y-251847*
X170549Y-251931*
X171255Y-251959*
Y-257039*
X170549Y-257067*
X169859Y-257151*
X169185Y-257291*
X168529Y-257486*
X167889Y-257737*
X167266Y-258045*
X166659Y-258408*
X166070Y-258827*
X165497Y-259302*
X164941Y-259833*
Y-249165*
X165497Y-249696*
G37*
G36*
X-072820Y-259724D02*
X-073145Y-259430D01*
X-073513Y-259166*
X-073924Y-258933*
X-074379Y-258732*
X-074876Y-258562*
X-075416Y-258422*
X-075999Y-258313*
X-076625Y-258236*
X-077294Y-258189*
X-078006Y-258174*
Y-251824*
X-077294Y-251809*
X-075999Y-251685*
X-075416Y-251576*
X-074876Y-251436*
X-074379Y-251266*
X-073924Y-251065*
X-073513Y-250832*
X-073145Y-250568*
X-072820Y-250274*
Y-259724*
G37*
G36*
X-099873Y-274363D02*
X-100402Y-274923D01*
X-100875Y-275487*
X-101291Y-276056*
X-101652Y-276630*
X-101955Y-277209*
X-102203Y-277792*
X-102394Y-278380*
X-102529Y-278973*
X-102607Y-279571*
X-102629Y-280173*
X-110173Y-272629*
X-109571Y-272607*
X-108973Y-272529*
X-108380Y-272394*
X-107792Y-272203*
X-107209Y-271955*
X-106630Y-271653*
X-106056Y-271291*
X-105487Y-270875*
X-104923Y-270402*
X-104363Y-269873*
X-099873Y-274363*
G37*
G36*
X268923Y-313619D02*
X268320Y-313641D01*
X267723Y-313719*
X267130Y-313854*
X266542Y-314045*
X265959Y-314293*
X265380Y-314596*
X264806Y-314957*
X264237Y-315373*
X263673Y-315846*
X263113Y-316375*
X258623Y-311885*
X259152Y-311325*
X259625Y-310761*
X260041Y-310192*
X260402Y-309618*
X260705Y-309039*
X260953Y-308456*
X261144Y-307868*
X261279Y-307275*
X261357Y-306678*
X261379Y-306075*
X268923Y-313619*
G37*
G36*
X165497Y-274696D02*
X166070Y-275171D01*
X166659Y-275590*
X167266Y-275953*
X167889Y-276261*
X168529Y-276512*
X169185Y-276708*
X169859Y-276847*
X170549Y-276931*
X171255Y-276959*
Y-282039*
X170549Y-282067*
X169859Y-282151*
X169185Y-282291*
X168529Y-282486*
X167889Y-282737*
X167266Y-283045*
X166659Y-283408*
X166070Y-283827*
X165497Y-284302*
X164941Y-284833*
Y-274165*
X165497Y-274696*
G37*
G36*
X-065437Y-220351D02*
X-065372Y-220984D01*
X-065262Y-221592*
X-065109Y-222177*
X-064913Y-222737*
X-064672Y-223273*
X-064389Y-223786*
X-064061Y-224274*
X-063689Y-224738*
X-063274Y-225179*
X-072724*
X-072309Y-224738*
X-071937Y-224274*
X-071610Y-223786*
X-071326Y-223273*
X-071085Y-222737*
X-070889Y-222177*
X-070736Y-221592*
X-070626Y-220984*
X-070561Y-220351*
X-070539Y-219695*
X-065459*
X-065437Y-220351*
G37*
G36*
X-063196Y-200997D02*
X-063671Y-201570D01*
X-064090Y-202159*
X-064453Y-202766*
X-064761Y-203389*
X-065012Y-204029*
X-065208Y-204685*
X-065347Y-205359*
X-065431Y-206048*
X-065459Y-206756*
X-070539*
X-070567Y-206048*
X-070651Y-205359*
X-070791Y-204685*
X-070986Y-204029*
X-071237Y-203389*
X-071545Y-202766*
X-071908Y-202159*
X-072327Y-201570*
X-072802Y-200997*
X-073333Y-200441*
X-062665*
X-063196Y-200997*
G37*
G36*
X165497Y-220696D02*
X166070Y-221171D01*
X166659Y-221590*
X167266Y-221953*
X167889Y-222261*
X168529Y-222512*
X169185Y-222707*
X169859Y-222847*
X170549Y-222931*
X171255Y-222959*
Y-228039*
X170549Y-228067*
X169859Y-228151*
X169185Y-228290*
X168529Y-228486*
X167889Y-228737*
X167266Y-229045*
X166659Y-229408*
X166070Y-229827*
X165497Y-230302*
X164941Y-230833*
Y-220165*
X165497Y-220696*
G37*
G36*
X-062738Y-250689D02*
X-062274Y-251061D01*
X-061785Y-251388*
X-061273Y-251672*
X-060737Y-251913*
X-060176Y-252109*
X-059592Y-252262*
X-058984Y-252372*
X-058351Y-252437*
X-057695Y-252459*
Y-257539*
X-058351Y-257561*
X-058984Y-257626*
X-059592Y-257736*
X-060176Y-257889*
X-060737Y-258085*
X-061273Y-258326*
X-061785Y-258610*
X-062274Y-258937*
X-062738Y-259309*
X-063178Y-259724*
Y-250274*
X-062738Y-250689*
G37*
G36*
X-072820Y-234724D02*
X-073145Y-234430D01*
X-073513Y-234166*
X-073924Y-233934*
X-074379Y-233732*
X-074876Y-233562*
X-075416Y-233422*
X-075999Y-233313*
X-076625Y-233236*
X-077294Y-233189*
X-078006Y-233174*
Y-226824*
X-077294Y-226809*
X-075999Y-226685*
X-075416Y-226576*
X-074876Y-226436*
X-074379Y-226266*
X-073924Y-226065*
X-073513Y-225832*
X-073145Y-225568*
X-072820Y-225274*
Y-234724*
G37*
G36*
X194923Y211379D02*
X194154Y211361D01*
X193413Y211292*
X192700Y211172*
X192014Y211000*
X191356Y210777*
X190726Y210502*
X190124Y210176*
X189549Y209799*
X189002Y209370*
X188482Y208890*
X184890Y212482*
X185370Y213002*
X185799Y213549*
X186176Y214124*
X186502Y214726*
X186777Y215356*
X187000Y216014*
X187172Y216700*
X187292Y217413*
X187361Y218154*
X187379Y218923*
X194923Y211379*
G37*
G36*
X332567Y220048D02*
X332651Y219358D01*
X332790Y218685*
X332986Y218028*
X333237Y217389*
X333545Y216766*
X333908Y216159*
X334327Y215570*
X334802Y214997*
X335333Y214441*
X324665*
X325196Y214997*
X325671Y215570*
X326090Y216159*
X326453Y216766*
X326761Y217389*
X327012Y218028*
X327208Y218685*
X327347Y219358*
X327431Y220048*
X327459Y220755*
X332539*
X332567Y220048*
G37*
G36*
X118675Y217678D02*
X119283Y217228D01*
X119902Y216832*
X120532Y216489*
X121174Y216199*
X121828Y215961*
X122493Y215777*
X123170Y215646*
X123859Y215565*
X124558Y215539*
X124913Y210459*
X124200Y210430*
X123509Y210342*
X122840Y210196*
X122193Y209991*
X121569Y209728*
X120967Y209406*
X120387Y209026*
X119829Y208587*
X119293Y208089*
X118779Y207534*
X118079Y218179*
X118675Y217678*
G37*
G36*
X-042855Y207249D02*
X-043395Y207764D01*
X-043953Y208225*
X-044529Y208631*
X-045122Y208983*
X-045733Y209281*
X-046362Y209525*
X-047009Y209715*
X-047674Y209851*
X-048356Y209932*
X-049056Y209959*
Y215039*
X-048356Y215066*
X-047674Y215147*
X-047009Y215283*
X-046362Y215473*
X-045733Y215717*
X-045122Y216015*
X-044529Y216367*
X-043953Y216773*
X-043395Y217234*
X-042855Y217749*
Y207249*
G37*
G36*
X043395Y217234D02*
X043953Y216773D01*
X044529Y216367*
X045122Y216015*
X045733Y215717*
X046362Y215473*
X047009Y215283*
X047674Y215147*
X048356Y215066*
X049056Y215039*
Y209959*
X048356Y209932*
X047674Y209851*
X047009Y209715*
X046362Y209525*
X045733Y209281*
X045122Y208983*
X044529Y208631*
X043953Y208225*
X043395Y207764*
X042855Y207249*
Y217749*
X043395Y217234*
G37*
G36*
Y242234D02*
X043953Y241773D01*
X044529Y241367*
X045122Y241015*
X045733Y240717*
X046362Y240473*
X047009Y240284*
X047674Y240147*
X048356Y240066*
X049056Y240039*
Y234959*
X048356Y234932*
X047674Y234851*
X047009Y234715*
X046362Y234525*
X045733Y234281*
X045122Y233983*
X044529Y233631*
X043953Y233225*
X043395Y232764*
X042855Y232249*
Y242749*
X043395Y242234*
G37*
G36*
X-027531Y243875D02*
X-028007Y243361D01*
X-028432Y242821*
X-028806Y242255*
X-029129Y241664*
X-029401Y241046*
X-029623Y240403*
X-029793Y239735*
X-029913Y239040*
X-029982Y238320*
X-029999Y237574*
X-037424Y244999*
X-036678Y245017*
X-035958Y245085*
X-035263Y245205*
X-034594Y245375*
X-033952Y245597*
X-033334Y245869*
X-032743Y246192*
X-032177Y246566*
X-031637Y246991*
X-031123Y247467*
X-027531Y243875*
G37*
G36*
X056557Y232165D02*
X056001Y232696D01*
X055428Y233172*
X054839Y233590*
X054232Y233953*
X053609Y234260*
X052969Y234512*
X052313Y234707*
X051640Y234847*
X050950Y234931*
X050243Y234959*
Y240039*
X050950Y240067*
X051640Y240151*
X052313Y240291*
X052969Y240486*
X053609Y240738*
X054232Y241046*
X054839Y241408*
X055428Y241827*
X056001Y242302*
X056557Y242833*
Y232165*
G37*
G36*
X219802Y230001D02*
X219327Y229428D01*
X218908Y228839*
X218545Y228232*
X218238Y227609*
X217986Y226970*
X217791Y226314*
X217651Y225640*
X217567Y224950*
X217539Y224243*
X212459*
X212431Y224950*
X212347Y225640*
X212207Y226314*
X212012Y226970*
X211760Y227609*
X211453Y228232*
X211090Y228839*
X210671Y229428*
X210196Y230001*
X209665Y230557*
X220333*
X219802Y230001*
G37*
G36*
X-261196Y234001D02*
X-261671Y233428D01*
X-262090Y232839*
X-262453Y232232*
X-262760Y231609*
X-263012Y230969*
X-263208Y230313*
X-263347Y229640*
X-263431Y228950*
X-263459Y228243*
X-268539*
X-268567Y228950*
X-268651Y229640*
X-268791Y230313*
X-268986Y230969*
X-269237Y231609*
X-269545Y232232*
X-269908Y232839*
X-270327Y233428*
X-270802Y234001*
X-271333Y234557*
X-260665*
X-261196Y234001*
G37*
G36*
X057557Y207165D02*
X057001Y207696D01*
X056428Y208171*
X055839Y208590*
X055232Y208953*
X054610Y209260*
X053969Y209512*
X053313Y209707*
X052640Y209847*
X051950Y209931*
X051243Y209959*
Y215039*
X051950Y215067*
X052640Y215151*
X053313Y215291*
X053969Y215486*
X054610Y215738*
X055232Y216045*
X055839Y216408*
X056428Y216827*
X057001Y217302*
X057557Y217833*
Y207165*
G37*
G36*
X098559Y194241D02*
X098619Y193626D01*
X098720Y193037*
X098861Y192473*
X099042Y191936*
X099263Y191425*
X099524Y190940*
X099825Y190481*
X100167Y190048*
X100549Y189641*
X091449*
X091831Y190048*
X092173Y190481*
X092474Y190940*
X092735Y191425*
X092956Y191936*
X093137Y192473*
X093278Y193037*
X093379Y193626*
X093439Y194241*
X093459Y194882*
X098539*
X098559Y194241*
G37*
G36*
X002567Y196048D02*
X002651Y195358D01*
X002791Y194685*
X002986Y194029*
X003238Y193389*
X003545Y192766*
X003908Y192159*
X004327Y191570*
X004802Y190997*
X005334Y190441*
X-005334*
X-004802Y190997*
X-004327Y191570*
X-003908Y192159*
X-003545Y192766*
X-003238Y193389*
X-002986Y194029*
X-002791Y194685*
X-002651Y195358*
X-002567Y196048*
X-002540Y196755*
X002540*
X002567Y196048*
G37*
G36*
X-314930Y190700D02*
X-314842Y190009D01*
X-314696Y189340*
X-314491Y188694*
X-314228Y188069*
X-313906Y187467*
X-313525Y186887*
X-313087Y186329*
X-312589Y185793*
X-312034Y185279*
X-322679Y184579*
X-322177Y185175*
X-321728Y185783*
X-321332Y186402*
X-320989Y187032*
X-320699Y187674*
X-320461Y188328*
X-320277Y188993*
X-320145Y189670*
X-320065Y190358*
X-320040Y191058*
X-314960Y191413*
X-314930Y190700*
G37*
G36*
X101048Y189167D02*
X101481Y188825D01*
X101940Y188524*
X102425Y188263*
X102936Y188042*
X103474Y187861*
X104037Y187720*
X104626Y187619*
X105241Y187559*
X105882Y187539*
Y182459*
X105241Y182439*
X104626Y182379*
X104037Y182278*
X103474Y182137*
X102936Y181956*
X102425Y181735*
X101940Y181474*
X101481Y181173*
X101048Y180831*
X100641Y180449*
Y189549*
X101048Y189167*
G37*
G36*
X272559Y188241D02*
X272619Y187626D01*
X272720Y187037*
X272861Y186473*
X273042Y185936*
X273263Y185425*
X273524Y184940*
X273825Y184481*
X274167Y184048*
X274549Y183642*
X265449*
X265831Y184048*
X266173Y184481*
X266474Y184940*
X266735Y185425*
X266956Y185936*
X267137Y186473*
X267278Y187037*
X267379Y187626*
X267439Y188241*
X267459Y188882*
X272539*
X272559Y188241*
G37*
G36*
X020016Y211678D02*
X020085Y210958D01*
X020205Y210263*
X020375Y209595*
X020597Y208952*
X020869Y208334*
X021192Y207743*
X021566Y207177*
X021991Y206637*
X022467Y206123*
X018875Y202531*
X018361Y203007*
X017821Y203432*
X017255Y203806*
X016664Y204129*
X016047Y204401*
X015403Y204623*
X014735Y204793*
X014040Y204913*
X013320Y204981*
X012574Y204999*
X019999Y212424*
X020016Y211678*
G37*
G36*
X-086001Y217302D02*
X-085428Y216827D01*
X-084839Y216408*
X-084232Y216045*
X-083609Y215738*
X-082970Y215486*
X-082313Y215291*
X-081640Y215151*
X-080950Y215067*
X-080243Y215039*
Y209959*
X-080950Y209931*
X-081640Y209847*
X-082313Y209707*
X-082970Y209512*
X-083609Y209260*
X-084232Y208953*
X-084839Y208590*
X-085428Y208171*
X-086001Y207696*
X-086557Y207165*
Y217833*
X-086001Y217302*
G37*
G36*
X-004982Y211678D02*
X-004913Y210958D01*
X-004793Y210263*
X-004623Y209595*
X-004401Y208952*
X-004129Y208334*
X-003806Y207743*
X-003432Y207177*
X-003007Y206637*
X-002531Y206123*
X-006123Y202531*
X-006637Y203007*
X-007177Y203432*
X-007743Y203806*
X-008334Y204129*
X-008952Y204401*
X-009595Y204623*
X-010263Y204793*
X-010958Y204913*
X-011678Y204981*
X-012424Y204999*
X-004999Y212424*
X-004982Y211678*
G37*
G36*
X-220075Y200116D02*
X-220442Y199638D01*
X-220766Y199123*
X-221047Y198572*
X-221284Y197985*
X-221479Y197361*
X-221630Y196700*
X-221738Y196003*
X-221802Y195270*
X-221824Y194500*
X-228174*
X-228196Y195270*
X-228260Y196003*
X-228368Y196700*
X-228519Y197361*
X-228714Y197985*
X-228951Y198572*
X-229232Y199123*
X-229556Y199638*
X-229923Y200116*
X-230333Y200557*
X-219665*
X-220075Y200116*
G37*
G36*
X329923Y201379D02*
X329154Y201361D01*
X328413Y201292*
X327700Y201172*
X327014Y201000*
X326356Y200777*
X325726Y200502*
X325124Y200176*
X324549Y199799*
X324002Y199370*
X323482Y198890*
X319890Y202482*
X320370Y203002*
X320799Y203549*
X321176Y204124*
X321502Y204726*
X321777Y205356*
X322000Y206014*
X322172Y206700*
X322292Y207413*
X322362Y208154*
X322379Y208923*
X329923Y201379*
G37*
G36*
X081802Y249001D02*
X081327Y248428D01*
X080908Y247839*
X080545Y247232*
X080238Y246609*
X079986Y245969*
X079790Y245313*
X079651Y244640*
X079567Y243950*
X079539Y243243*
X074459*
X074431Y243950*
X074347Y244640*
X074207Y245313*
X074012Y245969*
X073761Y246609*
X073453Y247232*
X073090Y247839*
X072671Y248428*
X072196Y249001*
X071665Y249557*
X082333*
X081802Y249001*
G37*
G36*
X225930Y342103D02*
X225666Y341735D01*
X225433Y341324*
X225232Y340870*
X225062Y340372*
X224922Y339832*
X224813Y339249*
X224736Y338623*
X224689Y337954*
X224674Y337242*
X218324*
X218308Y337954*
X218186Y339249*
X218076Y339832*
X217937Y340372*
X217766Y340870*
X217564Y341324*
X217332Y341735*
X217068Y342103*
X216774Y342429*
X226224*
X225930Y342103*
G37*
G36*
X-186196Y344001D02*
X-186671Y343428D01*
X-187090Y342839*
X-187453Y342232*
X-187760Y341609*
X-188012Y340969*
X-188208Y340313*
X-188347Y339640*
X-188431Y338950*
X-188459Y338243*
X-193539*
X-193567Y338950*
X-193651Y339640*
X-193791Y340313*
X-193986Y340969*
X-194237Y341609*
X-194545Y342232*
X-194908Y342839*
X-195327Y343428*
X-195802Y344001*
X-196333Y344557*
X-185665*
X-186196Y344001*
G37*
G36*
X175930Y342103D02*
X175666Y341735D01*
X175433Y341324*
X175232Y340870*
X175062Y340372*
X174922Y339832*
X174813Y339249*
X174736Y338623*
X174689Y337954*
X174674Y337242*
X168324*
X168308Y337954*
X168185Y339249*
X168076Y339832*
X167937Y340372*
X167767Y340870*
X167564Y341324*
X167332Y341735*
X167068Y342103*
X166774Y342429*
X176224*
X175930Y342103*
G37*
G36*
X-029819Y289024D02*
X-030260Y289439D01*
X-030724Y289811*
X-031213Y290138*
X-031725Y290422*
X-032261Y290663*
X-032821Y290859*
X-033406Y291012*
X-034014Y291122*
X-034647Y291187*
X-035303Y291209*
Y296289*
X-034647Y296311*
X-034014Y296376*
X-033406Y296486*
X-032821Y296639*
X-032261Y296835*
X-031725Y297076*
X-031213Y297360*
X-030724Y297688*
X-030260Y298059*
X-029819Y298474*
Y289024*
G37*
G36*
X034320Y298580D02*
X033827Y298065D01*
X032999Y297062*
X032664Y296573*
X032381Y296093*
X032150Y295620*
X031971Y295157*
X031845Y294701*
X031771Y294255*
X031750Y293817*
X025067Y300499*
X025505Y300521*
X025951Y300595*
X026407Y300721*
X026870Y300900*
X027342Y301131*
X027823Y301414*
X028312Y301749*
X028810Y302137*
X029315Y302577*
X029830Y303070*
X034320Y298580*
G37*
G36*
X-040064Y402999D02*
X-040622Y402982D01*
X-041170Y402917*
X-041707Y402806*
X-042235Y402647*
X-042753Y402442*
X-043261Y402190*
X-043758Y401892*
X-044246Y401546*
X-044724Y401154*
X-045191Y400714*
X-048783Y404307*
X-048344Y404774*
X-047952Y405252*
X-047606Y405740*
X-047308Y406237*
X-047056Y406745*
X-046851Y407263*
X-046693Y407790*
X-046581Y408328*
X-046517Y408876*
X-046499Y409434*
X-040064Y402999*
G37*
G36*
X044933Y413788D02*
X045269Y413554D01*
X045651Y413348*
X046077Y413169*
X046547Y413018*
X047063Y412894*
X047623Y412798*
X048227Y412729*
X049571Y412674*
Y406324*
X048877Y406310*
X047623Y406200*
X047063Y406104*
X046547Y405980*
X046077Y405829*
X045651Y405650*
X045269Y405444*
X044933Y405210*
X044641Y404949*
Y414049*
X044933Y413788*
G37*
G36*
X044288Y404565D02*
X044054Y404229D01*
X043848Y403847*
X043669Y403421*
X043518Y402951*
X043394Y402435*
X043298Y401875*
X043229Y401271*
X043174Y399927*
X036824*
X036810Y400621*
X036700Y401875*
X036604Y402435*
X036480Y402951*
X036329Y403421*
X036150Y403847*
X035944Y404229*
X035710Y404565*
X035449Y404857*
X044549*
X044288Y404565*
G37*
G36*
X226760Y351559D02*
X227224Y351187D01*
X227713Y350860*
X228225Y350576*
X228761Y350335*
X229321Y350139*
X229906Y349986*
X230514Y349876*
X231146Y349811*
X231803Y349789*
Y344709*
X231146Y344687*
X230514Y344622*
X229906Y344512*
X229321Y344359*
X228761Y344163*
X228225Y343922*
X227713Y343638*
X227224Y343311*
X226760Y342939*
X226319Y342524*
Y351974*
X226760Y351559*
G37*
G36*
X167183Y356077D02*
X168186Y355249D01*
X168675Y354914*
X169155Y354631*
X169628Y354400*
X170091Y354221*
X170547Y354095*
X170993Y354020*
X171431Y353999*
X164749Y347317*
X164728Y347755*
X164653Y348202*
X164527Y348657*
X164348Y349120*
X164117Y349593*
X163834Y350073*
X163499Y350562*
X163111Y351059*
X162671Y351565*
X162179Y352080*
X166668Y356570*
X167183Y356077*
G37*
G36*
X-109001Y298552D02*
X-108428Y298077D01*
X-107839Y297658*
X-107232Y297295*
X-106609Y296988*
X-105969Y296736*
X-105313Y296541*
X-104640Y296401*
X-103950Y296317*
X-103243Y296289*
Y291209*
X-103950Y291181*
X-104640Y291097*
X-105313Y290957*
X-105969Y290762*
X-106609Y290510*
X-107232Y290203*
X-107839Y289840*
X-108428Y289421*
X-109001Y288946*
X-109557Y288415*
Y299083*
X-109001Y298552*
G37*
G36*
X342432Y273249D02*
X341827Y273231D01*
X341236Y273166*
X340658Y273052*
X340095Y272891*
X339546Y272682*
X339011Y272424*
X338490Y272119*
X337982Y271767*
X337489Y271366*
X337009Y270917*
X333417Y274509*
X333866Y274989*
X334267Y275482*
X334619Y275990*
X334924Y276511*
X335182Y277046*
X335391Y277595*
X335552Y278159*
X335666Y278736*
X335731Y279327*
X335749Y279931*
X342432Y273249*
G37*
G36*
X317318Y273251D02*
X316713Y273244D01*
X316121Y273188*
X315542Y273084*
X314977Y272932*
X314424Y272732*
X313884Y272484*
X313358Y272188*
X312845Y271843*
X312345Y271451*
X311858Y271010*
X308326Y274662*
X308783Y275134*
X309192Y275621*
X309553Y276122*
X309867Y276638*
X310134Y277169*
X310352Y277715*
X310522Y278275*
X310646Y278850*
X310721Y279440*
X310749Y280045*
X317318Y273251*
G37*
G36*
X284309Y275738D02*
X283937Y275274D01*
X283610Y274785*
X283326Y274273*
X283085Y273737*
X282889Y273177*
X282736Y272592*
X282626Y271984*
X282561Y271352*
X282539Y270695*
X277459*
X277437Y271352*
X277372Y271984*
X277262Y272592*
X277109Y273177*
X276913Y273737*
X276672Y274273*
X276388Y274785*
X276061Y275274*
X275689Y275738*
X275274Y276179*
X284724*
X284309Y275738*
G37*
G36*
X100933Y269288D02*
X101269Y269054D01*
X101651Y268848*
X102077Y268669*
X102547Y268518*
X103063Y268394*
X103623Y268298*
X104227Y268229*
X105571Y268174*
Y261824*
X104877Y261810*
X103623Y261700*
X103063Y261604*
X102547Y261480*
X102077Y261329*
X101651Y261150*
X101269Y260944*
X100933Y260710*
X100641Y260449*
Y269549*
X100933Y269288*
G37*
G36*
X-313189Y274738D02*
X-313561Y274274D01*
X-313888Y273786*
X-314172Y273273*
X-314413Y272737*
X-314609Y272177*
X-314762Y271592*
X-314872Y270984*
X-314937Y270351*
X-314960Y269695*
X-320040*
X-320061Y270351*
X-320126Y270984*
X-320236Y271592*
X-320389Y272177*
X-320585Y272737*
X-320826Y273273*
X-321110Y273786*
X-321437Y274274*
X-321809Y274738*
X-322224Y275179*
X-312774*
X-313189Y274738*
G37*
G36*
X225683Y289827D02*
X226686Y288999D01*
X227175Y288664*
X227655Y288381*
X228128Y288150*
X228591Y287971*
X229047Y287845*
X229493Y287770*
X229931Y287749*
X223249Y281067*
X223227Y281505*
X223153Y281951*
X223027Y282407*
X222848Y282870*
X222617Y283343*
X222334Y283823*
X221999Y284312*
X221611Y284810*
X221171Y285315*
X220678Y285830*
X225168Y290320*
X225683Y289827*
G37*
G36*
X-020689Y288488D02*
X-021061Y288024D01*
X-021388Y287536*
X-021672Y287023*
X-021913Y286487*
X-022109Y285927*
X-022262Y285342*
X-022372Y284734*
X-022437Y284101*
X-022459Y283445*
X-027539*
X-027561Y284101*
X-027626Y284734*
X-027736Y285342*
X-027889Y285927*
X-028085Y286487*
X-028326Y287023*
X-028610Y287536*
X-028937Y288024*
X-029309Y288488*
X-029724Y288929*
X-020274*
X-020689Y288488*
G37*
G36*
X337489Y288632D02*
X337982Y288231D01*
X338490Y287879*
X339011Y287574*
X339546Y287316*
X340095Y287107*
X340658Y286946*
X341236Y286832*
X341827Y286767*
X342432Y286749*
X335749Y280067*
X335731Y280671*
X335666Y281262*
X335552Y281839*
X335391Y282403*
X335182Y282952*
X334924Y283487*
X334619Y284008*
X334267Y284516*
X333866Y285009*
X333417Y285489*
X337009Y289081*
X337489Y288632*
G37*
G36*
X-347320Y275274D02*
X-347760Y275689D01*
X-348224Y276061*
X-348712Y276388*
X-349225Y276672*
X-349761Y276913*
X-350321Y277109*
X-350906Y277262*
X-351514Y277372*
X-352146Y277437*
X-352803Y277459*
Y282539*
X-352146Y282561*
X-351514Y282626*
X-350906Y282736*
X-350321Y282889*
X-349761Y283085*
X-349225Y283326*
X-348712Y283610*
X-348224Y283937*
X-347760Y284309*
X-347320Y284724*
Y275274*
G37*
G36*
X275179Y276274D02*
X274738Y276689D01*
X274274Y277061*
X273786Y277388*
X273273Y277672*
X272737Y277913*
X272177Y278109*
X271592Y278262*
X270984Y278372*
X270351Y278437*
X269695Y278459*
Y283539*
X270351Y283561*
X270984Y283626*
X271592Y283736*
X272177Y283889*
X272737Y284085*
X273273Y284326*
X273786Y284610*
X274274Y284937*
X274738Y285309*
X275179Y285724*
Y276274*
G37*
G36*
X091357Y180449D02*
X090950Y180831D01*
X090517Y181173*
X090058Y181474*
X089573Y181735*
X089062Y181956*
X088525Y182137*
X087961Y182278*
X087372Y182379*
X086757Y182439*
X086116Y182459*
Y187539*
X086757Y187559*
X087372Y187619*
X087961Y187720*
X088525Y187861*
X089062Y188042*
X089573Y188263*
X090058Y188524*
X090517Y188825*
X090950Y189167*
X091357Y189549*
Y180449*
G37*
G36*
X-364031Y073375D02*
X-364507Y072861D01*
X-364932Y072321*
X-365306Y071755*
X-365629Y071164*
X-365901Y070546*
X-366123Y069903*
X-366293Y069235*
X-366413Y068540*
X-366482Y067820*
X-366499Y067074*
X-373924Y074499*
X-373178Y074516*
X-372458Y074585*
X-371763Y074705*
X-371094Y074875*
X-370451Y075097*
X-369834Y075369*
X-369243Y075692*
X-368677Y076066*
X-368137Y076491*
X-367623Y076967*
X-364031Y073375*
G37*
G36*
X-339031D02*
X-339507Y072861D01*
X-339932Y072321*
X-340306Y071755*
X-340629Y071164*
X-340901Y070546*
X-341123Y069903*
X-341293Y069235*
X-341413Y068540*
X-341482Y067820*
X-341499Y067074*
X-348924Y074499*
X-348178Y074516*
X-347458Y074585*
X-346763Y074705*
X-346094Y074875*
X-345451Y075097*
X-344834Y075369*
X-344243Y075692*
X-343677Y076066*
X-343137Y076491*
X-342623Y076967*
X-339031Y073375*
G37*
G36*
X-389031D02*
X-389507Y072861D01*
X-389932Y072321*
X-390306Y071755*
X-390629Y071164*
X-390901Y070546*
X-391123Y069903*
X-391293Y069235*
X-391414Y068540*
X-391482Y067820*
X-391499Y067074*
X-398924Y074499*
X-398178Y074516*
X-397458Y074585*
X-396763Y074705*
X-396094Y074875*
X-395451Y075097*
X-394834Y075369*
X-394243Y075692*
X-393677Y076066*
X-393137Y076491*
X-392623Y076967*
X-389031Y073375*
G37*
G36*
X309887Y071991D02*
X310427Y071566D01*
X310993Y071192*
X311584Y070869*
X312201Y070597*
X312844Y070375*
X313513Y070205*
X314208Y070085*
X314928Y070016*
X315674Y069999*
X308249Y062574*
X308231Y063320*
X308163Y064040*
X308043Y064735*
X307873Y065405*
X307651Y066047*
X307379Y066664*
X307056Y067255*
X306682Y067821*
X306257Y068361*
X305781Y068875*
X309373Y072467*
X309887Y071991*
G37*
G36*
X055802Y069001D02*
X055327Y068428D01*
X054908Y067839*
X054545Y067232*
X054238Y066609*
X053986Y065970*
X053790Y065313*
X053651Y064640*
X053567Y063950*
X053539Y063243*
X048459*
X048431Y063950*
X048347Y064640*
X048207Y065313*
X048012Y065970*
X047761Y066609*
X047453Y067232*
X047090Y067839*
X046671Y068428*
X046196Y069001*
X045665Y069557*
X056333*
X055802Y069001*
G37*
G36*
X166997Y091497D02*
X167532Y091191D01*
X168111Y090921*
X168734Y090687*
X169401Y090489*
X170112Y090327*
X170866Y090201*
X171665Y090111*
X173394Y090039*
Y084959*
X172508Y084941*
X170866Y084797*
X170112Y084671*
X169401Y084509*
X168734Y084311*
X168111Y084076*
X167532Y083806*
X166997Y083500*
X166505Y083158*
Y091840*
X166997Y091497*
G37*
G36*
X241997D02*
X242532Y091191D01*
X243111Y090921*
X243734Y090687*
X244401Y090489*
X245112Y090327*
X245866Y090201*
X246665Y090111*
X248394Y090039*
Y084959*
X247508Y084941*
X245866Y084797*
X245112Y084671*
X244401Y084509*
X243734Y084311*
X243111Y084076*
X242532Y083806*
X241997Y083500*
X241505Y083158*
Y091840*
X241997Y091497*
G37*
G36*
X446645Y092234D02*
X447203Y091773D01*
X447779Y091367*
X448372Y091015*
X448983Y090716*
X449612Y090473*
X450259Y090283*
X450923Y090147*
X451606Y090066*
X452306Y090039*
Y084959*
X451606Y084932*
X450923Y084851*
X450259Y084715*
X449612Y084525*
X448983Y084282*
X448372Y083983*
X447779Y083631*
X447203Y083225*
X446645Y082764*
X446105Y082249*
Y092749*
X446645Y092234*
G37*
G36*
X-419196Y083001D02*
X-419671Y082428D01*
X-420090Y081839*
X-420453Y081232*
X-420760Y080609*
X-421012Y079969*
X-421207Y079313*
X-421347Y078640*
X-421431Y077950*
X-421433Y077892*
X-421432Y077856*
X-421351Y077174*
X-421215Y076509*
X-421025Y075862*
X-420782Y075233*
X-420483Y074622*
X-420131Y074029*
X-419725Y073453*
X-419264Y072895*
X-418749Y072355*
X-429249*
X-428734Y072895*
X-428273Y073453*
X-427867Y074029*
X-427515Y074622*
X-427216Y075233*
X-426974Y075862*
X-426783Y076509*
X-426647Y077174*
X-426566Y077856*
X-426565Y077892*
X-426567Y077950*
X-426651Y078640*
X-426790Y079313*
X-426986Y079969*
X-427238Y080609*
X-427545Y081232*
X-427908Y081839*
X-428327Y082428*
X-428802Y083001*
X-429333Y083557*
X-418665*
X-419196Y083001*
G37*
G36*
X190522Y088604D02*
X191080Y088157D01*
X191654Y087766*
X192245Y087432*
X192853Y087154*
X193478Y086933*
X194120Y086768*
X194779Y086659*
X195455Y086607*
X196148Y086611*
X188887Y079350*
X188891Y080043*
X188839Y080719*
X188730Y081378*
X188565Y082020*
X188344Y082645*
X188066Y083253*
X187732Y083844*
X187341Y084418*
X186894Y084976*
X186390Y085516*
X189982Y089108*
X190522Y088604*
G37*
G36*
X-318217Y071855D02*
X-317755Y071502D01*
X-317254Y071191*
X-316716Y070921*
X-316141Y070693*
X-315529Y070506*
X-314879Y070361*
X-314191Y070257*
X-313466Y070195*
X-312704Y070174*
Y063824*
X-313466Y063803*
X-314191Y063741*
X-314879Y063637*
X-315529Y063492*
X-316141Y063305*
X-316716Y063077*
X-317254Y062807*
X-317755Y062496*
X-318217Y062143*
X-318643Y061749*
Y072249*
X-318217Y071855*
G37*
G36*
X-399074Y059499D02*
X-399820Y059481D01*
X-400540Y059413*
X-401235Y059293*
X-401903Y059123*
X-402546Y058901*
X-403164Y058629*
X-403755Y058306*
X-404321Y057932*
X-404861Y057507*
X-405375Y057031*
X-408967Y060623*
X-408491Y061137*
X-408066Y061677*
X-407692Y062243*
X-407369Y062834*
X-407097Y063452*
X-406875Y064095*
X-406705Y064763*
X-406585Y065458*
X-406516Y066178*
X-406499Y066924*
X-399074Y059499*
G37*
G36*
X-391482Y066178D02*
X-391414Y065458D01*
X-391293Y064763*
X-391123Y064095*
X-390901Y063452*
X-390629Y062834*
X-390306Y062243*
X-389932Y061677*
X-389507Y061137*
X-389031Y060623*
X-392623Y057031*
X-393137Y057507*
X-393677Y057932*
X-394243Y058306*
X-394834Y058629*
X-395451Y058901*
X-396094Y059123*
X-396763Y059293*
X-397458Y059413*
X-398178Y059481*
X-398924Y059499*
X-391499Y066924*
X-391482Y066178*
G37*
G36*
X-424074Y059499D02*
X-424820Y059481D01*
X-425540Y059413*
X-426235Y059293*
X-426903Y059123*
X-427546Y058901*
X-428164Y058629*
X-428755Y058306*
X-429321Y057932*
X-429861Y057507*
X-430375Y057031*
X-433967Y060623*
X-433491Y061137*
X-433066Y061677*
X-432692Y062243*
X-432369Y062834*
X-432097Y063452*
X-431875Y064095*
X-431705Y064763*
X-431585Y065458*
X-431516Y066178*
X-431499Y066924*
X-424074Y059499*
G37*
G36*
X190502Y058628D02*
X191049Y058199D01*
X191624Y057822*
X192226Y057496*
X192856Y057221*
X193514Y056998*
X194200Y056826*
X194913Y056706*
X195654Y056637*
X196423Y056619*
X188879Y049075*
X188861Y049844*
X188792Y050585*
X188672Y051298*
X188500Y051984*
X188277Y052641*
X188002Y053272*
X187676Y053874*
X187299Y054449*
X186870Y054996*
X186390Y055516*
X189982Y059108*
X190502Y058628*
G37*
G36*
X118802Y056001D02*
X118327Y055428D01*
X117908Y054839*
X117545Y054232*
X117238Y053609*
X116986Y052969*
X116790Y052313*
X116651Y051640*
X116567Y050950*
X116539Y050243*
X111459*
X111431Y050950*
X111347Y051640*
X111207Y052313*
X111012Y052969*
X110760Y053609*
X110453Y054232*
X110090Y054839*
X109671Y055428*
X109196Y056001*
X108665Y056557*
X119333*
X118802Y056001*
G37*
G36*
X166997Y066497D02*
X167532Y066191D01*
X168111Y065921*
X168734Y065687*
X169401Y065489*
X170112Y065327*
X170866Y065201*
X171665Y065111*
X173394Y065039*
Y059959*
X172508Y059941*
X170866Y059797*
X170112Y059671*
X169401Y059509*
X168734Y059310*
X168111Y059076*
X167532Y058806*
X166997Y058500*
X166505Y058158*
Y066840*
X166997Y066497*
G37*
G36*
X241997D02*
X242532Y066191D01*
X243111Y065921*
X243734Y065687*
X244401Y065489*
X245112Y065327*
X245866Y065201*
X246665Y065111*
X248394Y065039*
Y059959*
X247508Y059941*
X245866Y059797*
X245112Y059671*
X244401Y059509*
X243734Y059310*
X243111Y059076*
X242532Y058806*
X241997Y058500*
X241505Y058158*
Y066840*
X241997Y066497*
G37*
G36*
X435393Y057249D02*
X434967Y057643D01*
X434505Y057996*
X434004Y058307*
X433466Y058577*
X432891Y058805*
X432279Y058992*
X431629Y059137*
X430941Y059241*
X430217Y059303*
X429454Y059324*
Y065674*
X430217Y065695*
X430941Y065757*
X431629Y065861*
X432279Y066006*
X432891Y066193*
X433466Y066421*
X434004Y066691*
X434505Y067002*
X434967Y067355*
X435393Y067749*
Y057249*
G37*
G36*
X409307Y057165D02*
X408751Y057696D01*
X408178Y058171*
X407589Y058590*
X406982Y058953*
X406359Y059260*
X405719Y059512*
X405063Y059707*
X404390Y059847*
X403700Y059931*
X402993Y059959*
Y065039*
X403700Y065067*
X404390Y065151*
X405063Y065291*
X405719Y065486*
X406359Y065738*
X406982Y066045*
X407589Y066408*
X408178Y066827*
X408751Y067302*
X409307Y067833*
Y057165*
G37*
G36*
X420632Y067423D02*
X421110Y067056D01*
X421625Y066732*
X422176Y066451*
X422763Y066214*
X423387Y066019*
X424048Y065868*
X424745Y065760*
X425478Y065696*
X426248Y065674*
Y059324*
X425478Y059302*
X424745Y059238*
X424048Y059130*
X423387Y058979*
X422763Y058784*
X422176Y058547*
X421625Y058266*
X421110Y057942*
X420632Y057575*
X420191Y057165*
Y067833*
X420632Y067423*
G37*
G36*
X-315075Y088379D02*
X-315844Y088362D01*
X-316585Y088292*
X-317298Y088172*
X-317984Y088000*
X-318643Y087777*
X-319272Y087503*
X-319874Y087176*
X-320449Y086799*
X-320996Y086370*
X-321516Y085890*
X-325108Y089482*
X-324628Y090002*
X-324199Y090549*
X-323822Y091124*
X-323496Y091726*
X-323221Y092357*
X-322998Y093014*
X-322826Y093700*
X-322707Y094413*
X-322636Y095154*
X-322619Y095923*
X-315075Y088379*
G37*
G36*
X230671Y157517D02*
X230276Y157799D01*
X229815Y157944*
X229290Y157953*
X228699Y157825*
X228044Y157561*
X227323Y157161*
X226538Y156625*
X225687Y155952*
X224771Y155143*
X223790Y154198*
X220502Y158094*
X221140Y158753*
X222236Y160012*
X222692Y160612*
X223423Y161752*
X223698Y162293*
X223912Y162814*
X224065Y163315*
X224157Y163796*
X230671Y157517*
G37*
G36*
X-131376Y169177D02*
X-130803Y168702D01*
X-130214Y168283*
X-129607Y167920*
X-128984Y167613*
X-128344Y167361*
X-127688Y167166*
X-127015Y167026*
X-126325Y166942*
X-125618Y166914*
Y161834*
X-126325Y161806*
X-127015Y161722*
X-127688Y161582*
X-128344Y161387*
X-128984Y161135*
X-129607Y160828*
X-130214Y160465*
X-130803Y160046*
X-131376Y159571*
X-131932Y159040*
Y169708*
X-131376Y169177*
G37*
G36*
X-263431Y148048D02*
X-263347Y147358D01*
X-263208Y146685*
X-263012Y146029*
X-262760Y145389*
X-262453Y144766*
X-262090Y144159*
X-261671Y143570*
X-261196Y142997*
X-260665Y142441*
X-271333*
X-270802Y142997*
X-270327Y143570*
X-269908Y144159*
X-269545Y144766*
X-269237Y145389*
X-268986Y146029*
X-268791Y146685*
X-268651Y147358*
X-268567Y148048*
X-268539Y148755*
X-263459*
X-263431Y148048*
G37*
G36*
X241997Y141497D02*
X242532Y141191D01*
X243111Y140921*
X243734Y140687*
X244401Y140489*
X245112Y140327*
X245866Y140201*
X246665Y140111*
X248394Y140039*
Y134959*
X247508Y134941*
X245866Y134797*
X245112Y134671*
X244401Y134509*
X243734Y134311*
X243111Y134076*
X242532Y133806*
X241997Y133500*
X241505Y133158*
Y141840*
X241997Y141497*
G37*
G36*
X167612Y140791D02*
X167760Y140633D01*
X168007Y140494*
X168353Y140373*
X168797Y140271*
X169340Y140187*
X170722Y140076*
X172499Y140039*
Y134959*
X171561Y134950*
X169340Y134810*
X168797Y134727*
X168353Y134624*
X168007Y134504*
X167760Y134364*
X167612Y134206*
X167563Y134030*
Y140968*
X167612Y140791*
G37*
G36*
X-134806Y175423D02*
X-134722Y174733D01*
X-134583Y174060*
X-134387Y173404*
X-134135Y172764*
X-133828Y172141*
X-133465Y171534*
X-133046Y170945*
X-132571Y170372*
X-132040Y169816*
X-142708*
X-142177Y170372*
X-141702Y170945*
X-141283Y171534*
X-140920Y172141*
X-140612Y172764*
X-140361Y173404*
X-140166Y174060*
X-140026Y174733*
X-139942Y175423*
X-139914Y176130*
X-134834*
X-134806Y175423*
G37*
G36*
X-005441Y179665D02*
X-005997Y180196D01*
X-006570Y180671*
X-007159Y181090*
X-007766Y181453*
X-008389Y181760*
X-009028Y182012*
X-009685Y182208*
X-010358Y182347*
X-011049Y182431*
X-011755Y182459*
Y187539*
X-011049Y187567*
X-010358Y187651*
X-009685Y187791*
X-009028Y187986*
X-008389Y188238*
X-007766Y188545*
X-007159Y188908*
X-006570Y189327*
X-005997Y189802*
X-005441Y190333*
Y179665*
G37*
G36*
X-309362Y178654D02*
X-309292Y177913D01*
X-309172Y177200*
X-309000Y176515*
X-308777Y175857*
X-308502Y175226*
X-308176Y174625*
X-307799Y174049*
X-307370Y173502*
X-306890Y172982*
X-310482Y169390*
X-311002Y169870*
X-311549Y170299*
X-312124Y170676*
X-312726Y171002*
X-313357Y171277*
X-314015Y171500*
X-314700Y171672*
X-315413Y171792*
X-316154Y171862*
X-316923Y171879*
X-309379Y179423*
X-309362Y178654*
G37*
G36*
X161564Y171577D02*
X161641Y170709D01*
X161768Y169942*
X161945Y169278*
X162174Y168716*
X162453Y168255*
X162784Y167898*
X163165Y167642*
X163596Y167489*
X164079Y167438*
X153919*
X154402Y167489*
X154833Y167642*
X155214Y167898*
X155545Y168255*
X155824Y168716*
X156053Y169278*
X156230Y169942*
X156357Y170709*
X156434Y171577*
X156459Y172548*
X161539*
X161564Y171577*
G37*
G36*
X236564Y171618D02*
X236640Y170748D01*
X236767Y169980*
X236945Y169314*
X237173Y168751*
X237452Y168290*
X237782Y167931*
X238162Y167676*
X238593Y167522*
X239075Y167471*
X228923*
X229405Y167522*
X229836Y167676*
X230216Y167931*
X230546Y168290*
X230825Y168751*
X231053Y169314*
X231231Y169980*
X231358Y170748*
X231434Y171618*
X231459Y172591*
X236539*
X236564Y171618*
G37*
G36*
X151493Y133158D02*
X151001Y133500D01*
X150466Y133806*
X149887Y134076*
X149264Y134311*
X148597Y134509*
X147886Y134671*
X147132Y134797*
X146333Y134887*
X144604Y134959*
Y140039*
X145491Y140057*
X147132Y140201*
X147886Y140327*
X148597Y140489*
X149264Y140687*
X149887Y140921*
X150466Y141191*
X151001Y141497*
X151493Y141840*
Y133158*
G37*
G36*
X065636Y110154D02*
X065706Y109413D01*
X065826Y108700*
X065998Y108014*
X066221Y107357*
X066496Y106726*
X066822Y106124*
X067199Y105549*
X067628Y105002*
X068108Y104482*
X064516Y100890*
X063996Y101370*
X063449Y101799*
X062874Y102176*
X062272Y102502*
X061641Y102777*
X060984Y103000*
X060298Y103172*
X059585Y103292*
X058844Y103362*
X058075Y103379*
X065619Y110923*
X065636Y110154*
G37*
G36*
X-384196Y108001D02*
X-384671Y107428D01*
X-385090Y106839*
X-385453Y106232*
X-385760Y105609*
X-386012Y104970*
X-386207Y104313*
X-386347Y103640*
X-386431Y102950*
X-386459Y102243*
X-391539*
X-391567Y102950*
X-391651Y103640*
X-391790Y104313*
X-391986Y104970*
X-392238Y105609*
X-392545Y106232*
X-392908Y106839*
X-393327Y107428*
X-393802Y108001*
X-394333Y108557*
X-383665*
X-384196Y108001*
G37*
G36*
X445358Y106994D02*
X444923Y106370D01*
X444540Y105737*
X444208Y105095*
X443927Y104444*
X443698Y103784*
X443519Y103115*
X443391Y102437*
X443315Y101750*
X443289Y101054*
X438209Y100520*
X438179Y101236*
X438090Y101927*
X437941Y102593*
X437732Y103235*
X437463Y103851*
X437135Y104442*
X436748Y105009*
X436300Y105550*
X435793Y106067*
X435227Y106559*
X445843Y107609*
X445358Y106994*
G37*
G36*
X309887Y096991D02*
X310427Y096566D01*
X310993Y096192*
X311584Y095869*
X312201Y095597*
X312844Y095375*
X313513Y095205*
X314208Y095085*
X314928Y095016*
X315674Y094999*
X308249Y087574*
X308231Y088320*
X308163Y089040*
X308043Y089735*
X307873Y090404*
X307651Y091046*
X307379Y091664*
X307056Y092255*
X306682Y092821*
X306257Y093361*
X305781Y093875*
X309373Y097467*
X309887Y096991*
G37*
G36*
X443316Y098356D02*
X443397Y097674D01*
X443533Y097009*
X443723Y096362*
X443967Y095733*
X444265Y095123*
X444617Y094529*
X445023Y093953*
X445484Y093395*
X445999Y092855*
X435499*
X436014Y093395*
X436475Y093953*
X436881Y094529*
X437233Y095123*
X437532Y095733*
X437775Y096362*
X437965Y097009*
X438101Y097674*
X438182Y098356*
X438209Y099056*
X443289*
X443316Y098356*
G37*
G36*
X166997Y116497D02*
X167532Y116191D01*
X168111Y115921*
X168734Y115687*
X169401Y115489*
X170112Y115327*
X170866Y115201*
X171665Y115111*
X173394Y115039*
Y109959*
X172508Y109941*
X170866Y109797*
X170112Y109671*
X169401Y109509*
X168734Y109311*
X168111Y109076*
X167532Y108806*
X166997Y108500*
X166505Y108158*
Y116840*
X166997Y116497*
G37*
G36*
X241997D02*
X242532Y116191D01*
X243111Y115921*
X243734Y115687*
X244401Y115489*
X245112Y115327*
X245866Y115201*
X246665Y115111*
X248394Y115039*
Y109959*
X247508Y109941*
X245866Y109797*
X245112Y109671*
X244401Y109509*
X243734Y109311*
X243111Y109076*
X242532Y108806*
X241997Y108500*
X241505Y108158*
Y116840*
X241997Y116497*
G37*
G36*
X151493Y108158D02*
X151001Y108500D01*
X150466Y108806*
X149887Y109076*
X149264Y109311*
X148597Y109509*
X147886Y109671*
X147132Y109797*
X146333Y109887*
X144604Y109959*
Y115039*
X145491Y115057*
X147132Y115201*
X147886Y115327*
X148597Y115489*
X149264Y115687*
X149887Y115921*
X150466Y116191*
X151001Y116497*
X151493Y116840*
Y108158*
G37*
G36*
X321747Y116802D02*
X322320Y116327D01*
X322909Y115908*
X323516Y115545*
X324139Y115238*
X324779Y114986*
X325435Y114790*
X326108Y114651*
X326798Y114567*
X327505Y114539*
Y109459*
X326798Y109431*
X326108Y109347*
X325435Y109207*
X324779Y109012*
X324139Y108761*
X323516Y108453*
X322909Y108090*
X322320Y107671*
X321747Y107196*
X321191Y106665*
Y117333*
X321747Y116802*
G37*
G36*
X384307Y106665D02*
X383751Y107196D01*
X383178Y107671*
X382589Y108090*
X381982Y108453*
X381359Y108761*
X380719Y109012*
X380063Y109207*
X379390Y109347*
X378700Y109431*
X377993Y109459*
Y114539*
X378700Y114567*
X379390Y114651*
X380063Y114790*
X380719Y114986*
X381359Y115238*
X381982Y115545*
X382589Y115908*
X383178Y116327*
X383751Y116802*
X384307Y117333*
Y106665*
G37*
G54D10*
X114999Y212999D02*
X150999D01*
X195999Y257999*
X112999Y210999D02*
X114999Y212999D01*
X095999Y184999D02*
Y207999D01*
X076999Y226999D02*
X095999Y207999D01*
X076999Y226999D02*
Y254999D01*
X073999Y-175999D02*
X091999Y-157999D01*
X-139749Y-175999D02*
X073999D01*
X274875Y087499D02*
X290749D01*
X274796Y087419D02*
X274875Y087499D01*
X265202Y087419D02*
X274796D01*
X265123Y087499D02*
X265202Y087419D01*
X233999Y087499D02*
X265123D01*
X290749D02*
X315749Y062499D01*
X140499Y137499D02*
X158999D01*
X109999Y167999D02*
X140499Y137499D01*
X060999Y167999D02*
X109999D01*
X140499Y112499D02*
X158999D01*
X097999Y154999D02*
X140499Y112499D01*
X073999Y154999D02*
X097999D01*
X037499Y212499D02*
X062999D01*
X037499Y237499D02*
X061999D01*
X039999Y184999D02*
X095999D01*
X005999Y086999D02*
X073999Y154999D01*
X-022999Y086999D02*
X005999D01*
X-081999Y027999D02*
X-022999Y086999D01*
X036499Y-345499D02*
X070999Y-379999D01*
X-003499Y-345499D02*
X036499D01*
X-024749Y-324249D02*
X-003499Y-345499D01*
X-024749Y-324249D02*
Y-309999D01*
X-227749Y-388999D02*
X-200249D01*
X-118749Y-470499*
X-064999*
X-227749Y-370999D02*
X-189749D01*
X-152999Y-407749*
X-114999*
X050749Y-424249D02*
X094999Y-379999D01*
X409749Y-066927D02*
X438927Y-037749D01*
X440749Y-087749D02*
X457249D01*
X467499Y-077499*
Y077499*
X457499Y087499D02*
X467499Y077499D01*
X440749Y087499D02*
X457499D01*
X233999Y-037499D02*
X252499D01*
X256749Y-041749*
X274749*
X233999Y-012499D02*
X290749D01*
X315749Y-037499*
X290749Y012499D02*
X315749Y-012499D01*
X233999Y012499D02*
X290749D01*
X233999Y037499D02*
X290749D01*
X315749Y012499*
X290749Y062499D02*
X315749Y037499D01*
X233999Y062499D02*
X290749D01*
X233999Y112499D02*
X290749D01*
X315749Y087499*
Y012499D02*
X365749Y062499D01*
X315749Y-062499D02*
X334999Y-081749D01*
X315749Y012499D02*
X349999Y-021749D01*
X364999Y-038499D02*
X440749Y037249D01*
X379999Y-048499D02*
X440749Y012249D01*
X394999Y-058499D02*
X440749Y-012749D01*
X424999Y-078499D02*
X440749Y-062749D01*
X364999Y-144999D02*
Y-038499D01*
X379999Y-154999D02*
Y-048499D01*
X159499Y-254499D02*
X305499D01*
X394999Y-164999*
Y-058499*
X307999Y-279499D02*
X409749Y-177749D01*
Y-066927*
X177999Y-389999D02*
X222499D01*
X424999Y-187499*
Y-078499*
X365749Y062499D02*
X414749D01*
X440749Y087499D02*
Y111749D01*
X439999Y112499D02*
X440749Y111749D01*
X329999Y267499D02*
X342499Y279999D01*
X329999Y208999D02*
Y267499D01*
X258499Y137499D02*
X329999Y208999D01*
X233999Y137499D02*
X258499D01*
X275249Y347249D02*
X342499Y279999D01*
X221499Y347249D02*
X275249D01*
X-067999Y-229999D02*
Y-194999D01*
Y-254999D02*
X-050999D01*
X-036999Y-240999*
Y-194999*
X128499Y-087499D02*
X158999D01*
X091999Y-123999D02*
X128499Y-087499D01*
X091999Y-157999D02*
Y-123999D01*
X012499Y212499D02*
X039999Y184999D01*
X271999Y235999D02*
X317500Y279999D01*
X269999Y233999D02*
X271999Y235999D01*
X269999Y178999D02*
Y233999D01*
X268999Y179749D02*
X270749Y177999D01*
X315749Y111999D02*
X389749D01*
X-049999Y184999D02*
X000000D01*
X158999Y162499D02*
Y175999D01*
X149999Y184999D02*
X158999Y175999D01*
X095999Y184999D02*
X149999D01*
X031999Y138999D02*
X060999Y167999D01*
X-060999Y138999D02*
X031999D01*
X-164999Y034999D02*
X-060999Y138999D01*
X-081999Y-009999D02*
Y027999D01*
X-097999Y-025999D02*
X-081999Y-009999D01*
X-327499Y-025999D02*
X-097999D01*
X-361499Y007999D02*
X-327499Y-025999D01*
X135999Y-161999D02*
X158499D01*
X-402499Y-007999D02*
X-386499Y007999D01*
X-419999Y-007999D02*
X-402499D01*
X-433999Y005999D02*
X-419999Y-007999D01*
X-433999Y005999D02*
Y056999D01*
X-423999Y066999*
X-113999Y-161999D02*
X055999D01*
X-124999Y-150999D02*
X-113999Y-161999D01*
X-309999Y-150999D02*
X-124999D01*
X-462999Y001999D02*
X-309999Y-150999D01*
X-462999Y001999D02*
Y140999D01*
X-423999Y179999*
Y224999*
X-368999Y279999D02*
X-342499D01*
X-423999Y224999D02*
X-368999Y279999D01*
X-398999Y066999D02*
X-388999Y076999D01*
Y113999*
X-423999Y066999D02*
Y088999D01*
X-317500Y179999D02*
Y279999D01*
X-373999Y066999D02*
X-324999Y115999D01*
X-303999*
X-287999Y131999*
Y150499*
X-316999Y179499D02*
X-287999Y150499D01*
X-348999Y066999D02*
X-333999Y081999D01*
X-328999*
X-314999Y095999*
X129499Y-062499D02*
X158999D01*
X082999Y-108999D02*
X129499Y-062499D01*
X063999Y-108999D02*
X082999D01*
X050999Y-095999D02*
X063999Y-108999D01*
X050999Y-095999D02*
Y074999D01*
X142499Y-012499D02*
X158999D01*
X133999Y-003999D02*
X142499Y-012499D01*
X133999Y-003999D02*
Y008999D01*
X147499Y012499D02*
X158999D01*
X113999Y045999D02*
X147499Y012499D01*
X113999Y045999D02*
Y061999D01*
X147499Y037499D02*
X158999D01*
X135999Y048999D02*
X147499Y037499D01*
X158999Y062499D02*
X182999D01*
X196499Y048999*
X187999Y087499D02*
X196499Y078999D01*
X158999Y087499D02*
X187999D01*
X214999Y177999D02*
Y235999D01*
X233999Y162499D02*
Y221999D01*
X279999Y267999*
Y280999*
X195999Y257999D02*
X235999D01*
X258999Y280999*
X279999*
X309499Y-200499D02*
X364999Y-144999D01*
X309499Y-225499D02*
X379999Y-154999D01*
X159499Y-225499D02*
X309499D01*
X159499Y-279499D02*
X307999D01*
X159499Y-200499D02*
X309499D01*
X-336499Y007999D02*
X-238999D01*
X-211999Y034999*
X-164999*
X-411499Y007999D02*
Y054499D01*
X-398999Y066999*
X-374999Y042999*
X-285999*
X-190999Y137999*
Y349999*
X220499Y-062499D02*
X233999D01*
X209999Y-051999D02*
X220499Y-062499D01*
X209999Y-051999D02*
Y-037999D01*
X158999Y-012499D02*
X184499D01*
X209999Y-037999*
X158999Y-137499D02*
X172499D01*
X197499Y-162499*
X233999*
X196499Y-068999D02*
Y-052499D01*
X181499Y-037499D02*
X196499Y-052499D01*
X158999Y-037499D02*
X181499D01*
X208999Y-112499D02*
X233999D01*
X196499Y-124999D02*
X208999Y-112499D01*
X-137374Y164374D02*
X-070624D01*
X-049999Y184999*
X-012499Y212499D02*
X000000Y199999D01*
Y184999D02*
Y199999D01*
X087999Y031999D02*
X110999D01*
X133999Y008999*
X057999Y110999D02*
X068999Y099999D01*
Y050999D02*
Y099999D01*
Y050999D02*
X087999Y031999D01*
X-091999Y212499D02*
X-037499D01*
X-114999Y293749D02*
X-024999D01*
X-137374Y164374D02*
Y312124D01*
X-039999Y409499*
X-037499Y237499D02*
X-024999Y249999D01*
Y293749*
X-265999Y136999D02*
Y239999D01*
X349999Y-134999D02*
Y-021749D01*
X233999Y-162499D02*
X322499D01*
X349999Y-134999*
X233999Y-137499D02*
X264999D01*
X233999Y-087499D02*
X250499D01*
X297999Y-134999*
X324999*
X334999Y-124999*
Y-081749*
X440749Y-108749D02*
Y-087749D01*
Y-108749D02*
X447999Y-115999D01*
X228499Y162499D02*
X233999D01*
X214999Y148999D02*
X228499Y162499D01*
X214999Y051999D02*
Y148999D01*
Y051999D02*
X229499Y037499D01*
X233999*
X184999Y208999D02*
X194999Y218999D01*
X158999Y137499D02*
X172499D01*
X184999Y149999*
Y208999*
X158999Y112499D02*
X179499D01*
X199999Y132999*
Y162999*
X214999Y177999*
G54D11*
X109249Y409499D02*
X171499Y347249D01*
X039999Y409499D02*
X109249D01*
X-070999Y-368999D02*
Y-355999D01*
X-079499Y-347499D02*
X-070999Y-355999D01*
X-102749Y-347499D02*
X-079499D01*
X-070999Y-368999D02*
X-033999Y-405999D01*
X-134999Y-364749D02*
Y-254999D01*
X-109999Y-229999*
X-067999*
X-084999Y-254999D02*
X-067999D01*
X-110249Y-280249D02*
X-084999Y-254999D01*
X-134999Y-364749D02*
X-117999Y-381749D01*
X000000Y-392499D02*
X021999D01*
X034499Y-404999*
X094999Y-409749D02*
X122749D01*
X162499Y-369999*
X177999*
Y-439999D02*
Y-389999D01*
X233999Y-062499D02*
X252499D01*
X255249Y-059749*
X274749*
X302499Y-087499D02*
X315749D01*
X274749Y-059749D02*
X302499Y-087499D01*
X414749Y062499D02*
X440749D01*
X128499Y-112499D02*
X158999D01*
X079999Y-321749D02*
X109999Y-291749D01*
Y-130999*
X128499Y-112499*
X039999Y308749D02*
Y409499D01*
X024999Y293749D02*
X039999Y308749D01*
X-323999Y066999D02*
X-297999D01*
X095999Y264999D02*
X117999D01*
X171499Y318499*
Y347249*
X221499Y289499D02*
Y347249D01*
Y289499D02*
X229999Y280999D01*
X-224999Y139999D02*
Y205999D01*
X-297999Y066999D02*
X-224999Y139999D01*
X-033999Y-405999D02*
X-020499Y-392499D01*
X000000*
X-117999Y-381749D02*
X-085249D01*
X-071499Y-395499*
Y-407749D02*
Y-395499D01*
X315999Y-114999D02*
Y-087749D01*
X177999Y-369999D02*
X204999D01*
X268999Y-305999*
G54D12*
X269999Y098999D03*
Y178999D03*
X135999Y-161999D03*
X055999D03*
X079999Y-321749D03*
X000000D03*
X095999Y264999D03*
Y184999D03*
X-039999Y409499D03*
X039999D03*
G54D13*
X317500Y279999D03*
X342499D03*
X-342499D03*
X-317500D03*
X274749Y-041749D03*
Y-059749D03*
X171499Y347249D03*
X221499D03*
X-227749Y-388999D03*
Y-370999D03*
X000000Y-367499D03*
Y-392499D03*
X070999Y-379999D03*
X095999D03*
X120999D03*
X177999Y-369999D03*
Y-389999D03*
X024999Y293749D03*
X-024999D03*
X279999Y280999D03*
X229999D03*
X-067999Y-254999D03*
Y-229999D03*
G54D14*
X334999Y136999D03*
X359999D03*
X309999D03*
X-414249D03*
X-439249D03*
X-389249D03*
X087999Y086999D03*
Y111999D03*
Y136999D03*
Y061999D03*
X-024999Y156999D03*
X024999D03*
X000000D03*
X414749Y136999D03*
X439749D03*
X389749D03*
X-334499D03*
X-359499D03*
X-309499D03*
X-114749D03*
X-139749D03*
X-164749D03*
X-089749D03*
X-114749Y-049749D03*
X-139749D03*
X-164749D03*
X-089749D03*
X-037499Y212499D03*
X037499D03*
X012499D03*
X-012499D03*
Y237499D03*
X012499D03*
X037499D03*
X-037499D03*
X000000Y-225499D03*
Y-200499D03*
Y-254499D03*
Y-279499D03*
X315749Y062499D03*
Y037499D03*
Y012499D03*
Y-012499D03*
Y087499D03*
Y-037499D03*
Y-087499D03*
Y-062499D03*
X440749Y-062749D03*
Y-087749D03*
Y-037749D03*
Y087499D03*
Y-012749D03*
Y012249D03*
Y037249D03*
Y062499D03*
X114999Y-439999D03*
X089999D03*
X064999D03*
X-064999D03*
X-089999D03*
X-114999D03*
X-323999Y066999D03*
X-398999D03*
X-373999D03*
X-348999D03*
X-423999D03*
X-336499Y007999D03*
X-411499D03*
X-386499D03*
X-361499D03*
G54D15*
X233999Y162499D03*
Y-162499D03*
Y-012499D03*
Y-037499D03*
Y-062499D03*
Y-087499D03*
Y-112499D03*
Y-137499D03*
Y012499D03*
Y037499D03*
Y062499D03*
Y087499D03*
Y112499D03*
Y137499D03*
X158999D03*
Y112499D03*
Y087499D03*
Y062499D03*
Y037499D03*
Y012499D03*
Y-137499D03*
Y-112499D03*
Y-087499D03*
Y-062499D03*
Y-037499D03*
Y-012499D03*
Y-162499D03*
G54D16*
X158999Y162499D03*
G54D17*
X-071499Y-302499D03*
X-102749Y-347499D03*
X-040249D03*
G54D18*
X112999Y212499D03*
X062999D03*
X061999Y237499D03*
X076999Y254999D03*
X-024749Y-309999D03*
X-064999Y-470499D03*
X-114999Y-407749D03*
X159499Y-279499D03*
X-071499Y-407749D03*
X-110249Y-280249D03*
X034499Y-404999D03*
X050749Y-424249D03*
X094999Y-409749D03*
X177999Y-439999D03*
X159499Y-254499D03*
Y-225499D03*
X414749Y062499D03*
X439999Y112499D03*
X329999Y208999D03*
X264999Y-137499D03*
X-067999Y-194999D03*
X-139749Y-175999D03*
X-036999Y-194999D03*
X389749Y111999D03*
X315749D03*
X000000Y184999D03*
X-388999Y113999D03*
X-423999Y088999D03*
X-316999Y179499D03*
X-314999Y095999D03*
X113999Y061999D03*
X135999Y048999D03*
X196499D03*
Y078999D03*
X214999Y235999D03*
X194999Y218999D03*
X-265999Y136999D03*
X-224999Y205999D03*
X159499Y-200499D03*
X-190999Y349999D03*
X196499Y-068999D03*
Y-124999D03*
X-137374Y164374D03*
X087999Y031999D03*
X050999Y074999D03*
X057999Y110999D03*
X-091999Y212499D03*
X-114999Y293749D03*
X-265999Y239999D03*
X-033999Y-405999D03*
X268999Y-305999D03*
X447999Y-115999D03*
X315999Y-114999D03*
M02*