%FSDAX24Y24*%
%MOMM*%
%SFA1B1*%

%IPPOS*%
%ADD19C,0.100000*%
%LNpcb_final_v1-1*%
%LPD*%
G54D19*
X499999Y000000D02*
D01*
D01*
G75*
G03X-499999I-500000J0D01*
G74*G01*
D01*
G75*
G03X499999I500000J0D01*
G74*G01*
X012499Y-138499D02*
D01*
D01*
G75*
G03X-012499I-12500J0D01*
G74*G01*
D01*
G75*
G03X012499I12500J0D01*
G74*G01*
Y060099D02*
D01*
D01*
G75*
G03X-012499I-12500J0D01*
G74*G01*
D01*
G75*
G03X012499I12500J0D01*
G74*G01*
X017499Y-439999D02*
D01*
D01*
G75*
G03X-017499I-17500J0D01*
G74*G01*
D01*
G75*
G03X017499I17500J0D01*
G74*G01*
X392499Y209519D02*
D01*
D01*
G75*
G03X357499I-17499J0D01*
G74*G01*
D01*
G75*
G03X392499I17500J0D01*
G74*G01*
X-357499D02*
D01*
D01*
G75*
G03X-392499I-17500J0D01*
G74*G01*
D01*
G75*
G03X-357499I17499J0D01*
G74*G01*
X000000Y099999D02*
D01*
D01*
G75*
G03X-099999Y000000I0J-100000D01*
G74*G01*
X000000Y124999D02*
D01*
D01*
G75*
G03X-124999Y000000I0J-125000D01*
G74*G01*
X064278Y-076603D02*
D01*
D01*
G75*
G03X099999Y000000I-64279J76604D01*
G74*G01*
X080348Y-095755D02*
D01*
D01*
G75*
G03X124999Y000000I-80345J95753D01*
G74*G01*
X000000Y099999D02*
D01*
D01*
G75*
G03Y124999I0J12499D01*
G74*G01*
X-124999Y000000D02*
D01*
D01*
G75*
G03X-099999I12499J0D01*
G74*G01*
X124999D02*
D01*
D01*
G75*
G03X099999I-12499J0D01*
G74*G01*
X064274Y-076603D02*
D01*
D01*
G75*
G03X080344Y-095755I8036J-9574D01*
G74*G01*
X-041599Y-119999D02*
X041599D01*
Y041599*
X-041599D02*
X041599D01*
X-041599Y-119999D02*
Y041599D01*
M02*