%FSDAX24Y24*%
%MOMM*%
%SFA1B1*%

%IPPOS*%
%ADD10C,0.507999*%
%ADD11C,0.634999*%
%ADD12C,1.299997*%
%ADD13C,1.349997*%
%ADD14C,1.499997*%
%ADD15O,1.999996X0.999998*%
%ADD16R,1.999996X0.999998*%
%ADD17C,3.499993*%
%ADD18C,1.523997*%
%LNpcb_final_v1-1*%
%LPD*%
G36*
X321882Y-110075D02*
X322360Y-110442D01*
X322875Y-110766*
X323426Y-111047*
X324013Y-111284*
X324637Y-111479*
X325298Y-111630*
X325995Y-111738*
X326728Y-111802*
X327498Y-111824*
Y-118174*
X326728Y-118196*
X325995Y-118260*
X325298Y-118368*
X324637Y-118519*
X324013Y-118714*
X323426Y-118951*
X322875Y-119232*
X322360Y-119556*
X321882Y-119923*
X321441Y-120333*
Y-109665*
X321882Y-110075*
G37*
G36*
X441904Y-120573D02*
X441523Y-120117D01*
X441097Y-119709*
X440628Y-119349*
X440115Y-119037*
X439559Y-118774*
X438959Y-118558*
X438316Y-118390*
X437629Y-118270*
X436898Y-118198*
X436124Y-118174*
X437053Y-111824*
X437820Y-111806*
X439260Y-111660*
X439933Y-111532*
X440573Y-111367*
X441183Y-111166*
X441761Y-110929*
X442307Y-110655*
X442821Y-110344*
X443304Y-109997*
X441904Y-120573*
G37*
G36*
X320923Y-120882D02*
X320556Y-121360D01*
X320232Y-121875*
X319951Y-122426*
X319714Y-123013*
X319519Y-123637*
X319368Y-124298*
X319260Y-124995*
X319196Y-125728*
X319174Y-126498*
X312824*
X312802Y-125728*
X312738Y-124995*
X312630Y-124298*
X312479Y-123637*
X312284Y-123013*
X312047Y-122426*
X311766Y-121875*
X311442Y-121360*
X311075Y-120882*
X310665Y-120441*
X321333*
X320923Y-120882*
G37*
G36*
X201302Y-074997D02*
X200827Y-075570D01*
X200408Y-076159*
X200045Y-076766*
X199738Y-077389*
X199486Y-078028*
X199290Y-078685*
X199151Y-079358*
X199067Y-080048*
X199039Y-080755*
X193959*
X193931Y-080048*
X193847Y-079358*
X193707Y-078685*
X193512Y-078028*
X193261Y-077389*
X192953Y-076766*
X192590Y-076159*
X192171Y-075570*
X191696Y-074997*
X191165Y-074441*
X201833*
X201302Y-074997*
G37*
G36*
X-085014Y-055645D02*
X-085475Y-056203D01*
X-085881Y-056779*
X-086233Y-057372*
X-086531Y-057983*
X-086775Y-058612*
X-086965Y-059259*
X-087101Y-059924*
X-087182Y-060606*
X-087209Y-061306*
X-092289*
X-092316Y-060606*
X-092397Y-059924*
X-092533Y-059259*
X-092723Y-058612*
X-092967Y-057983*
X-093265Y-057372*
X-093617Y-056779*
X-094023Y-056203*
X-094484Y-055645*
X-094999Y-055105*
X-084499*
X-085014Y-055645*
G37*
G36*
X-110014D02*
X-110475Y-056203D01*
X-110881Y-056779*
X-111233Y-057372*
X-111531Y-057983*
X-111775Y-058612*
X-111965Y-059259*
X-112101Y-059924*
X-112182Y-060606*
X-112209Y-061306*
X-117289*
X-117316Y-060606*
X-117397Y-059924*
X-117533Y-059259*
X-117723Y-058612*
X-117967Y-057983*
X-118265Y-057372*
X-118618Y-056779*
X-119023Y-056203*
X-119484Y-055645*
X-119999Y-055105*
X-109499*
X-110014Y-055645*
G37*
G36*
X-135014D02*
X-135475Y-056203D01*
X-135881Y-056779*
X-136233Y-057372*
X-136531Y-057983*
X-136775Y-058612*
X-136965Y-059259*
X-137101Y-059924*
X-137182Y-060606*
X-137209Y-061306*
X-142289*
X-142316Y-060606*
X-142397Y-059924*
X-142533Y-059259*
X-142723Y-058612*
X-142967Y-057983*
X-143265Y-057372*
X-143617Y-056779*
X-144023Y-056203*
X-144484Y-055645*
X-144999Y-055105*
X-134499*
X-135014Y-055645*
G37*
G36*
X-073996Y-185370D02*
X-073449Y-185799D01*
X-072874Y-186176*
X-072272Y-186502*
X-071641Y-186777*
X-070984Y-187000*
X-070298Y-187172*
X-069585Y-187292*
X-068844Y-187361*
X-068075Y-187379*
X-075619Y-194923*
X-075636Y-194154*
X-075706Y-193413*
X-075826Y-192700*
X-075998Y-192014*
X-076221Y-191356*
X-076496Y-190726*
X-076822Y-190124*
X-077199Y-189549*
X-077628Y-189002*
X-078108Y-188482*
X-074516Y-184890*
X-073996Y-185370*
G37*
G36*
X005895Y-195764D02*
X006453Y-196225D01*
X007029Y-196631*
X007622Y-196983*
X008233Y-197282*
X008862Y-197525*
X009509Y-197715*
X010174Y-197851*
X010856Y-197932*
X011557Y-197959*
Y-203039*
X010856Y-203066*
X010174Y-203147*
X009509Y-203283*
X008862Y-203473*
X008233Y-203716*
X007622Y-204015*
X007029Y-204367*
X006453Y-204773*
X005895Y-205234*
X005355Y-205749*
Y-195249*
X005895Y-195764*
G37*
G36*
X154057Y-205833D02*
X153501Y-205302D01*
X152928Y-204827*
X152339Y-204408*
X151732Y-204045*
X151109Y-203737*
X150470Y-203486*
X149813Y-203290*
X149140Y-203151*
X148450Y-203067*
X147743Y-203039*
Y-197959*
X148450Y-197931*
X149140Y-197847*
X149813Y-197707*
X150470Y-197512*
X151109Y-197261*
X151732Y-196953*
X152339Y-196590*
X152928Y-196171*
X153501Y-195696*
X154057Y-195165*
Y-205833*
G37*
G36*
X-042996Y-185370D02*
X-042449Y-185799D01*
X-041874Y-186176*
X-041272Y-186502*
X-040641Y-186777*
X-039984Y-187000*
X-039298Y-187172*
X-038585Y-187292*
X-037844Y-187361*
X-037075Y-187379*
X-044619Y-194923*
X-044636Y-194154*
X-044706Y-193413*
X-044826Y-192700*
X-044998Y-192014*
X-045221Y-191356*
X-045496Y-190726*
X-045822Y-190124*
X-046199Y-189549*
X-046628Y-189002*
X-047108Y-188482*
X-043516Y-184890*
X-042996Y-185370*
G37*
G36*
X201302Y-130997D02*
X200827Y-131570D01*
X200408Y-132159*
X200045Y-132766*
X199738Y-133389*
X199486Y-134029*
X199290Y-134685*
X199151Y-135358*
X199067Y-136048*
X199039Y-136755*
X193959*
X193931Y-136048*
X193847Y-135358*
X193707Y-134685*
X193512Y-134029*
X193261Y-133389*
X192953Y-132766*
X192590Y-132159*
X192171Y-131570*
X191696Y-130997*
X191165Y-130441*
X201833*
X201302Y-130997*
G37*
G36*
X275108Y-130982D02*
X274628Y-131502D01*
X274199Y-132049*
X273822Y-132624*
X273496Y-133226*
X273221Y-133858*
X272998Y-134514*
X272826Y-135200*
X272706Y-135913*
X272637Y-136654*
X272619Y-137423*
X265075Y-129879*
X265844Y-129862*
X266585Y-129792*
X267298Y-129672*
X267984Y-129500*
X268642Y-129277*
X269272Y-129002*
X269875Y-128676*
X270449Y-128299*
X270996Y-127870*
X271516Y-127390*
X275108Y-130982*
G37*
G36*
X-137181Y-164950D02*
X-137097Y-165640D01*
X-136958Y-166313*
X-136762Y-166970*
X-136510Y-167609*
X-136203Y-168232*
X-135840Y-168839*
X-135421Y-169428*
X-134946Y-170001*
X-134415Y-170557*
X-145083*
X-144552Y-170001*
X-144077Y-169428*
X-143658Y-168839*
X-143295Y-168232*
X-142988Y-167609*
X-142736Y-166970*
X-142541Y-166313*
X-142401Y-165640*
X-142317Y-164950*
X-142289Y-164243*
X-137209*
X-137181Y-164950*
G37*
G36*
X-170611Y-040257D02*
X-170071Y-040682D01*
X-169505Y-041056*
X-168914Y-041379*
X-168297Y-041651*
X-167654Y-041873*
X-166985Y-042043*
X-166290Y-042164*
X-165570Y-042231*
X-164824Y-042249*
X-172249Y-049674*
X-172266Y-048928*
X-172335Y-048208*
X-172455Y-047513*
X-172625Y-046844*
X-172847Y-046202*
X-173119Y-045584*
X-173442Y-044993*
X-173816Y-044427*
X-174241Y-043887*
X-174717Y-043373*
X-171125Y-039781*
X-170611Y-040257*
G37*
G36*
X417317Y073548D02*
X417401Y072858D01*
X417541Y072185*
X417736Y071528*
X417988Y070889*
X418295Y070266*
X418658Y069659*
X419077Y069070*
X419552Y068497*
X420083Y067941*
X409415*
X409946Y068497*
X410421Y069070*
X410840Y069659*
X411203Y070266*
X411510Y070889*
X411762Y071528*
X411958Y072185*
X412097Y072858*
X412181Y073548*
X412209Y074255*
X417289*
X417317Y073548*
G37*
G36*
X124108Y068516D02*
X123628Y067996D01*
X123199Y067449*
X122822Y066874*
X122496Y066272*
X122221Y065641*
X121998Y064984*
X121826Y064298*
X121706Y063585*
X121636Y062844*
X121619Y062075*
X114075Y069619*
X114844Y069636*
X115585Y069706*
X116298Y069826*
X116984Y069998*
X117641Y070221*
X118272Y070496*
X118874Y070822*
X119449Y071199*
X119996Y071628*
X120516Y072108*
X124108Y068516*
G37*
G36*
X409307Y057165D02*
X408751Y057696D01*
X408178Y058171*
X407589Y058590*
X406982Y058953*
X406359Y059260*
X405719Y059512*
X405063Y059707*
X404390Y059847*
X403700Y059931*
X402993Y059959*
Y065039*
X403700Y065067*
X404390Y065151*
X405063Y065291*
X405719Y065486*
X406359Y065738*
X406982Y066045*
X407589Y066408*
X408178Y066827*
X408751Y067302*
X409307Y067833*
Y057165*
G37*
G36*
X061108Y081516D02*
X060628Y080996D01*
X060199Y080449*
X059822Y079874*
X059496Y079272*
X059221Y078642*
X058998Y077984*
X058826Y077298*
X058706Y076585*
X058636Y075844*
X058619Y075075*
X051075Y082619*
X051844Y082637*
X052585Y082706*
X053298Y082826*
X053984Y082998*
X054642Y083221*
X055272Y083496*
X055874Y083822*
X056449Y084199*
X056996Y084628*
X057516Y085108*
X061108Y081516*
G37*
G36*
X097967Y093375D02*
X097491Y092861D01*
X097066Y092321*
X096692Y091755*
X096369Y091164*
X096097Y090547*
X095875Y089903*
X095705Y089235*
X095585Y088540*
X095517Y087820*
X095499Y087074*
X088074Y094499*
X088820Y094516*
X089540Y094585*
X090235Y094705*
X090904Y094875*
X091546Y095097*
X092164Y095369*
X092755Y095692*
X093321Y096066*
X093861Y096491*
X094375Y096967*
X097967Y093375*
G37*
G36*
X199067Y090048D02*
X199151Y089358D01*
X199290Y088685*
X199486Y088028*
X199738Y087389*
X200045Y086766*
X200408Y086159*
X200827Y085570*
X201302Y084997*
X201833Y084441*
X191165*
X191696Y084997*
X192171Y085570*
X192590Y086159*
X192953Y086766*
X193261Y087389*
X193512Y088028*
X193707Y088685*
X193847Y089358*
X193931Y090048*
X193959Y090755*
X199039*
X199067Y090048*
G37*
G36*
X-418001Y093802D02*
X-417428Y093327D01*
X-416839Y092908*
X-416232Y092545*
X-415609Y092238*
X-414970Y091986*
X-414313Y091790*
X-413640Y091651*
X-412950Y091567*
X-412243Y091539*
Y086459*
X-412950Y086431*
X-413640Y086347*
X-414313Y086207*
X-414970Y086012*
X-415609Y085760*
X-416232Y085453*
X-416839Y085090*
X-417428Y084671*
X-418001Y084196*
X-418557Y083665*
Y094333*
X-418001Y093802*
G37*
G36*
X-094937Y-040042D02*
X-094380Y-040510D01*
X-093821Y-040923*
X-093259Y-041280*
X-092693Y-041581*
X-092125Y-041826*
X-091554Y-042016*
X-090980Y-042149*
X-090404Y-042227*
X-089824Y-042249*
X-097249Y-049674*
X-097271Y-049094*
X-097349Y-048518*
X-097482Y-047944*
X-097672Y-047373*
X-097917Y-046805*
X-098218Y-046239*
X-098575Y-045677*
X-098988Y-045118*
X-099456Y-044561*
X-099981Y-044007*
X-095491Y-039517*
X-094937Y-040042*
G37*
G36*
X-120611Y-040257D02*
X-120071Y-040682D01*
X-119505Y-041056*
X-118914Y-041379*
X-118297Y-041651*
X-117654Y-041873*
X-116985Y-042043*
X-116290Y-042164*
X-115570Y-042231*
X-114824Y-042249*
X-122249Y-049674*
X-122267Y-048928*
X-122335Y-048208*
X-122455Y-047513*
X-122625Y-046844*
X-122847Y-046202*
X-123119Y-045584*
X-123442Y-044993*
X-123816Y-044427*
X-124241Y-043887*
X-124717Y-043373*
X-121125Y-039781*
X-120611Y-040257*
G37*
G36*
X-154781Y-043373D02*
X-155257Y-043887D01*
X-155682Y-044427*
X-156056Y-044993*
X-156379Y-045584*
X-156651Y-046202*
X-156873Y-046844*
X-157043Y-047513*
X-157163Y-048208*
X-157232Y-048928*
X-157249Y-049674*
X-164674Y-042249*
X-163928Y-042231*
X-163208Y-042164*
X-162513Y-042043*
X-161844Y-041873*
X-161202Y-041651*
X-160584Y-041379*
X-159993Y-041056*
X-159427Y-040682*
X-158887Y-040257*
X-158373Y-039781*
X-154781Y-043373*
G37*
G36*
X090567Y043048D02*
X090651Y042358D01*
X090790Y041685*
X090986Y041029*
X091237Y040389*
X091545Y039766*
X091908Y039159*
X092327Y038570*
X092802Y037997*
X093333Y037441*
X082665*
X083196Y037997*
X083671Y038570*
X084090Y039159*
X084453Y039766*
X084760Y040389*
X085012Y041029*
X085208Y041685*
X085347Y042358*
X085431Y043048*
X085459Y043755*
X090539*
X090567Y043048*
G37*
G36*
X138567Y060048D02*
X138651Y059358D01*
X138791Y058685*
X138986Y058028*
X139238Y057389*
X139545Y056766*
X139908Y056159*
X140327Y055570*
X140802Y054997*
X141333Y054441*
X130665*
X131196Y054997*
X131671Y055570*
X132090Y056159*
X132453Y056766*
X132760Y057389*
X133012Y058028*
X133208Y058685*
X133347Y059358*
X133431Y060048*
X133459Y060755*
X138539*
X138567Y060048*
G37*
G36*
X092734Y056103D02*
X092273Y055545D01*
X091867Y054969*
X091515Y054376*
X091216Y053765*
X090973Y053136*
X090783Y052489*
X090647Y051824*
X090566Y051142*
X090539Y050442*
X085459*
X085432Y051142*
X085351Y051824*
X085215Y052489*
X085025Y053136*
X084781Y053765*
X084483Y054376*
X084131Y054969*
X083725Y055545*
X083264Y056103*
X082749Y056643*
X093249*
X092734Y056103*
G37*
G36*
X190502Y058628D02*
X191049Y058199D01*
X191624Y057822*
X192226Y057496*
X192856Y057221*
X193514Y056998*
X194200Y056826*
X194913Y056706*
X195654Y056637*
X196423Y056619*
X188879Y049075*
X188861Y049844*
X188792Y050585*
X188672Y051298*
X188500Y051984*
X188277Y052641*
X188002Y053272*
X187676Y053874*
X187299Y054449*
X186870Y054996*
X186390Y055516*
X189982Y059108*
X190502Y058628*
G37*
G36*
X005895Y-220764D02*
X006453Y-221225D01*
X007029Y-221631*
X007622Y-221983*
X008233Y-222282*
X008862Y-222525*
X009509Y-222715*
X010174Y-222851*
X010856Y-222932*
X011557Y-222959*
Y-228039*
X010856Y-228066*
X010174Y-228147*
X009509Y-228283*
X008862Y-228473*
X008233Y-228716*
X007622Y-229015*
X007029Y-229367*
X006453Y-229773*
X005895Y-230234*
X005355Y-230749*
Y-220249*
X005895Y-220764*
G37*
G36*
X093207Y-433220D02*
X086791D01*
X086797Y-433182*
X086803Y-433076*
X086824Y-429749*
X093174*
X093207Y-433220*
G37*
G36*
X-086803Y-429467D02*
X-086741Y-430191D01*
X-086637Y-430879*
X-086492Y-431529*
X-086305Y-432141*
X-086077Y-432717*
X-085807Y-433254*
X-085496Y-433754*
X-085143Y-434217*
X-084749Y-434643*
X-095250*
X-094855Y-434217*
X-094502Y-433754*
X-094191Y-433254*
X-093921Y-432717*
X-093693Y-432141*
X-093506Y-431529*
X-093361Y-430879*
X-093257Y-430191*
X-093195Y-429467*
X-093174Y-428704*
X-086824*
X-086803Y-429467*
G37*
G36*
X-111803D02*
X-111741Y-430191D01*
X-111637Y-430879*
X-111492Y-431529*
X-111305Y-432141*
X-111077Y-432717*
X-110807Y-433254*
X-110496Y-433754*
X-110143Y-434217*
X-109749Y-434643*
X-120249*
X-119855Y-434217*
X-119502Y-433754*
X-119191Y-433254*
X-118921Y-432717*
X-118693Y-432141*
X-118506Y-431529*
X-118361Y-430879*
X-118257Y-430191*
X-118195Y-429467*
X-118174Y-428704*
X-111824*
X-111803Y-429467*
G37*
G36*
X099923Y-415632D02*
X099556Y-416110D01*
X099232Y-416625*
X098951Y-417176*
X098714Y-417763*
X098519Y-418387*
X098368Y-419048*
X098260Y-419744*
X098196Y-420478*
X098174Y-421248*
X091824*
X091802Y-420478*
X091738Y-419744*
X091630Y-419048*
X091479Y-418387*
X091284Y-417763*
X091047Y-417176*
X090766Y-416625*
X090442Y-416110*
X090075Y-415632*
X089665Y-415191*
X100333*
X099923Y-415632*
G37*
G36*
X089557Y-415083D02*
X089116Y-414673D01*
X088638Y-414306*
X088123Y-413982*
X087572Y-413701*
X086985Y-413464*
X086361Y-413269*
X085700Y-413118*
X085003Y-413010*
X084270Y-412946*
X083500Y-412924*
Y-406574*
X084270Y-406552*
X085003Y-406488*
X085700Y-406380*
X086361Y-406229*
X086985Y-406034*
X087572Y-405797*
X088123Y-405516*
X088638Y-405192*
X089116Y-404825*
X089557Y-404415*
Y-415083*
G37*
G36*
X-071575Y-415369D02*
X-072178Y-415391D01*
X-072775Y-415469*
X-073368Y-415604*
X-073956Y-415795*
X-074539Y-416043*
X-075118Y-416347*
X-075692Y-416707*
X-076261Y-417123*
X-076825Y-417596*
X-077385Y-418125*
X-081875Y-413635*
X-081346Y-413075*
X-080873Y-412511*
X-080457Y-411942*
X-080097Y-411368*
X-079793Y-410789*
X-079545Y-410206*
X-079354Y-409618*
X-079219Y-409025*
X-079141Y-408427*
X-079119Y-407825*
X-071575Y-415369*
G37*
G36*
X-110075Y-413632D02*
X-110442Y-414110D01*
X-110766Y-414625*
X-111047Y-415176*
X-111284Y-415763*
X-111479Y-416387*
X-111630Y-417048*
X-111738Y-417745*
X-111802Y-418478*
X-111824Y-419248*
X-118174*
X-118196Y-418478*
X-118260Y-417745*
X-118368Y-417048*
X-118519Y-416387*
X-118714Y-415763*
X-118951Y-415176*
X-119232Y-414625*
X-119556Y-414110*
X-119923Y-413632*
X-120333Y-413191*
X-109665*
X-110075Y-413632*
G37*
G36*
X-060264Y-445895D02*
X-060725Y-446453D01*
X-061131Y-447029*
X-061483Y-447622*
X-061781Y-448233*
X-062025Y-448862*
X-062215Y-449509*
X-062351Y-450174*
X-062432Y-450856*
X-062459Y-451556*
X-067539*
X-067566Y-450856*
X-067647Y-450174*
X-067783Y-449509*
X-067973Y-448862*
X-068217Y-448233*
X-068515Y-447622*
X-068867Y-447029*
X-069273Y-446453*
X-069734Y-445895*
X-070249Y-445355*
X-059749*
X-060264Y-445895*
G37*
G36*
X-062431Y-459450D02*
X-062347Y-460140D01*
X-062207Y-460813*
X-062012Y-461469*
X-061760Y-462109*
X-061453Y-462732*
X-061090Y-463339*
X-060671Y-463928*
X-060196Y-464501*
X-059665Y-465057*
X-070333*
X-069802Y-464501*
X-069327Y-463928*
X-068908Y-463339*
X-068545Y-462732*
X-068238Y-462109*
X-067986Y-461469*
X-067791Y-460813*
X-067651Y-460140*
X-067567Y-459450*
X-067539Y-458743*
X-062459*
X-062431Y-459450*
G37*
G36*
X-057361Y-471344D02*
X-057292Y-472085D01*
X-057172Y-472798*
X-057000Y-473483*
X-056777Y-474141*
X-056502Y-474772*
X-056176Y-475374*
X-055799Y-475949*
X-055370Y-476496*
X-054890Y-477016*
X-058482Y-480608*
X-059002Y-480128*
X-059549Y-479699*
X-060124Y-479322*
X-060726Y-478996*
X-061356Y-478721*
X-062014Y-478498*
X-062700Y-478326*
X-063413Y-478206*
X-064154Y-478137*
X-064923Y-478119*
X-057379Y-470575*
X-057361Y-471344*
G37*
G36*
X064924Y-447499D02*
X064178Y-447517D01*
X063458Y-447585*
X062763Y-447705*
X062094Y-447875*
X061451Y-448097*
X060834Y-448369*
X060243Y-448692*
X059677Y-449066*
X059137Y-449491*
X058623Y-449967*
X055031Y-446375*
X055507Y-445861*
X055932Y-445321*
X056306Y-444755*
X056629Y-444164*
X056901Y-443547*
X057123Y-442904*
X057293Y-442235*
X057413Y-441540*
X057482Y-440820*
X057499Y-440074*
X064924Y-447499*
G37*
G36*
X058203Y-426122D02*
X058185Y-426836D01*
X058230Y-427527*
X058338Y-428195*
X058509Y-428840*
X058744Y-429463*
X059041Y-430062*
X059402Y-430638*
X059552Y-430833*
X059677Y-430932*
X060243Y-431306*
X060834Y-431629*
X061451Y-431901*
X062094Y-432123*
X062763Y-432293*
X063458Y-432413*
X064178Y-432481*
X064924Y-432499*
X057499Y-439924*
X057482Y-439178*
X057413Y-438458*
X057293Y-437763*
X057123Y-437094*
X056901Y-436451*
X056629Y-435834*
X056306Y-435243*
X055932Y-434677*
X055570Y-434218*
X055142Y-433872*
X054576Y-433478*
X053979Y-433123*
X053352Y-432807*
X052695Y-432529*
X052008Y-432290*
X051290Y-432089*
X050542Y-431928*
X049764Y-431805*
X058284Y-425385*
X058203Y-426122*
G37*
G36*
X120780Y-435143D02*
X121243Y-435496D01*
X121744Y-435807*
X122281Y-436077*
X122857Y-436305*
X123469Y-436492*
X124119Y-436637*
X124807Y-436741*
X125532Y-436803*
X126294Y-436824*
Y-443174*
X125532Y-443195*
X124807Y-443257*
X124119Y-443361*
X123469Y-443506*
X122857Y-443693*
X122281Y-443921*
X121744Y-444191*
X121243Y-444502*
X120780Y-444855*
X120355Y-445249*
Y-434749*
X120780Y-435143*
G37*
G36*
X172557Y-445333D02*
X172116Y-444923D01*
X171638Y-444556*
X171123Y-444232*
X170572Y-443951*
X169985Y-443714*
X169361Y-443519*
X168700Y-443368*
X168003Y-443260*
X167270Y-443196*
X166500Y-443174*
Y-436824*
X167270Y-436802*
X168003Y-436738*
X168700Y-436630*
X169361Y-436479*
X169985Y-436284*
X170572Y-436047*
X171123Y-435766*
X171638Y-435442*
X172116Y-435075*
X172557Y-434665*
Y-445333*
G37*
G36*
X040382Y-400075D02*
X040860Y-400442D01*
X041375Y-400766*
X041926Y-401047*
X042513Y-401284*
X043137Y-401478*
X043798Y-401630*
X044495Y-401738*
X045228Y-401802*
X045998Y-401824*
Y-408174*
X045228Y-408195*
X044495Y-408260*
X043798Y-408368*
X043137Y-408519*
X042513Y-408714*
X041926Y-408951*
X041375Y-409232*
X040860Y-409556*
X040382Y-409923*
X039941Y-410333*
Y-399665*
X040382Y-400075*
G37*
G36*
X154057Y-284833D02*
X153501Y-284302D01*
X152928Y-283827*
X152339Y-283408*
X151732Y-283045*
X151109Y-282737*
X150470Y-282486*
X149813Y-282291*
X149140Y-282151*
X148450Y-282067*
X147743Y-282039*
Y-276959*
X148450Y-276931*
X149140Y-276847*
X149813Y-276708*
X150470Y-276512*
X151109Y-276261*
X151732Y-275953*
X152339Y-275590*
X152928Y-275171*
X153501Y-274696*
X154057Y-274165*
Y-284833*
G37*
G36*
X-105325Y-286132D02*
X-105692Y-286610D01*
X-106016Y-287125*
X-106297Y-287676*
X-106534Y-288263*
X-106729Y-288887*
X-106880Y-289548*
X-106988Y-290245*
X-107052Y-290978*
X-107074Y-291748*
X-113424*
X-113446Y-290978*
X-113510Y-290245*
X-113618Y-289548*
X-113769Y-288887*
X-113964Y-288263*
X-114201Y-287676*
X-114482Y-287125*
X-114806Y-286610*
X-115173Y-286132*
X-115583Y-285691*
X-104915*
X-105325Y-286132*
G37*
G36*
X279375Y-300113D02*
X278846Y-300673D01*
X278373Y-301237*
X277957Y-301806*
X277596Y-302380*
X277293Y-302959*
X277045Y-303542*
X276854Y-304130*
X276719Y-304723*
X276641Y-305321*
X276619Y-305923*
X269075Y-298379*
X269677Y-298357*
X270275Y-298279*
X270868Y-298144*
X271456Y-297953*
X272039Y-297705*
X272618Y-297402*
X273192Y-297041*
X273761Y-296625*
X274325Y-296152*
X274885Y-295623*
X279375Y-300113*
G37*
G36*
X005895Y-274764D02*
X006453Y-275225D01*
X007029Y-275631*
X007622Y-275983*
X008233Y-276282*
X008862Y-276525*
X009509Y-276715*
X010174Y-276851*
X010856Y-276932*
X011557Y-276959*
Y-282039*
X010856Y-282067*
X010174Y-282147*
X009509Y-282283*
X008862Y-282473*
X008233Y-282716*
X007622Y-283015*
X007029Y-283367*
X006453Y-283773*
X005895Y-284234*
X005355Y-284749*
Y-274249*
X005895Y-274764*
G37*
G36*
X154057Y-230833D02*
X153501Y-230302D01*
X152928Y-229827*
X152339Y-229408*
X151732Y-229045*
X151109Y-228737*
X150470Y-228486*
X149813Y-228290*
X149140Y-228151*
X148450Y-228067*
X147743Y-228039*
Y-222959*
X148450Y-222931*
X149140Y-222847*
X149813Y-222707*
X150470Y-222512*
X151109Y-222261*
X151732Y-221953*
X152339Y-221590*
X152928Y-221171*
X153501Y-220696*
X154057Y-220165*
Y-230833*
G37*
G36*
X005895Y-249764D02*
X006453Y-250225D01*
X007029Y-250631*
X007622Y-250983*
X008233Y-251282*
X008862Y-251525*
X009509Y-251715*
X010174Y-251851*
X010856Y-251932*
X011557Y-251959*
Y-257039*
X010856Y-257066*
X010174Y-257147*
X009509Y-257283*
X008862Y-257473*
X008233Y-257716*
X007622Y-258015*
X007029Y-258367*
X006453Y-258773*
X005895Y-259234*
X005355Y-259749*
Y-249249*
X005895Y-249764*
G37*
G36*
X154057Y-259833D02*
X153501Y-259302D01*
X152928Y-258827*
X152339Y-258408*
X151732Y-258045*
X151109Y-257737*
X150470Y-257486*
X149813Y-257291*
X149140Y-257151*
X148450Y-257067*
X147743Y-257039*
Y-251959*
X148450Y-251931*
X149140Y-251847*
X149813Y-251708*
X150470Y-251512*
X151109Y-251261*
X151732Y-250953*
X152339Y-250590*
X152928Y-250171*
X153501Y-249696*
X154057Y-249165*
Y-259833*
G37*
G36*
X002561Y-357852D02*
X002626Y-358484D01*
X002736Y-359092*
X002889Y-359677*
X003085Y-360237*
X003326Y-360773*
X003610Y-361286*
X003937Y-361774*
X004309Y-362238*
X004724Y-362678*
X-004724*
X-004309Y-362238*
X-003937Y-361774*
X-003610Y-361286*
X-003326Y-360773*
X-003085Y-360237*
X-002889Y-359677*
X-002736Y-359092*
X-002626Y-358484*
X-002561Y-357852*
X-002540Y-357195*
X002540*
X002561Y-357852*
G37*
G36*
X-092223Y-361750D02*
X-095127Y-365102D01*
X-096307Y-366700*
X-097305Y-368247*
X-098122Y-369743*
X-098757Y-371186*
X-099211Y-372579*
X-099483Y-373919*
X-099574Y-375209*
X-105924*
X-106015Y-373919*
X-106287Y-372579*
X-106741Y-371186*
X-107376Y-369743*
X-108193Y-368247*
X-109191Y-366700*
X-110371Y-365102*
X-111732Y-363451*
X-114999Y-359996*
X-090499*
X-092223Y-361750*
G37*
G36*
X-104623Y-401863D02*
X-105152Y-402423D01*
X-105625Y-402987*
X-106041Y-403556*
X-106402Y-404130*
X-106705Y-404709*
X-106953Y-405292*
X-107144Y-405880*
X-107279Y-406473*
X-107357Y-407070*
X-107379Y-407673*
X-114923Y-400129*
X-114320Y-400107*
X-113723Y-400029*
X-113130Y-399894*
X-112542Y-399703*
X-111959Y-399455*
X-111380Y-399151*
X-110806Y-398791*
X-110237Y-398375*
X-109673Y-397902*
X-109113Y-397373*
X-104623Y-401863*
G37*
G36*
X-099483Y-321079D02*
X-099211Y-322419D01*
X-098757Y-323812*
X-098122Y-325255*
X-097305Y-326751*
X-096307Y-328298*
X-095127Y-329896*
X-093766Y-331547*
X-090499Y-335002*
X-114999*
X-113275Y-333248*
X-110371Y-329896*
X-109191Y-328298*
X-108193Y-326751*
X-107376Y-325255*
X-106741Y-323812*
X-106287Y-322419*
X-106015Y-321079*
X-105924Y-319789*
X-099574*
X-099483Y-321079*
G37*
G36*
X-019946Y-315997D02*
X-020421Y-316570D01*
X-020840Y-317159*
X-021203Y-317766*
X-021510Y-318389*
X-021762Y-319029*
X-021957Y-319685*
X-022098Y-320358*
X-022181Y-321048*
X-022209Y-321755*
X-027289*
X-027317Y-321048*
X-027401Y-320358*
X-027540Y-319685*
X-027736Y-319029*
X-027988Y-318389*
X-028295Y-317766*
X-028658Y-317159*
X-029077Y-316570*
X-029552Y-315997*
X-030083Y-315441*
X-019415*
X-019946Y-315997*
G37*
G36*
X004167Y-326798D02*
X003825Y-327231D01*
X003524Y-327690*
X003263Y-328175*
X003042Y-328686*
X002861Y-329224*
X002720Y-329787*
X002619Y-330376*
X002559Y-330991*
X002540Y-331632*
X-002540*
X-002559Y-330991*
X-002619Y-330376*
X-002720Y-329787*
X-002861Y-329224*
X-003042Y-328686*
X-003263Y-328175*
X-003524Y-327690*
X-003825Y-327231*
X-004167Y-326798*
X-004549Y-326391*
X004549*
X004167Y-326798*
G37*
G36*
X-022953Y-333795D02*
X-023530Y-334409D01*
X-024019Y-335009*
X-024421Y-335596*
X-024735Y-336169*
X-024961Y-336729*
X-025100Y-337274*
X-025151Y-337807*
X-025114Y-338325*
X-024990Y-338830*
X-024778Y-339321*
X-032071Y-332028*
X-031580Y-332240*
X-031075Y-332364*
X-030556Y-332401*
X-030024Y-332350*
X-029479Y-332211*
X-028919Y-331985*
X-028346Y-331671*
X-027760Y-331269*
X-027159Y-330780*
X-026545Y-330203*
X-022953Y-333795*
G37*
G36*
X002566Y167856D02*
X002647Y167174D01*
X002783Y166509*
X002973Y165862*
X003216Y165233*
X003515Y164622*
X003867Y164029*
X004273Y163453*
X004734Y162895*
X005249Y162355*
X-005249*
X-004734Y162895*
X-004273Y163453*
X-003867Y164029*
X-003515Y164622*
X-003216Y165233*
X-002973Y165862*
X-002783Y166509*
X-002647Y167174*
X-002566Y167856*
X-002540Y168556*
X002540*
X002566Y167856*
G37*
G36*
X-129737Y163529D02*
X-129667Y162788D01*
X-129547Y162075*
X-129375Y161389*
X-129152Y160731*
X-128877Y160101*
X-128551Y159499*
X-128174Y158924*
X-127745Y158377*
X-127265Y157857*
X-130857Y154265*
X-131377Y154745*
X-131924Y155174*
X-132499Y155551*
X-133101Y155877*
X-133732Y156152*
X-134389Y156375*
X-135075Y156547*
X-135788Y156667*
X-136529Y156736*
X-137298Y156754*
X-129754Y164298*
X-129737Y163529*
G37*
G36*
X-137450Y156754D02*
X-138219Y156736D01*
X-138960Y156667*
X-139673Y156547*
X-140359Y156375*
X-141017Y156152*
X-141647Y155877*
X-142249Y155551*
X-142824Y155174*
X-143371Y154745*
X-143891Y154265*
X-147483Y157857*
X-147003Y158377*
X-146574Y158924*
X-146197Y159499*
X-145871Y160101*
X-145596Y160731*
X-145373Y161389*
X-145201Y162075*
X-145081Y162788*
X-145012Y163529*
X-144994Y164298*
X-137450Y156754*
G37*
G36*
X-317075Y171879D02*
X-317844Y171862D01*
X-318585Y171792*
X-319298Y171672*
X-319984Y171500*
X-320642Y171277*
X-321272Y171002*
X-321874Y170676*
X-322449Y170299*
X-322996Y169870*
X-323516Y169390*
X-327108Y172982*
X-326628Y173502*
X-326199Y174049*
X-325822Y174625*
X-325496Y175226*
X-325221Y175857*
X-324998Y176515*
X-324826Y177200*
X-324706Y177913*
X-324636Y178654*
X-324619Y179423*
X-317075Y171879*
G37*
G36*
X005997Y189802D02*
X006570Y189327D01*
X007159Y188908*
X007766Y188545*
X008389Y188238*
X009028Y187986*
X009685Y187791*
X010358Y187651*
X011049Y187567*
X011755Y187539*
Y182459*
X011049Y182431*
X010358Y182347*
X009685Y182208*
X009028Y182012*
X008389Y181760*
X007766Y181453*
X007159Y181090*
X006570Y180671*
X005997Y180196*
X005441Y179665*
Y190333*
X005997Y189802*
G37*
G36*
X-311001Y184302D02*
X-310428Y183827D01*
X-309839Y183408*
X-309232Y183045*
X-308610Y182737*
X-307970Y182486*
X-307313Y182291*
X-306640Y182151*
X-305950Y182067*
X-305243Y182039*
Y176959*
X-305950Y176931*
X-306640Y176847*
X-307313Y176708*
X-307970Y176512*
X-308610Y176261*
X-309232Y175953*
X-309839Y175590*
X-310428Y175171*
X-311001Y174696*
X-311557Y174165*
Y184833*
X-311001Y184302*
G37*
G36*
X004802Y179001D02*
X004327Y178428D01*
X003908Y177839*
X003545Y177232*
X003238Y176609*
X002986Y175969*
X002791Y175313*
X002651Y174640*
X002567Y173950*
X002540Y173243*
X-002540*
X-002567Y173950*
X-002651Y174640*
X-002791Y175313*
X-002986Y175969*
X-003238Y176609*
X-003545Y177232*
X-003908Y177839*
X-004327Y178428*
X-004802Y179001*
X-005334Y179557*
X005334*
X004802Y179001*
G37*
G36*
X-116541Y147149D02*
X-114994Y145843D01*
X-114457Y145451*
X-113351Y144731*
X-112782Y144403*
X-111613Y143812*
X-121421Y140425*
X-121164Y141004*
X-120991Y141580*
X-120902Y142152*
X-120896Y142719*
X-120975Y143281*
X-121137Y143840*
X-121383Y144394*
X-121712Y144944*
X-122126Y145490*
X-122624Y146032*
X-117035Y147627*
X-116541Y147149*
G37*
G36*
X433887Y146491D02*
X434427Y146066D01*
X434993Y145692*
X435584Y145369*
X436202Y145097*
X436845Y144875*
X437513Y144705*
X438208Y144585*
X438928Y144516*
X439674Y144499*
X432249Y137074*
X432232Y137820*
X432163Y138540*
X432043Y139235*
X431873Y139903*
X431651Y140547*
X431379Y141164*
X431056Y141755*
X430682Y142321*
X430257Y142861*
X429781Y143375*
X433373Y146967*
X433887Y146491*
G37*
G36*
X369967Y143375D02*
X369491Y142861D01*
X369066Y142321*
X368692Y141755*
X368369Y141164*
X368097Y140547*
X367875Y139903*
X367705Y139235*
X367585Y138540*
X367517Y137820*
X367499Y137074*
X360074Y144499*
X360820Y144516*
X361540Y144585*
X362235Y144705*
X362904Y144875*
X363547Y145097*
X364164Y145369*
X364755Y145692*
X365321Y146066*
X365861Y146491*
X366375Y146967*
X369967Y143375*
G37*
G36*
X-087182Y147856D02*
X-087101Y147174D01*
X-086965Y146509*
X-086775Y145862*
X-086531Y145233*
X-086233Y144622*
X-085881Y144029*
X-085475Y143453*
X-085014Y142895*
X-084499Y142355*
X-094999*
X-094484Y142895*
X-094023Y143453*
X-093617Y144029*
X-093265Y144622*
X-092967Y145233*
X-092723Y145862*
X-092533Y146509*
X-092397Y147174*
X-092316Y147856*
X-092289Y148556*
X-087209*
X-087182Y147856*
G37*
G36*
X030895Y161734D02*
X031453Y161273D01*
X032029Y160867*
X032622Y160515*
X033233Y160216*
X033862Y159973*
X034509Y159783*
X035174Y159647*
X035856Y159566*
X036556Y159539*
Y154459*
X035856Y154432*
X035174Y154351*
X034509Y154215*
X033862Y154025*
X033233Y153782*
X032622Y153483*
X032029Y153131*
X031453Y152725*
X030895Y152264*
X030355Y151749*
Y162249*
X030895Y161734*
G37*
G36*
X-017482Y156178D02*
X-017413Y155458D01*
X-017293Y154763*
X-017123Y154094*
X-016901Y153452*
X-016629Y152834*
X-016306Y152243*
X-015932Y151677*
X-015507Y151137*
X-015031Y150623*
X-018623Y147031*
X-019137Y147507*
X-019677Y147932*
X-020243Y148306*
X-020834Y148629*
X-021452Y148901*
X-022094Y149123*
X-022763Y149293*
X-023458Y149413*
X-024178Y149481*
X-024924Y149499*
X-017499Y156924*
X-017482Y156178*
G37*
G36*
X312566Y147856D02*
X312647Y147174D01*
X312783Y146509*
X312973Y145862*
X313217Y145233*
X313515Y144622*
X313867Y144029*
X314273Y143453*
X314734Y142895*
X315249Y142355*
X304749*
X305264Y142895*
X305725Y143453*
X306131Y144029*
X306483Y144622*
X306781Y145233*
X307025Y145862*
X307215Y146509*
X307351Y147174*
X307432Y147856*
X307459Y148556*
X312539*
X312566Y147856*
G37*
G36*
X-314431Y190549D02*
X-314347Y189858D01*
X-314208Y189185*
X-314012Y188529*
X-313761Y187889*
X-313453Y187266*
X-313090Y186659*
X-312671Y186070*
X-312196Y185497*
X-311665Y184941*
X-322333*
X-321802Y185497*
X-321327Y186070*
X-320908Y186659*
X-320545Y187266*
X-320237Y187889*
X-319986Y188529*
X-319791Y189185*
X-319651Y189858*
X-319567Y190549*
X-319539Y191255*
X-314459*
X-314431Y190549*
G37*
G36*
X067997Y242302D02*
X068570Y241827D01*
X069159Y241408*
X069766Y241046*
X070389Y240738*
X071029Y240486*
X071685Y240291*
X072358Y240151*
X073048Y240067*
X073755Y240039*
Y234959*
X073048Y234931*
X072358Y234847*
X071685Y234707*
X071029Y234512*
X070389Y234260*
X069766Y233953*
X069159Y233590*
X068570Y233172*
X067997Y232696*
X067441Y232165*
Y242833*
X067997Y242302*
G37*
G36*
X220997Y240802D02*
X221570Y240327D01*
X222159Y239908*
X222766Y239545*
X223389Y239237*
X224029Y238986*
X224685Y238791*
X225358Y238651*
X226048Y238567*
X226755Y238539*
Y233459*
X226048Y233431*
X225358Y233347*
X224685Y233208*
X224029Y233012*
X223389Y232760*
X222766Y232453*
X222159Y232090*
X221570Y231671*
X220997Y231196*
X220441Y230665*
Y241333*
X220997Y240802*
G37*
G36*
X-089431Y223548D02*
X-089347Y222858D01*
X-089207Y222185*
X-089012Y221529*
X-088761Y220889*
X-088453Y220266*
X-088090Y219659*
X-087671Y219070*
X-087196Y218497*
X-086665Y217941*
X-097333*
X-096802Y218497*
X-096327Y219070*
X-095908Y219659*
X-095545Y220266*
X-095238Y220889*
X-094986Y221529*
X-094790Y222185*
X-094651Y222858*
X-094567Y223548*
X-094539Y224255*
X-089459*
X-089431Y223548*
G37*
G36*
X-255890Y246516D02*
X-256370Y245996D01*
X-256799Y245449*
X-257176Y244874*
X-257502Y244272*
X-257777Y243642*
X-258000Y242984*
X-258172Y242298*
X-258292Y241585*
X-258362Y240844*
X-258379Y240075*
X-265923Y247619*
X-265154Y247637*
X-264414Y247706*
X-263700Y247826*
X-263014Y247998*
X-262357Y248221*
X-261726Y248496*
X-261124Y248822*
X-260549Y249199*
X-260002Y249628*
X-259482Y250108*
X-255890Y246516*
G37*
G36*
X-180890Y356516D02*
X-181370Y355996D01*
X-181799Y355449*
X-182176Y354874*
X-182502Y354272*
X-182777Y353641*
X-183000Y352984*
X-183172Y352298*
X-183292Y351585*
X-183362Y350844*
X-183379Y350075*
X-190923Y357619*
X-190154Y357636*
X-189413Y357706*
X-188700Y357826*
X-188014Y357998*
X-187357Y358221*
X-186726Y358496*
X-186124Y358822*
X-185549Y359199*
X-185002Y359628*
X-184482Y360108*
X-180890Y356516*
G37*
G36*
X-120441Y288415D02*
X-120997Y288946D01*
X-121570Y289421*
X-122159Y289840*
X-122766Y290203*
X-123389Y290510*
X-124029Y290762*
X-124685Y290957*
X-125358Y291097*
X-126048Y291181*
X-126755Y291209*
Y296289*
X-126048Y296317*
X-125358Y296401*
X-124685Y296541*
X-124029Y296736*
X-123389Y296988*
X-122766Y297295*
X-122159Y297658*
X-121570Y298077*
X-120997Y298552*
X-120441Y299083*
Y288415*
G37*
G36*
X071557Y249665D02*
X071001Y250196D01*
X070428Y250671*
X069839Y251090*
X069232Y251453*
X068609Y251760*
X067969Y252012*
X067313Y252207*
X066640Y252347*
X065950Y252431*
X065243Y252459*
Y257539*
X065950Y257567*
X066640Y257651*
X067313Y257791*
X067969Y257986*
X068609Y258238*
X069232Y258545*
X069839Y258908*
X070428Y259327*
X071001Y259802*
X071557Y260333*
Y249665*
G37*
G36*
X117802Y206502D02*
X117327Y205928D01*
X116908Y205339*
X116545Y204732*
X116237Y204109*
X115986Y203469*
X115791Y202813*
X115651Y202140*
X115567Y201450*
X115539Y200743*
X110459*
X110431Y201450*
X110347Y202140*
X110208Y202813*
X110012Y203469*
X109760Y204109*
X109453Y204732*
X109090Y205339*
X108671Y205928*
X108196Y206502*
X107665Y207057*
X118333*
X117802Y206502*
G37*
G36*
X-219001Y210802D02*
X-218428Y210327D01*
X-217839Y209908*
X-217232Y209545*
X-216609Y209237*
X-215969Y208986*
X-215313Y208791*
X-214640Y208651*
X-213950Y208567*
X-213243Y208539*
Y203459*
X-213950Y203431*
X-214640Y203347*
X-215313Y203208*
X-215969Y203012*
X-216609Y202760*
X-217232Y202453*
X-217839Y202090*
X-218428Y201671*
X-219001Y201196*
X-219557Y200665*
Y211333*
X-219001Y210802*
G37*
G36*
X334802Y203001D02*
X334327Y202428D01*
X333908Y201839*
X333545Y201232*
X333237Y200609*
X332986Y199969*
X332790Y199313*
X332651Y198640*
X332567Y197950*
X332539Y197243*
X327459*
X327431Y197950*
X327347Y198640*
X327208Y199313*
X327012Y199969*
X326761Y200609*
X326453Y201232*
X326090Y201839*
X325671Y202428*
X325196Y203001*
X324665Y203557*
X335333*
X334802Y203001*
G37*
G36*
X062923Y204879D02*
X062154Y204861D01*
X061413Y204792*
X060700Y204672*
X060015Y204500*
X059357Y204277*
X058726Y204002*
X058124Y203676*
X057549Y203299*
X057002Y202870*
X056482Y202390*
X052890Y205982*
X053370Y206502*
X053799Y207049*
X054176Y207624*
X054502Y208226*
X054777Y208856*
X055000Y209514*
X055172Y210200*
X055292Y210913*
X055362Y211654*
X055379Y212423*
X062923Y204879*
G37*
G36*
X200997Y223802D02*
X201570Y223327D01*
X202159Y222908*
X202766Y222545*
X203389Y222238*
X204029Y221986*
X204685Y221790*
X205359Y221651*
X206048Y221567*
X206756Y221539*
Y216459*
X206048Y216431*
X205359Y216347*
X204685Y216207*
X204029Y216012*
X203389Y215761*
X202766Y215453*
X202159Y215090*
X201570Y214671*
X200997Y214196*
X200441Y213665*
Y224333*
X200997Y223802*
G37*
G36*
X107557Y207165D02*
X107001Y207696D01*
X106428Y208171*
X105839Y208590*
X105232Y208953*
X104609Y209260*
X103969Y209512*
X103313Y209707*
X102640Y209847*
X101950Y209931*
X101243Y209959*
Y215039*
X101950Y215067*
X102640Y215151*
X103313Y215291*
X103969Y215486*
X104609Y215738*
X105232Y216045*
X105839Y216408*
X106428Y216827*
X107001Y217302*
X107557Y217833*
Y207165*
G37*
G36*
X068997Y217302D02*
X069570Y216827D01*
X070159Y216408*
X070766Y216045*
X071389Y215738*
X072029Y215486*
X072685Y215291*
X073358Y215151*
X074048Y215067*
X074755Y215039*
Y209959*
X074048Y209931*
X073358Y209847*
X072685Y209707*
X072029Y209512*
X071389Y209260*
X070766Y208953*
X070159Y208590*
X069570Y208171*
X068997Y207696*
X068441Y207165*
Y217833*
X068997Y217302*
G37*
G36*
X354137Y146491D02*
X354677Y146066D01*
X355243Y145692*
X355834Y145369*
X356451Y145097*
X357094Y144875*
X357763Y144705*
X358458Y144585*
X359178Y144516*
X359924Y144499*
X352499Y137074*
X352481Y137820*
X352413Y138540*
X352293Y139235*
X352123Y139903*
X351901Y140547*
X351629Y141164*
X351306Y141755*
X350932Y142321*
X350507Y142861*
X350031Y143375*
X353623Y146967*
X354137Y146491*
G37*
G36*
X-135014Y131103D02*
X-135475Y130545D01*
X-135881Y129969*
X-136233Y129376*
X-136531Y128765*
X-136775Y128136*
X-136965Y127489*
X-137101Y126825*
X-137182Y126142*
X-137209Y125442*
X-142289*
X-142316Y126142*
X-142397Y126825*
X-142533Y127489*
X-142723Y128136*
X-142967Y128765*
X-143265Y129376*
X-143617Y129969*
X-144023Y130545*
X-144484Y131103*
X-144999Y131643*
X-134499*
X-135014Y131103*
G37*
G36*
X-409514D02*
X-409975Y130545D01*
X-410381Y129969*
X-410733Y129376*
X-411031Y128765*
X-411275Y128136*
X-411465Y127489*
X-411601Y126825*
X-411682Y126142*
X-411709Y125442*
X-416789*
X-416816Y126142*
X-416897Y126825*
X-417033Y127489*
X-417223Y128136*
X-417466Y128765*
X-417765Y129376*
X-418117Y129969*
X-418523Y130545*
X-418984Y131103*
X-419499Y131643*
X-408999*
X-409514Y131103*
G37*
G36*
X-384514D02*
X-384975Y130545D01*
X-385381Y129969*
X-385733Y129376*
X-386031Y128765*
X-386275Y128136*
X-386465Y127489*
X-386601Y126825*
X-386682Y126142*
X-386701Y125645*
X-386680Y125129*
X-386594Y124438*
X-386451Y123767*
X-386251Y123115*
X-385993Y122483*
X-385679Y121870*
X-385306Y121277*
X-384877Y120703*
X-384390Y120148*
X-383846Y119613*
X-394509Y119263*
X-393992Y119839*
X-393530Y120430*
X-393122Y121034*
X-392768Y121653*
X-392469Y122286*
X-392224Y122933*
X-392034Y123594*
X-391898Y124269*
X-391816Y124958*
X-391793Y125552*
X-391816Y126142*
X-391897Y126825*
X-392033Y127489*
X-392223Y128136*
X-392466Y128765*
X-392765Y129376*
X-393117Y129969*
X-393523Y130545*
X-393984Y131103*
X-394499Y131643*
X-383999*
X-384514Y131103*
G37*
G36*
X-110014D02*
X-110475Y130545D01*
X-110881Y129969*
X-111233Y129376*
X-111531Y128765*
X-111775Y128136*
X-111965Y127489*
X-112101Y126825*
X-112182Y126142*
X-112209Y125442*
X-117289*
X-117316Y126142*
X-117397Y126825*
X-117533Y127489*
X-117723Y128136*
X-117967Y128765*
X-118265Y129376*
X-118618Y129969*
X-119023Y130545*
X-119484Y131103*
X-119999Y131643*
X-109499*
X-110014Y131103*
G37*
G36*
X419484D02*
X419023Y130545D01*
X418617Y129969*
X418265Y129376*
X417966Y128765*
X417723Y128136*
X417533Y127489*
X417397Y126825*
X417316Y126142*
X417289Y125442*
X412209*
X412182Y126142*
X412101Y126825*
X411965Y127489*
X411775Y128136*
X411532Y128765*
X411233Y129376*
X410881Y129969*
X410475Y130545*
X410014Y131103*
X409499Y131643*
X419999*
X419484Y131103*
G37*
G36*
X394484D02*
X394023Y130545D01*
X393617Y129969*
X393265Y129376*
X392966Y128765*
X392723Y128136*
X392533Y127489*
X392397Y126825*
X392316Y126142*
X392289Y125442*
X387209*
X387182Y126142*
X387101Y126825*
X386965Y127489*
X386775Y128136*
X386532Y128765*
X386233Y129376*
X385881Y129969*
X385475Y130545*
X385014Y131103*
X384499Y131643*
X394999*
X394484Y131103*
G37*
G36*
X339734D02*
X339273Y130545D01*
X338867Y129969*
X338515Y129376*
X338217Y128765*
X337973Y128136*
X337783Y127489*
X337647Y126825*
X337566Y126142*
X337539Y125442*
X332459*
X332432Y126142*
X332351Y126825*
X332215Y127489*
X332025Y128136*
X331781Y128765*
X331483Y129376*
X331131Y129969*
X330725Y130545*
X330264Y131103*
X329749Y131643*
X340249*
X339734Y131103*
G37*
G36*
X087924Y104499D02*
X087178Y104481D01*
X086458Y104413*
X085763Y104293*
X085094Y104123*
X084451Y103901*
X083834Y103629*
X083243Y103306*
X082677Y102932*
X082137Y102507*
X081623Y102031*
X078031Y105623*
X078507Y106137*
X078932Y106677*
X079306Y107243*
X079629Y107834*
X079901Y108452*
X080123Y109094*
X080293Y109763*
X080413Y110458*
X080482Y111178*
X080499Y111924*
X087924Y104499*
G37*
G36*
X-309001Y100802D02*
X-308428Y100327D01*
X-307839Y099908*
X-307232Y099545*
X-306609Y099238*
X-305969Y098986*
X-305313Y098791*
X-304640Y098651*
X-303950Y098567*
X-303243Y098539*
Y093459*
X-303950Y093431*
X-304640Y093347*
X-305313Y093208*
X-305969Y093012*
X-306609Y092760*
X-307232Y092453*
X-307839Y092090*
X-308428Y091671*
X-309001Y091196*
X-309557Y090665*
Y101333*
X-309001Y100802*
G37*
G36*
X276498Y098201D02*
X276550Y097654D01*
X276650Y097117*
X276799Y096590*
X276996Y096072*
X277242Y095564*
X277536Y095066*
X277879Y094578*
X278270Y094099*
X278709Y093631*
X275011Y090145*
X274545Y090583*
X274068Y090977*
X273581Y091326*
X273084Y091629*
X272577Y091887*
X272059Y092100*
X271532Y092268*
X270994Y092390*
X270446Y092468*
X269887Y092500*
X276494Y098757*
X276498Y098201*
G37*
G36*
X310307Y106665D02*
X309751Y107196D01*
X309178Y107671*
X308589Y108090*
X307982Y108453*
X307359Y108761*
X306720Y109012*
X306063Y109207*
X305390Y109347*
X304700Y109431*
X303993Y109459*
Y114539*
X304700Y114567*
X305390Y114651*
X306063Y114790*
X306720Y114986*
X307359Y115238*
X307982Y115545*
X308589Y115908*
X309178Y116327*
X309751Y116802*
X310307Y117333*
Y106665*
G37*
G36*
X442318Y123629D02*
X442404Y122938D01*
X442547Y122267*
X442747Y121615*
X443005Y120983*
X443320Y120370*
X443692Y119777*
X444121Y119203*
X444608Y118648*
X445152Y118113*
X434489Y117763*
X435006Y118339*
X435468Y118930*
X435876Y119534*
X436230Y120153*
X436529Y120786*
X436774Y121433*
X436964Y122094*
X437100Y122769*
X437182Y123459*
X437209Y124162*
X442289Y124339*
X442318Y123629*
G37*
G36*
X392317Y123048D02*
X392401Y122358D01*
X392541Y121685*
X392736Y121029*
X392988Y120389*
X393295Y119766*
X393658Y119159*
X394077Y118570*
X394552Y117997*
X395083Y117441*
X384415*
X384946Y117997*
X385421Y118570*
X385840Y119159*
X386203Y119766*
X386510Y120389*
X386762Y121029*
X386958Y121685*
X387097Y122358*
X387181Y123048*
X387209Y123755*
X392289*
X392317Y123048*
G37*
G36*
X060567Y122048D02*
X060651Y121358D01*
X060791Y120685*
X060986Y120028*
X061237Y119389*
X061545Y118766*
X061908Y118159*
X062327Y117570*
X062802Y116997*
X063333Y116441*
X052665*
X053196Y116997*
X053671Y117570*
X054090Y118159*
X054453Y118766*
X054761Y119389*
X055012Y120028*
X055208Y120685*
X055347Y121358*
X055431Y122048*
X055459Y122755*
X060539*
X060567Y122048*
G37*
G36*
X444484Y131103D02*
X444023Y130545D01*
X443617Y129969*
X443265Y129376*
X442966Y128765*
X442723Y128136*
X442533Y127489*
X442397Y126825*
X442316Y126142*
X442289Y125442*
X437209*
X437182Y126142*
X437101Y126825*
X436965Y127489*
X436775Y128136*
X436532Y128765*
X436233Y129376*
X435881Y129969*
X435475Y130545*
X435014Y131103*
X434499Y131643*
X444999*
X444484Y131103*
G37*
G36*
X-349531Y143375D02*
X-350007Y142861D01*
X-350432Y142321*
X-350806Y141755*
X-351129Y141164*
X-351401Y140547*
X-351623Y139903*
X-351793Y139235*
X-351913Y138540*
X-351982Y137820*
X-351999Y137074*
X-359424Y144499*
X-358678Y144516*
X-357958Y144585*
X-357263Y144705*
X-356594Y144875*
X-355952Y145097*
X-355334Y145369*
X-354743Y145692*
X-354177Y146066*
X-353637Y146491*
X-353123Y146967*
X-349531Y143375*
G37*
G36*
X-365361Y146491D02*
X-364821Y146066D01*
X-364255Y145692*
X-363664Y145369*
X-363046Y145097*
X-362404Y144875*
X-361735Y144705*
X-361040Y144585*
X-360320Y144516*
X-359574Y144499*
X-366999Y137074*
X-367017Y137820*
X-367085Y138540*
X-367205Y139235*
X-367375Y139903*
X-367597Y140547*
X-367869Y141164*
X-368192Y141755*
X-368566Y142321*
X-368991Y142861*
X-369467Y143375*
X-365875Y146967*
X-365361Y146491*
G37*
G36*
X-429281Y143375D02*
X-429757Y142861D01*
X-430182Y142321*
X-430556Y141755*
X-430879Y141164*
X-431151Y140547*
X-431373Y139903*
X-431543Y139235*
X-431663Y138540*
X-431731Y137820*
X-431749Y137074*
X-439174Y144499*
X-438428Y144516*
X-437708Y144585*
X-437013Y144705*
X-436344Y144875*
X-435702Y145097*
X-435084Y145369*
X-434493Y145692*
X-433927Y146066*
X-433387Y146491*
X-432873Y146967*
X-429281Y143375*
G37*
G36*
X-324531D02*
X-325007Y142861D01*
X-325432Y142321*
X-325806Y141755*
X-326129Y141164*
X-326401Y140547*
X-326623Y139903*
X-326793Y139235*
X-326913Y138540*
X-326982Y137820*
X-326999Y137074*
X-334424Y144499*
X-333678Y144516*
X-332958Y144585*
X-332263Y144705*
X-331594Y144875*
X-330952Y145097*
X-330334Y145369*
X-329743Y145692*
X-329177Y146066*
X-328637Y146491*
X-328123Y146967*
X-324531Y143375*
G37*
G36*
X097967D02*
X097491Y142861D01*
X097066Y142321*
X096692Y141755*
X096369Y141164*
X096097Y140547*
X095875Y139903*
X095705Y139235*
X095585Y138540*
X095517Y137820*
X095499Y137074*
X088074Y144499*
X088820Y144516*
X089540Y144585*
X090235Y144705*
X090904Y144875*
X091546Y145097*
X092164Y145369*
X092755Y145692*
X093321Y146066*
X093861Y146491*
X094375Y146967*
X097967Y143375*
G37*
G36*
X-154781D02*
X-155257Y142861D01*
X-155682Y142321*
X-156056Y141755*
X-156379Y141164*
X-156651Y140547*
X-156873Y139903*
X-157043Y139235*
X-157163Y138540*
X-157232Y137820*
X-157249Y137074*
X-164674Y144499*
X-163928Y144516*
X-163208Y144585*
X-162513Y144705*
X-161844Y144875*
X-161202Y145097*
X-160584Y145369*
X-159993Y145692*
X-159427Y146066*
X-158887Y146491*
X-158373Y146967*
X-154781Y143375*
G37*
G36*
X-170611Y146491D02*
X-170071Y146066D01*
X-169505Y145692*
X-168914Y145369*
X-168297Y145097*
X-167654Y144875*
X-166985Y144705*
X-166290Y144585*
X-165570Y144516*
X-164824Y144499*
X-172249Y137074*
X-172266Y137820*
X-172335Y138540*
X-172455Y139235*
X-172625Y139903*
X-172847Y140547*
X-173119Y141164*
X-173442Y141755*
X-173816Y142321*
X-174241Y142861*
X-174717Y143375*
X-171125Y146967*
X-170611Y146491*
G37*
G36*
X-309574Y129499D02*
X-310320Y129481D01*
X-311040Y129413*
X-311735Y129293*
X-312404Y129123*
X-313047Y128901*
X-313664Y128629*
X-314255Y128306*
X-314821Y127932*
X-315361Y127508*
X-315875Y127031*
X-319467Y130623*
X-318991Y131137*
X-318566Y131677*
X-318192Y132243*
X-317869Y132834*
X-317597Y133452*
X-317375Y134094*
X-317205Y134763*
X-317085Y135458*
X-317016Y136178*
X-316999Y136924*
X-309574Y129499*
G37*
G36*
X-334574D02*
X-335320Y129481D01*
X-336040Y129413*
X-336735Y129293*
X-337404Y129123*
X-338046Y128901*
X-338664Y128629*
X-339255Y128306*
X-339821Y127932*
X-340361Y127508*
X-340875Y127031*
X-344467Y130623*
X-343991Y131137*
X-343566Y131677*
X-343192Y132243*
X-342869Y132834*
X-342597Y133452*
X-342375Y134094*
X-342205Y134763*
X-342085Y135458*
X-342017Y136178*
X-341999Y136924*
X-334574Y129499*
G37*
G36*
X-084893Y131218D02*
X-085246Y130755D01*
X-085557Y130254*
X-085827Y129717*
X-086055Y129141*
X-086242Y128529*
X-086387Y127879*
X-086491Y127191*
X-086553Y126467*
X-086574Y125704*
X-092924*
X-092945Y126467*
X-093007Y127191*
X-093111Y127879*
X-093256Y128529*
X-093443Y129141*
X-093671Y129717*
X-093941Y130254*
X-094252Y130755*
X-094605Y131218*
X-094999Y131643*
X-084499*
X-084893Y131218*
G37*
G36*
X-164824Y129499D02*
X-165570Y129481D01*
X-166290Y129413*
X-166985Y129293*
X-167654Y129123*
X-168297Y128901*
X-168914Y128629*
X-169505Y128306*
X-170071Y127932*
X-170611Y127508*
X-171125Y127031*
X-174717Y130623*
X-174241Y131137*
X-173816Y131677*
X-173442Y132243*
X-173119Y132834*
X-172847Y133452*
X-172625Y134094*
X-172455Y134763*
X-172335Y135458*
X-172266Y136178*
X-172249Y136924*
X-164824Y129499*
G37*
G36*
X-303603Y141734D02*
X-303045Y141273D01*
X-302469Y140867*
X-301876Y140515*
X-301265Y140217*
X-300636Y139973*
X-299989Y139783*
X-299325Y139647*
X-298642Y139566*
X-297942Y139539*
Y134459*
X-298642Y134432*
X-299325Y134351*
X-299989Y134215*
X-300636Y134025*
X-301265Y133782*
X-301876Y133483*
X-302469Y133131*
X-303045Y132725*
X-303603Y132264*
X-304143Y131749*
Y142249*
X-303603Y141734*
G37*
G36*
X-271441Y131665D02*
X-271997Y132196D01*
X-272570Y132671*
X-273159Y133090*
X-273766Y133453*
X-274389Y133761*
X-275029Y134012*
X-275685Y134207*
X-276358Y134347*
X-277048Y134431*
X-277755Y134459*
Y139539*
X-277048Y139567*
X-276358Y139651*
X-275685Y139790*
X-275029Y139986*
X-274389Y140238*
X-273766Y140545*
X-273159Y140908*
X-272570Y141327*
X-271997Y141802*
X-271441Y142333*
Y131665*
G37*
G36*
X095517Y136178D02*
X095585Y135458D01*
X095705Y134763*
X095875Y134094*
X096097Y133452*
X096369Y132834*
X096692Y132243*
X097066Y131677*
X097491Y131137*
X097967Y130623*
X094375Y127031*
X093861Y127508*
X093321Y127932*
X092755Y128306*
X092164Y128629*
X091546Y128901*
X090904Y129123*
X090235Y129293*
X089540Y129413*
X088820Y129481*
X088074Y129499*
X095499Y136924*
X095517Y136178*
G37*
G54D10*
X111499Y237499D02*
X127000Y221999D01*
Y074999D02*
Y221999D01*
X113999Y061999D02*
X127000Y074999D01*
X112999Y208999D02*
X114999Y210999D01*
X112999Y161999D02*
Y208999D01*
X087999Y136999D02*
X112999Y161999D01*
X-227999Y029999D02*
X-139749Y118249D01*
X-227999Y-124999D02*
Y029999D01*
Y-124999D02*
X-076999Y-275999D01*
X-189999Y029999D02*
X-114749Y105249D01*
X-189999Y-024499D02*
Y029999D01*
Y-024499D02*
X-164749Y-049749D01*
X061999Y237499D02*
X111499D01*
X062999Y212499D02*
X112999D01*
X035499Y184999D02*
X062999Y212499D01*
X000000Y184999D02*
X035499D01*
X-052999Y254999D02*
X076999D01*
X-065999Y241999D02*
X-052999Y254999D01*
X-040249Y-347499D02*
X-024749Y-331999D01*
Y-309999*
X000000Y-367499D02*
Y-321749D01*
X-064999Y-470499D02*
Y-439999D01*
Y-470499D02*
X-055749Y-479749D01*
X025249*
X064999Y-439999*
X050749Y-425749D02*
Y-424249D01*
Y-425749D02*
X064999Y-439999D01*
X000000Y-254499D02*
X159499D01*
X414749Y062499D02*
Y136999D01*
X439749Y112749D02*
Y136999D01*
X359999D02*
X381000Y157999D01*
X418749*
X439749Y136999*
X334999Y114999D02*
Y136999D01*
Y114999D02*
X387499Y062499D01*
X414749*
X329999Y166999D02*
X359999Y136999D01*
X329999Y166999D02*
Y208999D01*
X269875Y098874D02*
X293999Y074749D01*
X-114749Y-148249D02*
X-067999Y-194999D01*
X-114749Y-148249D02*
Y-049749D01*
X-164749D02*
X-147999Y-032999D01*
X-131499*
X-114749Y-049749*
X-139749Y-175999D02*
Y-049749D01*
X-089749Y-142249D02*
Y-049749D01*
Y-142249D02*
X-036999Y-194999D01*
X-439249Y136999D02*
X-421249Y154999D01*
X-377499*
X-359499Y136999*
X389749Y111999D02*
Y136999D01*
X287999Y111999D02*
X315749D01*
X254999Y144999D02*
X287999Y111999D01*
X254999Y144999D02*
Y171999D01*
X309999Y136999D02*
Y167999D01*
X-114749Y105249D02*
Y136999D01*
X-164749D02*
X-137374Y164374D01*
X050999Y-120999D02*
Y049999D01*
X-005999Y137999D02*
X012999D01*
X-024999Y156999D02*
X-005999Y137999D01*
X000000Y156999D02*
Y184999D01*
X-389249Y114249D02*
Y136999D01*
X-414249Y111249D02*
Y136999D01*
Y111249D02*
X-397999Y094999D01*
X-376499*
X-334499Y136999*
X-423999Y088999D02*
X-410999D01*
X-404999Y082999*
X-363499*
X-309499Y136999*
X-359499D02*
X-316999Y179499D01*
X-334499Y136999D02*
X-312499Y158999D01*
X-186749D02*
X-164749Y136999D01*
X-312499Y158999D02*
X-186749D01*
X-314999Y095999D02*
X-205749D01*
X-164749Y136999*
X021999Y078999D02*
X050999Y049999D01*
X021999Y078999D02*
Y128999D01*
X012999Y137999D02*
X021999Y128999D01*
X135999Y048999D02*
Y064999D01*
X140999Y069999*
Y275999*
X214999Y235999D02*
X241999D01*
X309999Y167999*
X194999Y218999D02*
X207999D01*
X254999Y171999*
X179999Y065499D02*
X196499Y048999D01*
X179999Y065499D02*
Y169999D01*
X156999Y192999D02*
X179999Y169999D01*
X196499Y078999D02*
Y181499D01*
X174999Y202999D02*
X196499Y181499D01*
X156999Y192999D02*
Y282999D01*
X095999Y343999D02*
X156999Y282999D01*
X174999Y202999D02*
Y289999D01*
X-190999Y349999D02*
X-177999Y362999D01*
X101999*
X174999Y289999*
X-309499Y136999D02*
X-265999D01*
X000000Y-279499D02*
X159499D01*
X000000Y-225499D02*
X159499D01*
X000000Y-200499D02*
X159499D01*
X050999Y-120999D02*
X109999Y-179999D01*
X175999*
X196499Y-159499*
Y-124999*
Y-082499D02*
Y-068999D01*
Y-082499D02*
X213999Y-099999D01*
Y-267999D02*
Y-099999D01*
X180999Y-300999D02*
X213999Y-267999D01*
X-005999Y-300999D02*
X180999D01*
X-030999Y-275999D02*
X-005999Y-300999D01*
X-076999Y-275999D02*
X-030999D01*
X-139749Y118249D02*
Y136999D01*
X-114749D02*
Y141749D01*
X-137374Y164374D02*
X-114749Y141749D01*
X-170499Y179499D02*
X-159999Y189999D01*
X-316999Y179499D02*
X-170499D01*
X087999Y086999D02*
X108999Y107999D01*
Y115999*
X087999Y136999D02*
X108999Y115999D01*
X087999Y031999D02*
Y061999D01*
X050999Y074999D02*
X087999Y111999D01*
X024999Y156999D02*
X041999D01*
X057999Y140999*
Y110999D02*
Y140999D01*
X093999Y322999D02*
X140999Y275999D01*
X-065999Y199999D02*
Y241999D01*
X-077999Y187999D02*
X-065999Y199999D01*
X-159999Y189999D02*
X-128999D01*
X-089749Y150749*
Y136999D02*
Y150749D01*
X-224999Y205999D02*
X-117999D01*
X-099999Y187999*
X-077999*
X-091999Y212499D02*
Y295999D01*
X-064999Y322999*
X093999*
X-161999Y343999D02*
X095999D01*
X-252999Y211999D02*
X-171249Y293749D01*
X-114999*
X-316999Y179499D02*
Y196999D01*
X-301999Y211999*
X-252999*
X-265999Y239999D02*
X-161999Y343999D01*
X264999Y-137499D02*
X293999Y-108499D01*
Y074749*
G54D11*
X-114999Y-439999D02*
Y-407749D01*
X-102749Y-395499*
Y-347499*
X-089999Y-439999D02*
Y-426249D01*
X-071499Y-407749*
X-102749Y-347499D02*
Y-319499D01*
X-110249Y-311999D02*
X-102749Y-319499D01*
X-110249Y-311999D02*
Y-280249D01*
X034499Y-404999D02*
X065999D01*
X089999Y-439999D02*
Y-429749D01*
X094999Y-424749*
Y-409749*
X065999Y-404999D02*
X070749Y-409749D01*
X094999*
X114999Y-439999D02*
X177999D01*
X-089749Y104249D02*
Y136999D01*
X-135999Y057999D02*
X-089749Y104249D01*
X-135999Y-010999D02*
Y057999D01*
Y-010999D02*
X-120999Y-025999D01*
X-113499*
X-089749Y-049749*
X315999Y-114999D02*
X446999D01*
X268999Y-305999D02*
X315999Y-258999D01*
Y-114999*
G54D12*
X269999Y098999D03*
Y178999D03*
X135999Y-161999D03*
X055999D03*
X079999Y-321749D03*
X000000D03*
X095999Y264999D03*
Y184999D03*
X-039999Y409499D03*
X039999D03*
G54D13*
X317500Y279999D03*
X342499D03*
X-342499D03*
X-317500D03*
X274749Y-041749D03*
Y-059749D03*
X171499Y347249D03*
X221499D03*
X-227749Y-388999D03*
Y-370999D03*
X000000Y-367499D03*
Y-392499D03*
X070999Y-379999D03*
X095999D03*
X120999D03*
X177999Y-369999D03*
Y-389999D03*
X024999Y293749D03*
X-024999D03*
X279999Y280999D03*
X229999D03*
X-067999Y-254999D03*
Y-229999D03*
G54D14*
X334999Y136999D03*
X359999D03*
X309999D03*
X-414249D03*
X-439249D03*
X-389249D03*
X087999Y086999D03*
Y111999D03*
Y136999D03*
Y061999D03*
X-024999Y156999D03*
X024999D03*
X000000D03*
X414749Y136999D03*
X439749D03*
X389749D03*
X-334499D03*
X-359499D03*
X-309499D03*
X-114749D03*
X-139749D03*
X-164749D03*
X-089749D03*
X-114749Y-049749D03*
X-139749D03*
X-164749D03*
X-089749D03*
X-037499Y212499D03*
X037499D03*
X012499D03*
X-012499D03*
Y237499D03*
X012499D03*
X037499D03*
X-037499D03*
X000000Y-225499D03*
Y-200499D03*
Y-254499D03*
Y-279499D03*
X315749Y062499D03*
Y037499D03*
Y012499D03*
Y-012499D03*
Y087499D03*
Y-037499D03*
Y-087499D03*
Y-062499D03*
X440749Y-062749D03*
Y-087749D03*
Y-037749D03*
Y087499D03*
Y-012749D03*
Y012249D03*
Y037249D03*
Y062499D03*
X114999Y-439999D03*
X089999D03*
X064999D03*
X-064999D03*
X-089999D03*
X-114999D03*
X-323999Y066999D03*
X-398999D03*
X-373999D03*
X-348999D03*
X-423999D03*
X-336499Y007999D03*
X-411499D03*
X-386499D03*
X-361499D03*
G54D15*
X233999Y162499D03*
Y-162499D03*
Y-012499D03*
Y-037499D03*
Y-062499D03*
Y-087499D03*
Y-112499D03*
Y-137499D03*
Y012499D03*
Y037499D03*
Y062499D03*
Y087499D03*
Y112499D03*
Y137499D03*
X158999D03*
Y112499D03*
Y087499D03*
Y062499D03*
Y037499D03*
Y012499D03*
Y-137499D03*
Y-112499D03*
Y-087499D03*
Y-062499D03*
Y-037499D03*
Y-012499D03*
Y-162499D03*
G54D16*
X158999Y162499D03*
G54D17*
X-071499Y-302499D03*
X-102749Y-347499D03*
X-040249D03*
G54D18*
X112999Y212499D03*
X062999D03*
X061999Y237499D03*
X076999Y254999D03*
X-024749Y-309999D03*
X-064999Y-470499D03*
X-114999Y-407749D03*
X159499Y-279499D03*
X-071499Y-407749D03*
X-110249Y-280249D03*
X034499Y-404999D03*
X050749Y-424249D03*
X094999Y-409749D03*
X177999Y-439999D03*
X159499Y-254499D03*
Y-225499D03*
X414749Y062499D03*
X439999Y112499D03*
X329999Y208999D03*
X264999Y-137499D03*
X-067999Y-194999D03*
X-139749Y-175999D03*
X-036999Y-194999D03*
X389749Y111999D03*
X315749D03*
X000000Y184999D03*
X-388999Y113999D03*
X-423999Y088999D03*
X-316999Y179499D03*
X-314999Y095999D03*
X113999Y061999D03*
X135999Y048999D03*
X196499D03*
Y078999D03*
X214999Y235999D03*
X194999Y218999D03*
X-265999Y136999D03*
X-224999Y205999D03*
X159499Y-200499D03*
X-190999Y349999D03*
X196499Y-068999D03*
Y-124999D03*
X-137374Y164374D03*
X087999Y031999D03*
X050999Y074999D03*
X057999Y110999D03*
X-091999Y212499D03*
X-114999Y293749D03*
X-265999Y239999D03*
X-033999Y-405999D03*
X268999Y-305999D03*
X447999Y-115999D03*
X315999Y-114999D03*
M02*