G04 Layer_Physical_Order=1*
G04 Layer_Color=255*
%FSLAX44Y44*%
%MOMM*%
G71*
G01*
G75*
%ADD10C,0.6350*%
%ADD11C,0.5080*%
%ADD12C,1.3500*%
%ADD13C,1.3000*%
%ADD14C,1.5000*%
%ADD15C,3.5000*%
%ADD16O,2.0000X1.0000*%
%ADD17R,2.0000X1.0000*%
%ADD18C,1.5240*%
G36*
X321883Y-110076D02*
X322361Y-110443D01*
X322876Y-110767D01*
X323427Y-111048D01*
X324014Y-111285D01*
X324638Y-111480D01*
X325299Y-111631D01*
X325996Y-111739D01*
X326729Y-111803D01*
X327499Y-111825D01*
Y-118175D01*
X326729Y-118197D01*
X325996Y-118261D01*
X325299Y-118369D01*
X324638Y-118520D01*
X324014Y-118715D01*
X323427Y-118952D01*
X322876Y-119233D01*
X322361Y-119557D01*
X321883Y-119924D01*
X321442Y-120334D01*
Y-109666D01*
X321883Y-110076D01*
D02*
G37*
G36*
X441905Y-120574D02*
X441524Y-120118D01*
X441098Y-119710D01*
X440629Y-119350D01*
X440116Y-119038D01*
X439560Y-118775D01*
X438960Y-118559D01*
X438317Y-118391D01*
X437630Y-118271D01*
X436899Y-118199D01*
X436125Y-118175D01*
X437054Y-111825D01*
X437821Y-111807D01*
X439261Y-111661D01*
X439934Y-111533D01*
X440574Y-111368D01*
X441184Y-111167D01*
X441762Y-110930D01*
X442308Y-110656D01*
X442822Y-110345D01*
X443305Y-109998D01*
X441905Y-120574D01*
D02*
G37*
G36*
X320924Y-120883D02*
X320557Y-121361D01*
X320233Y-121876D01*
X319952Y-122427D01*
X319715Y-123014D01*
X319520Y-123638D01*
X319369Y-124299D01*
X319261Y-124996D01*
X319197Y-125729D01*
X319175Y-126499D01*
X312825D01*
X312803Y-125729D01*
X312739Y-124996D01*
X312631Y-124299D01*
X312480Y-123638D01*
X312285Y-123014D01*
X312048Y-122427D01*
X311767Y-121876D01*
X311443Y-121361D01*
X311076Y-120883D01*
X310666Y-120442D01*
X321334D01*
X320924Y-120883D01*
D02*
G37*
G36*
X201303Y-74998D02*
X200828Y-75571D01*
X200409Y-76160D01*
X200046Y-76767D01*
X199739Y-77390D01*
X199487Y-78029D01*
X199291Y-78686D01*
X199152Y-79359D01*
X199068Y-80049D01*
X199040Y-80756D01*
X193960D01*
X193932Y-80049D01*
X193848Y-79359D01*
X193708Y-78686D01*
X193513Y-78029D01*
X193262Y-77390D01*
X192954Y-76767D01*
X192591Y-76160D01*
X192172Y-75571D01*
X191697Y-74998D01*
X191166Y-74442D01*
X201834D01*
X201303Y-74998D01*
D02*
G37*
G36*
X-85015Y-55646D02*
X-85476Y-56204D01*
X-85882Y-56780D01*
X-86234Y-57373D01*
X-86532Y-57984D01*
X-86776Y-58613D01*
X-86966Y-59260D01*
X-87102Y-59925D01*
X-87183Y-60607D01*
X-87210Y-61307D01*
X-92290D01*
X-92317Y-60607D01*
X-92398Y-59925D01*
X-92534Y-59260D01*
X-92724Y-58613D01*
X-92968Y-57984D01*
X-93266Y-57373D01*
X-93618Y-56780D01*
X-94024Y-56204D01*
X-94485Y-55646D01*
X-95000Y-55106D01*
X-84500D01*
X-85015Y-55646D01*
D02*
G37*
G36*
X-110015D02*
X-110476Y-56204D01*
X-110882Y-56780D01*
X-111234Y-57373D01*
X-111532Y-57984D01*
X-111776Y-58613D01*
X-111966Y-59260D01*
X-112102Y-59925D01*
X-112183Y-60607D01*
X-112210Y-61307D01*
X-117290D01*
X-117317Y-60607D01*
X-117398Y-59925D01*
X-117534Y-59260D01*
X-117724Y-58613D01*
X-117968Y-57984D01*
X-118266Y-57373D01*
X-118618Y-56780D01*
X-119024Y-56204D01*
X-119485Y-55646D01*
X-120000Y-55106D01*
X-109500D01*
X-110015Y-55646D01*
D02*
G37*
G36*
X-135015D02*
X-135476Y-56204D01*
X-135882Y-56780D01*
X-136234Y-57373D01*
X-136532Y-57984D01*
X-136776Y-58613D01*
X-136966Y-59260D01*
X-137102Y-59925D01*
X-137183Y-60607D01*
X-137210Y-61307D01*
X-142290D01*
X-142317Y-60607D01*
X-142398Y-59925D01*
X-142534Y-59260D01*
X-142724Y-58613D01*
X-142968Y-57984D01*
X-143266Y-57373D01*
X-143618Y-56780D01*
X-144024Y-56204D01*
X-144485Y-55646D01*
X-145000Y-55106D01*
X-134500D01*
X-135015Y-55646D01*
D02*
G37*
G36*
X-73997Y-185371D02*
X-73450Y-185800D01*
X-72875Y-186177D01*
X-72273Y-186503D01*
X-71642Y-186778D01*
X-70985Y-187001D01*
X-70299Y-187173D01*
X-69586Y-187293D01*
X-68845Y-187362D01*
X-68076Y-187380D01*
X-75620Y-194924D01*
X-75637Y-194155D01*
X-75707Y-193414D01*
X-75827Y-192701D01*
X-75999Y-192015D01*
X-76222Y-191357D01*
X-76497Y-190727D01*
X-76823Y-190125D01*
X-77200Y-189550D01*
X-77629Y-189003D01*
X-78109Y-188483D01*
X-74517Y-184891D01*
X-73997Y-185371D01*
D02*
G37*
G36*
X5896Y-195765D02*
X6454Y-196226D01*
X7030Y-196632D01*
X7623Y-196984D01*
X8234Y-197283D01*
X8863Y-197526D01*
X9510Y-197716D01*
X10175Y-197852D01*
X10857Y-197933D01*
X11557Y-197960D01*
Y-203040D01*
X10857Y-203067D01*
X10175Y-203148D01*
X9510Y-203284D01*
X8863Y-203474D01*
X8234Y-203717D01*
X7623Y-204016D01*
X7030Y-204368D01*
X6454Y-204774D01*
X5896Y-205235D01*
X5356Y-205750D01*
Y-195250D01*
X5896Y-195765D01*
D02*
G37*
G36*
X154058Y-205834D02*
X153502Y-205303D01*
X152929Y-204828D01*
X152340Y-204409D01*
X151733Y-204046D01*
X151110Y-203738D01*
X150471Y-203487D01*
X149814Y-203291D01*
X149141Y-203152D01*
X148451Y-203068D01*
X147744Y-203040D01*
Y-197960D01*
X148451Y-197932D01*
X149141Y-197848D01*
X149814Y-197708D01*
X150471Y-197513D01*
X151110Y-197262D01*
X151733Y-196954D01*
X152340Y-196591D01*
X152929Y-196172D01*
X153502Y-195697D01*
X154058Y-195166D01*
Y-205834D01*
D02*
G37*
G36*
X-42997Y-185371D02*
X-42450Y-185800D01*
X-41875Y-186177D01*
X-41273Y-186503D01*
X-40642Y-186778D01*
X-39985Y-187001D01*
X-39299Y-187173D01*
X-38586Y-187293D01*
X-37845Y-187362D01*
X-37076Y-187380D01*
X-44620Y-194924D01*
X-44637Y-194155D01*
X-44707Y-193414D01*
X-44827Y-192701D01*
X-44999Y-192015D01*
X-45222Y-191357D01*
X-45497Y-190727D01*
X-45823Y-190125D01*
X-46200Y-189550D01*
X-46629Y-189003D01*
X-47109Y-188483D01*
X-43517Y-184891D01*
X-42997Y-185371D01*
D02*
G37*
G36*
X201303Y-130998D02*
X200828Y-131571D01*
X200409Y-132160D01*
X200046Y-132767D01*
X199739Y-133390D01*
X199487Y-134030D01*
X199291Y-134686D01*
X199152Y-135359D01*
X199068Y-136049D01*
X199040Y-136756D01*
X193960D01*
X193932Y-136049D01*
X193848Y-135359D01*
X193708Y-134686D01*
X193513Y-134030D01*
X193262Y-133390D01*
X192954Y-132767D01*
X192591Y-132160D01*
X192172Y-131571D01*
X191697Y-130998D01*
X191166Y-130442D01*
X201834D01*
X201303Y-130998D01*
D02*
G37*
G36*
X275109Y-130983D02*
X274629Y-131503D01*
X274200Y-132050D01*
X273823Y-132625D01*
X273497Y-133227D01*
X273222Y-133858D01*
X272999Y-134515D01*
X272827Y-135201D01*
X272707Y-135914D01*
X272638Y-136655D01*
X272620Y-137424D01*
X265076Y-129880D01*
X265845Y-129863D01*
X266586Y-129793D01*
X267299Y-129673D01*
X267985Y-129501D01*
X268643Y-129278D01*
X269273Y-129003D01*
X269875Y-128677D01*
X270450Y-128300D01*
X270997Y-127871D01*
X271517Y-127391D01*
X275109Y-130983D01*
D02*
G37*
G36*
X-137182Y-164951D02*
X-137098Y-165641D01*
X-136959Y-166314D01*
X-136763Y-166971D01*
X-136511Y-167610D01*
X-136204Y-168233D01*
X-135841Y-168840D01*
X-135422Y-169429D01*
X-134947Y-170002D01*
X-134416Y-170558D01*
X-145084D01*
X-144553Y-170002D01*
X-144078Y-169429D01*
X-143659Y-168840D01*
X-143296Y-168233D01*
X-142989Y-167610D01*
X-142737Y-166971D01*
X-142542Y-166314D01*
X-142402Y-165641D01*
X-142318Y-164951D01*
X-142290Y-164244D01*
X-137210D01*
X-137182Y-164951D01*
D02*
G37*
G36*
X-170612Y-40258D02*
X-170072Y-40683D01*
X-169506Y-41057D01*
X-168915Y-41380D01*
X-168298Y-41652D01*
X-167655Y-41874D01*
X-166986Y-42044D01*
X-166291Y-42164D01*
X-165571Y-42232D01*
X-164825Y-42250D01*
X-172250Y-49675D01*
X-172267Y-48929D01*
X-172336Y-48209D01*
X-172456Y-47514D01*
X-172626Y-46845D01*
X-172848Y-46203D01*
X-173120Y-45585D01*
X-173443Y-44994D01*
X-173817Y-44428D01*
X-174242Y-43888D01*
X-174718Y-43374D01*
X-171126Y-39782D01*
X-170612Y-40258D01*
D02*
G37*
G36*
X417318Y73549D02*
X417402Y72859D01*
X417542Y72186D01*
X417737Y71529D01*
X417989Y70890D01*
X418296Y70267D01*
X418659Y69660D01*
X419078Y69071D01*
X419553Y68498D01*
X420084Y67942D01*
X409416D01*
X409947Y68498D01*
X410422Y69071D01*
X410841Y69660D01*
X411204Y70267D01*
X411511Y70890D01*
X411763Y71529D01*
X411959Y72186D01*
X412098Y72859D01*
X412182Y73549D01*
X412210Y74256D01*
X417290D01*
X417318Y73549D01*
D02*
G37*
G36*
X124109Y68517D02*
X123629Y67997D01*
X123200Y67450D01*
X122823Y66875D01*
X122497Y66273D01*
X122222Y65642D01*
X121999Y64985D01*
X121827Y64299D01*
X121707Y63586D01*
X121637Y62845D01*
X121620Y62076D01*
X114076Y69620D01*
X114845Y69637D01*
X115586Y69707D01*
X116299Y69827D01*
X116985Y69999D01*
X117642Y70222D01*
X118273Y70497D01*
X118875Y70823D01*
X119450Y71200D01*
X119997Y71629D01*
X120517Y72109D01*
X124109Y68517D01*
D02*
G37*
G36*
X409308Y57166D02*
X408752Y57697D01*
X408179Y58172D01*
X407590Y58591D01*
X406983Y58954D01*
X406360Y59261D01*
X405720Y59513D01*
X405064Y59708D01*
X404391Y59848D01*
X403701Y59932D01*
X402994Y59960D01*
Y65040D01*
X403701Y65068D01*
X404391Y65152D01*
X405064Y65292D01*
X405720Y65487D01*
X406360Y65739D01*
X406983Y66046D01*
X407590Y66409D01*
X408179Y66828D01*
X408752Y67303D01*
X409308Y67834D01*
Y57166D01*
D02*
G37*
G36*
X61109Y81517D02*
X60629Y80997D01*
X60200Y80450D01*
X59823Y79875D01*
X59497Y79273D01*
X59222Y78643D01*
X58999Y77985D01*
X58827Y77299D01*
X58707Y76586D01*
X58637Y75845D01*
X58620Y75076D01*
X51076Y82620D01*
X51845Y82638D01*
X52586Y82707D01*
X53299Y82827D01*
X53985Y82999D01*
X54643Y83222D01*
X55273Y83497D01*
X55875Y83823D01*
X56450Y84200D01*
X56997Y84629D01*
X57517Y85109D01*
X61109Y81517D01*
D02*
G37*
G36*
X97968Y93376D02*
X97492Y92862D01*
X97067Y92322D01*
X96693Y91756D01*
X96370Y91165D01*
X96098Y90548D01*
X95876Y89904D01*
X95706Y89236D01*
X95586Y88541D01*
X95518Y87821D01*
X95500Y87075D01*
X88075Y94500D01*
X88821Y94517D01*
X89541Y94586D01*
X90236Y94706D01*
X90905Y94876D01*
X91547Y95098D01*
X92165Y95370D01*
X92756Y95693D01*
X93322Y96067D01*
X93862Y96492D01*
X94376Y96968D01*
X97968Y93376D01*
D02*
G37*
G36*
X199068Y90049D02*
X199152Y89359D01*
X199291Y88686D01*
X199487Y88029D01*
X199739Y87390D01*
X200046Y86767D01*
X200409Y86160D01*
X200828Y85571D01*
X201303Y84998D01*
X201834Y84442D01*
X191166D01*
X191697Y84998D01*
X192172Y85571D01*
X192591Y86160D01*
X192954Y86767D01*
X193262Y87390D01*
X193513Y88029D01*
X193708Y88686D01*
X193848Y89359D01*
X193932Y90049D01*
X193960Y90756D01*
X199040D01*
X199068Y90049D01*
D02*
G37*
G36*
X-418002Y93803D02*
X-417429Y93328D01*
X-416840Y92909D01*
X-416233Y92546D01*
X-415610Y92239D01*
X-414971Y91987D01*
X-414314Y91791D01*
X-413641Y91652D01*
X-412951Y91568D01*
X-412244Y91540D01*
Y86460D01*
X-412951Y86432D01*
X-413641Y86348D01*
X-414314Y86208D01*
X-414971Y86013D01*
X-415610Y85761D01*
X-416233Y85454D01*
X-416840Y85091D01*
X-417429Y84672D01*
X-418002Y84197D01*
X-418558Y83666D01*
Y94334D01*
X-418002Y93803D01*
D02*
G37*
G36*
X-94938Y-40043D02*
X-94381Y-40511D01*
X-93822Y-40924D01*
X-93260Y-41281D01*
X-92694Y-41582D01*
X-92126Y-41827D01*
X-91555Y-42017D01*
X-90981Y-42150D01*
X-90405Y-42228D01*
X-89825Y-42250D01*
X-97250Y-49675D01*
X-97272Y-49095D01*
X-97350Y-48519D01*
X-97483Y-47945D01*
X-97673Y-47374D01*
X-97918Y-46806D01*
X-98219Y-46240D01*
X-98576Y-45678D01*
X-98989Y-45119D01*
X-99457Y-44562D01*
X-99982Y-44008D01*
X-95492Y-39518D01*
X-94938Y-40043D01*
D02*
G37*
G36*
X-120612Y-40258D02*
X-120072Y-40683D01*
X-119506Y-41057D01*
X-118915Y-41380D01*
X-118298Y-41652D01*
X-117655Y-41874D01*
X-116986Y-42044D01*
X-116291Y-42164D01*
X-115571Y-42232D01*
X-114825Y-42250D01*
X-122250Y-49675D01*
X-122268Y-48929D01*
X-122336Y-48209D01*
X-122456Y-47514D01*
X-122626Y-46845D01*
X-122848Y-46203D01*
X-123120Y-45585D01*
X-123443Y-44994D01*
X-123817Y-44428D01*
X-124242Y-43888D01*
X-124718Y-43374D01*
X-121126Y-39782D01*
X-120612Y-40258D01*
D02*
G37*
G36*
X-154782Y-43374D02*
X-155258Y-43888D01*
X-155683Y-44428D01*
X-156057Y-44994D01*
X-156380Y-45585D01*
X-156652Y-46203D01*
X-156874Y-46845D01*
X-157044Y-47514D01*
X-157164Y-48209D01*
X-157233Y-48929D01*
X-157250Y-49675D01*
X-164675Y-42250D01*
X-163929Y-42232D01*
X-163209Y-42164D01*
X-162514Y-42044D01*
X-161845Y-41874D01*
X-161203Y-41652D01*
X-160585Y-41380D01*
X-159994Y-41057D01*
X-159428Y-40683D01*
X-158888Y-40258D01*
X-158374Y-39782D01*
X-154782Y-43374D01*
D02*
G37*
G36*
X90568Y43049D02*
X90652Y42359D01*
X90791Y41686D01*
X90987Y41030D01*
X91238Y40390D01*
X91546Y39767D01*
X91909Y39160D01*
X92328Y38571D01*
X92803Y37998D01*
X93334Y37442D01*
X82666Y37442D01*
X83197Y37998D01*
X83672Y38571D01*
X84091Y39160D01*
X84454Y39767D01*
X84761Y40390D01*
X85013Y41030D01*
X85209Y41686D01*
X85348Y42359D01*
X85432Y43049D01*
X85460Y43756D01*
X90540Y43756D01*
X90568Y43049D01*
D02*
G37*
G36*
X138568Y60049D02*
X138652Y59359D01*
X138792Y58686D01*
X138987Y58029D01*
X139239Y57390D01*
X139546Y56767D01*
X139909Y56160D01*
X140328Y55571D01*
X140803Y54998D01*
X141334Y54442D01*
X130666D01*
X131197Y54998D01*
X131672Y55571D01*
X132091Y56160D01*
X132454Y56767D01*
X132761Y57390D01*
X133013Y58029D01*
X133209Y58686D01*
X133348Y59359D01*
X133432Y60049D01*
X133460Y60756D01*
X138540D01*
X138568Y60049D01*
D02*
G37*
G36*
X92735Y56104D02*
X92274Y55546D01*
X91868Y54970D01*
X91516Y54377D01*
X91217Y53766D01*
X90974Y53137D01*
X90784Y52490D01*
X90648Y51825D01*
X90567Y51143D01*
X90540Y50443D01*
X85460D01*
X85433Y51143D01*
X85352Y51825D01*
X85216Y52490D01*
X85026Y53137D01*
X84782Y53766D01*
X84484Y54377D01*
X84132Y54970D01*
X83726Y55546D01*
X83265Y56104D01*
X82750Y56644D01*
X93250D01*
X92735Y56104D01*
D02*
G37*
G36*
X190503Y58629D02*
X191050Y58200D01*
X191625Y57823D01*
X192227Y57497D01*
X192857Y57222D01*
X193515Y56999D01*
X194201Y56827D01*
X194914Y56707D01*
X195655Y56638D01*
X196424Y56620D01*
X188880Y49076D01*
X188862Y49845D01*
X188793Y50586D01*
X188673Y51299D01*
X188501Y51985D01*
X188278Y52642D01*
X188003Y53273D01*
X187677Y53875D01*
X187300Y54450D01*
X186871Y54997D01*
X186391Y55517D01*
X189983Y59109D01*
X190503Y58629D01*
D02*
G37*
G36*
X5896Y-220765D02*
X6454Y-221226D01*
X7030Y-221632D01*
X7623Y-221984D01*
X8234Y-222283D01*
X8863Y-222526D01*
X9510Y-222716D01*
X10175Y-222852D01*
X10857Y-222933D01*
X11557Y-222960D01*
Y-228040D01*
X10857Y-228067D01*
X10175Y-228148D01*
X9510Y-228284D01*
X8863Y-228474D01*
X8234Y-228717D01*
X7623Y-229016D01*
X7030Y-229368D01*
X6454Y-229774D01*
X5896Y-230235D01*
X5356Y-230750D01*
Y-220250D01*
X5896Y-220765D01*
D02*
G37*
G36*
X93208Y-433221D02*
X86792D01*
X86798Y-433183D01*
X86804Y-433077D01*
X86825Y-429750D01*
X93175D01*
X93208Y-433221D01*
D02*
G37*
G36*
X-86804Y-429468D02*
X-86742Y-430192D01*
X-86638Y-430880D01*
X-86493Y-431530D01*
X-86306Y-432142D01*
X-86078Y-432718D01*
X-85808Y-433255D01*
X-85497Y-433755D01*
X-85144Y-434218D01*
X-84750Y-434644D01*
X-95250D01*
X-94856Y-434218D01*
X-94503Y-433755D01*
X-94192Y-433255D01*
X-93922Y-432718D01*
X-93694Y-432142D01*
X-93507Y-431530D01*
X-93362Y-430880D01*
X-93258Y-430192D01*
X-93196Y-429468D01*
X-93175Y-428705D01*
X-86825D01*
X-86804Y-429468D01*
D02*
G37*
G36*
X-111804D02*
X-111742Y-430192D01*
X-111638Y-430880D01*
X-111493Y-431530D01*
X-111306Y-432142D01*
X-111078Y-432718D01*
X-110808Y-433255D01*
X-110497Y-433755D01*
X-110144Y-434218D01*
X-109750Y-434644D01*
X-120250D01*
X-119856Y-434218D01*
X-119503Y-433755D01*
X-119192Y-433255D01*
X-118922Y-432718D01*
X-118694Y-432142D01*
X-118507Y-431530D01*
X-118362Y-430880D01*
X-118258Y-430192D01*
X-118196Y-429468D01*
X-118175Y-428705D01*
X-111825D01*
X-111804Y-429468D01*
D02*
G37*
G36*
X99924Y-415633D02*
X99557Y-416111D01*
X99233Y-416626D01*
X98952Y-417177D01*
X98715Y-417764D01*
X98520Y-418388D01*
X98369Y-419049D01*
X98261Y-419745D01*
X98197Y-420479D01*
X98175Y-421249D01*
X91825D01*
X91803Y-420479D01*
X91739Y-419745D01*
X91631Y-419049D01*
X91480Y-418388D01*
X91285Y-417764D01*
X91048Y-417177D01*
X90767Y-416626D01*
X90443Y-416111D01*
X90076Y-415633D01*
X89666Y-415192D01*
X100334D01*
X99924Y-415633D01*
D02*
G37*
G36*
X89558Y-415084D02*
X89117Y-414674D01*
X88639Y-414307D01*
X88124Y-413983D01*
X87573Y-413702D01*
X86986Y-413465D01*
X86362Y-413270D01*
X85701Y-413119D01*
X85004Y-413011D01*
X84271Y-412947D01*
X83501Y-412925D01*
Y-406575D01*
X84271Y-406553D01*
X85004Y-406489D01*
X85701Y-406381D01*
X86362Y-406230D01*
X86986Y-406035D01*
X87573Y-405798D01*
X88124Y-405517D01*
X88639Y-405193D01*
X89117Y-404826D01*
X89558Y-404416D01*
Y-415084D01*
D02*
G37*
G36*
X-71576Y-415370D02*
X-72179Y-415392D01*
X-72776Y-415470D01*
X-73369Y-415605D01*
X-73957Y-415796D01*
X-74540Y-416044D01*
X-75119Y-416348D01*
X-75693Y-416708D01*
X-76262Y-417124D01*
X-76826Y-417597D01*
X-77386Y-418126D01*
X-81876Y-413636D01*
X-81347Y-413076D01*
X-80874Y-412512D01*
X-80458Y-411943D01*
X-80098Y-411369D01*
X-79794Y-410790D01*
X-79546Y-410207D01*
X-79355Y-409619D01*
X-79220Y-409026D01*
X-79142Y-408428D01*
X-79120Y-407826D01*
X-71576Y-415370D01*
D02*
G37*
G36*
X-110076Y-413633D02*
X-110443Y-414111D01*
X-110767Y-414626D01*
X-111048Y-415177D01*
X-111285Y-415764D01*
X-111480Y-416388D01*
X-111631Y-417049D01*
X-111739Y-417746D01*
X-111803Y-418479D01*
X-111825Y-419249D01*
X-118175D01*
X-118197Y-418479D01*
X-118261Y-417746D01*
X-118369Y-417049D01*
X-118520Y-416388D01*
X-118715Y-415764D01*
X-118952Y-415177D01*
X-119233Y-414626D01*
X-119557Y-414111D01*
X-119924Y-413633D01*
X-120334Y-413192D01*
X-109666D01*
X-110076Y-413633D01*
D02*
G37*
G36*
X-60265Y-445896D02*
X-60726Y-446454D01*
X-61132Y-447030D01*
X-61484Y-447623D01*
X-61782Y-448234D01*
X-62026Y-448863D01*
X-62216Y-449510D01*
X-62352Y-450175D01*
X-62433Y-450857D01*
X-62460Y-451557D01*
X-67540D01*
X-67567Y-450857D01*
X-67648Y-450175D01*
X-67784Y-449510D01*
X-67974Y-448863D01*
X-68218Y-448234D01*
X-68516Y-447623D01*
X-68868Y-447030D01*
X-69274Y-446454D01*
X-69735Y-445896D01*
X-70250Y-445356D01*
X-59750D01*
X-60265Y-445896D01*
D02*
G37*
G36*
X-62432Y-459451D02*
X-62348Y-460141D01*
X-62208Y-460814D01*
X-62013Y-461470D01*
X-61761Y-462110D01*
X-61454Y-462733D01*
X-61091Y-463340D01*
X-60672Y-463929D01*
X-60197Y-464502D01*
X-59666Y-465058D01*
X-70334D01*
X-69803Y-464502D01*
X-69328Y-463929D01*
X-68909Y-463340D01*
X-68546Y-462733D01*
X-68239Y-462110D01*
X-67987Y-461470D01*
X-67792Y-460814D01*
X-67652Y-460141D01*
X-67568Y-459451D01*
X-67540Y-458744D01*
X-62460D01*
X-62432Y-459451D01*
D02*
G37*
G36*
X-57362Y-471345D02*
X-57293Y-472086D01*
X-57173Y-472799D01*
X-57001Y-473484D01*
X-56778Y-474142D01*
X-56503Y-474773D01*
X-56177Y-475375D01*
X-55800Y-475950D01*
X-55371Y-476497D01*
X-54891Y-477017D01*
X-58483Y-480609D01*
X-59003Y-480129D01*
X-59550Y-479700D01*
X-60125Y-479323D01*
X-60727Y-478997D01*
X-61357Y-478722D01*
X-62015Y-478499D01*
X-62701Y-478327D01*
X-63414Y-478207D01*
X-64155Y-478138D01*
X-64924Y-478120D01*
X-57380Y-470576D01*
X-57362Y-471345D01*
D02*
G37*
G36*
X64925Y-447500D02*
X64179Y-447518D01*
X63459Y-447586D01*
X62764Y-447706D01*
X62095Y-447876D01*
X61452Y-448098D01*
X60835Y-448370D01*
X60244Y-448693D01*
X59678Y-449067D01*
X59138Y-449492D01*
X58624Y-449968D01*
X55032Y-446376D01*
X55508Y-445862D01*
X55933Y-445322D01*
X56307Y-444756D01*
X56630Y-444165D01*
X56902Y-443548D01*
X57124Y-442905D01*
X57294Y-442236D01*
X57414Y-441541D01*
X57483Y-440821D01*
X57500Y-440075D01*
X64925Y-447500D01*
D02*
G37*
G36*
X58204Y-426123D02*
X58186Y-426837D01*
X58231Y-427528D01*
X58339Y-428196D01*
X58510Y-428841D01*
X58745Y-429464D01*
X59042Y-430063D01*
X59403Y-430639D01*
X59553Y-430834D01*
X59678Y-430933D01*
X60244Y-431307D01*
X60835Y-431630D01*
X61452Y-431902D01*
X62095Y-432124D01*
X62764Y-432294D01*
X63459Y-432414D01*
X64179Y-432482D01*
X64925Y-432500D01*
X57500Y-439925D01*
X57483Y-439179D01*
X57414Y-438459D01*
X57294Y-437764D01*
X57124Y-437095D01*
X56902Y-436452D01*
X56630Y-435835D01*
X56307Y-435244D01*
X55933Y-434678D01*
X55571Y-434219D01*
X55143Y-433873D01*
X54577Y-433479D01*
X53980Y-433124D01*
X53353Y-432808D01*
X52696Y-432530D01*
X52009Y-432291D01*
X51291Y-432090D01*
X50543Y-431929D01*
X49765Y-431806D01*
X58285Y-425386D01*
X58204Y-426123D01*
D02*
G37*
G36*
X120781Y-435144D02*
X121244Y-435497D01*
X121745Y-435808D01*
X122282Y-436078D01*
X122858Y-436306D01*
X123470Y-436493D01*
X124120Y-436638D01*
X124808Y-436742D01*
X125533Y-436804D01*
X126295Y-436825D01*
Y-443175D01*
X125533Y-443196D01*
X124808Y-443258D01*
X124120Y-443362D01*
X123470Y-443507D01*
X122858Y-443694D01*
X122282Y-443922D01*
X121745Y-444192D01*
X121244Y-444503D01*
X120781Y-444856D01*
X120356Y-445250D01*
Y-434750D01*
X120781Y-435144D01*
D02*
G37*
G36*
X172558Y-445334D02*
X172117Y-444924D01*
X171639Y-444557D01*
X171124Y-444233D01*
X170573Y-443952D01*
X169986Y-443715D01*
X169362Y-443520D01*
X168701Y-443369D01*
X168004Y-443261D01*
X167271Y-443197D01*
X166501Y-443175D01*
Y-436825D01*
X167271Y-436803D01*
X168004Y-436739D01*
X168701Y-436631D01*
X169362Y-436480D01*
X169986Y-436285D01*
X170573Y-436048D01*
X171124Y-435767D01*
X171639Y-435443D01*
X172117Y-435076D01*
X172558Y-434666D01*
Y-445334D01*
D02*
G37*
G36*
X40383Y-400076D02*
X40861Y-400443D01*
X41376Y-400767D01*
X41927Y-401048D01*
X42514Y-401285D01*
X43138Y-401479D01*
X43799Y-401631D01*
X44496Y-401739D01*
X45229Y-401803D01*
X45999Y-401825D01*
Y-408175D01*
X45229Y-408196D01*
X44496Y-408261D01*
X43799Y-408369D01*
X43138Y-408520D01*
X42514Y-408715D01*
X41927Y-408952D01*
X41376Y-409233D01*
X40861Y-409557D01*
X40383Y-409924D01*
X39942Y-410334D01*
Y-399666D01*
X40383Y-400076D01*
D02*
G37*
G36*
X154058Y-284834D02*
X153502Y-284303D01*
X152929Y-283828D01*
X152340Y-283409D01*
X151733Y-283046D01*
X151110Y-282738D01*
X150471Y-282487D01*
X149814Y-282292D01*
X149141Y-282152D01*
X148451Y-282068D01*
X147744Y-282040D01*
Y-276960D01*
X148451Y-276932D01*
X149141Y-276848D01*
X149814Y-276709D01*
X150471Y-276513D01*
X151110Y-276262D01*
X151733Y-275954D01*
X152340Y-275591D01*
X152929Y-275172D01*
X153502Y-274697D01*
X154058Y-274166D01*
Y-284834D01*
D02*
G37*
G36*
X-105326Y-286133D02*
X-105693Y-286611D01*
X-106017Y-287126D01*
X-106298Y-287677D01*
X-106535Y-288264D01*
X-106730Y-288888D01*
X-106881Y-289549D01*
X-106989Y-290246D01*
X-107053Y-290979D01*
X-107075Y-291749D01*
X-113425D01*
X-113447Y-290979D01*
X-113511Y-290246D01*
X-113619Y-289549D01*
X-113770Y-288888D01*
X-113965Y-288264D01*
X-114202Y-287677D01*
X-114483Y-287126D01*
X-114807Y-286611D01*
X-115174Y-286133D01*
X-115584Y-285692D01*
X-104916D01*
X-105326Y-286133D01*
D02*
G37*
G36*
X279376Y-300114D02*
X278847Y-300674D01*
X278374Y-301238D01*
X277958Y-301807D01*
X277597Y-302381D01*
X277294Y-302960D01*
X277046Y-303543D01*
X276855Y-304131D01*
X276720Y-304724D01*
X276642Y-305322D01*
X276620Y-305924D01*
X269076Y-298380D01*
X269678Y-298358D01*
X270276Y-298280D01*
X270869Y-298145D01*
X271457Y-297954D01*
X272040Y-297706D01*
X272619Y-297403D01*
X273193Y-297042D01*
X273762Y-296626D01*
X274326Y-296153D01*
X274886Y-295624D01*
X279376Y-300114D01*
D02*
G37*
G36*
X5896Y-274765D02*
X6454Y-275226D01*
X7030Y-275632D01*
X7623Y-275984D01*
X8234Y-276283D01*
X8863Y-276526D01*
X9510Y-276716D01*
X10175Y-276852D01*
X10857Y-276933D01*
X11557Y-276960D01*
Y-282040D01*
X10857Y-282067D01*
X10175Y-282148D01*
X9510Y-282284D01*
X8863Y-282474D01*
X8234Y-282717D01*
X7623Y-283016D01*
X7030Y-283368D01*
X6454Y-283774D01*
X5896Y-284235D01*
X5356Y-284750D01*
Y-274250D01*
X5896Y-274765D01*
D02*
G37*
G36*
X154058Y-230834D02*
X153502Y-230303D01*
X152929Y-229828D01*
X152340Y-229409D01*
X151733Y-229046D01*
X151110Y-228738D01*
X150471Y-228487D01*
X149814Y-228291D01*
X149141Y-228152D01*
X148451Y-228068D01*
X147744Y-228040D01*
Y-222960D01*
X148451Y-222932D01*
X149141Y-222848D01*
X149814Y-222708D01*
X150471Y-222513D01*
X151110Y-222262D01*
X151733Y-221954D01*
X152340Y-221591D01*
X152929Y-221172D01*
X153502Y-220697D01*
X154058Y-220166D01*
Y-230834D01*
D02*
G37*
G36*
X5896Y-249765D02*
X6454Y-250226D01*
X7030Y-250632D01*
X7623Y-250984D01*
X8234Y-251283D01*
X8863Y-251526D01*
X9510Y-251716D01*
X10175Y-251852D01*
X10857Y-251933D01*
X11557Y-251960D01*
Y-257040D01*
X10857Y-257067D01*
X10175Y-257148D01*
X9510Y-257284D01*
X8863Y-257474D01*
X8234Y-257717D01*
X7623Y-258016D01*
X7030Y-258368D01*
X6454Y-258774D01*
X5896Y-259235D01*
X5356Y-259750D01*
Y-249250D01*
X5896Y-249765D01*
D02*
G37*
G36*
X154058Y-259834D02*
X153502Y-259303D01*
X152929Y-258828D01*
X152340Y-258409D01*
X151733Y-258046D01*
X151110Y-257738D01*
X150471Y-257487D01*
X149814Y-257292D01*
X149141Y-257152D01*
X148451Y-257068D01*
X147744Y-257040D01*
Y-251960D01*
X148451Y-251932D01*
X149141Y-251848D01*
X149814Y-251709D01*
X150471Y-251513D01*
X151110Y-251262D01*
X151733Y-250954D01*
X152340Y-250591D01*
X152929Y-250172D01*
X153502Y-249697D01*
X154058Y-249166D01*
Y-259834D01*
D02*
G37*
G36*
X2562Y-357853D02*
X2627Y-358485D01*
X2737Y-359093D01*
X2890Y-359678D01*
X3086Y-360238D01*
X3327Y-360774D01*
X3611Y-361287D01*
X3938Y-361775D01*
X4310Y-362239D01*
X4725Y-362679D01*
X-4725D01*
X-4310Y-362239D01*
X-3938Y-361775D01*
X-3611Y-361287D01*
X-3327Y-360774D01*
X-3086Y-360238D01*
X-2890Y-359678D01*
X-2737Y-359093D01*
X-2627Y-358485D01*
X-2562Y-357853D01*
X-2540Y-357196D01*
X2540D01*
X2562Y-357853D01*
D02*
G37*
G36*
X-92224Y-361751D02*
X-95128Y-365103D01*
X-96308Y-366701D01*
X-97306Y-368248D01*
X-98123Y-369744D01*
X-98758Y-371187D01*
X-99212Y-372580D01*
X-99484Y-373920D01*
X-99575Y-375210D01*
X-105925D01*
X-106016Y-373920D01*
X-106288Y-372580D01*
X-106742Y-371187D01*
X-107377Y-369744D01*
X-108194Y-368248D01*
X-109192Y-366701D01*
X-110372Y-365103D01*
X-111733Y-363452D01*
X-115000Y-359997D01*
X-90500D01*
X-92224Y-361751D01*
D02*
G37*
G36*
X-104624Y-401864D02*
X-105153Y-402424D01*
X-105626Y-402988D01*
X-106042Y-403557D01*
X-106403Y-404131D01*
X-106706Y-404710D01*
X-106954Y-405293D01*
X-107145Y-405881D01*
X-107280Y-406474D01*
X-107358Y-407071D01*
X-107380Y-407674D01*
X-114924Y-400130D01*
X-114321Y-400108D01*
X-113724Y-400030D01*
X-113131Y-399895D01*
X-112543Y-399704D01*
X-111960Y-399456D01*
X-111381Y-399152D01*
X-110807Y-398792D01*
X-110238Y-398376D01*
X-109674Y-397903D01*
X-109114Y-397374D01*
X-104624Y-401864D01*
D02*
G37*
G36*
X-99484Y-321080D02*
X-99212Y-322420D01*
X-98758Y-323813D01*
X-98123Y-325256D01*
X-97306Y-326752D01*
X-96308Y-328299D01*
X-95128Y-329897D01*
X-93767Y-331548D01*
X-90500Y-335003D01*
X-115000D01*
X-113276Y-333249D01*
X-110372Y-329897D01*
X-109192Y-328299D01*
X-108194Y-326752D01*
X-107377Y-325256D01*
X-106742Y-323813D01*
X-106288Y-322420D01*
X-106016Y-321080D01*
X-105925Y-319790D01*
X-99575D01*
X-99484Y-321080D01*
D02*
G37*
G36*
X-19947Y-315998D02*
X-20422Y-316571D01*
X-20841Y-317160D01*
X-21204Y-317767D01*
X-21511Y-318390D01*
X-21763Y-319030D01*
X-21958Y-319686D01*
X-22098Y-320359D01*
X-22182Y-321049D01*
X-22210Y-321756D01*
X-27290D01*
X-27318Y-321049D01*
X-27402Y-320359D01*
X-27541Y-319686D01*
X-27737Y-319030D01*
X-27989Y-318390D01*
X-28296Y-317767D01*
X-28659Y-317160D01*
X-29078Y-316571D01*
X-29553Y-315998D01*
X-30084Y-315442D01*
X-19416D01*
X-19947Y-315998D01*
D02*
G37*
G36*
X4168Y-326799D02*
X3826Y-327232D01*
X3525Y-327691D01*
X3264Y-328176D01*
X3043Y-328687D01*
X2862Y-329225D01*
X2721Y-329788D01*
X2620Y-330377D01*
X2560Y-330992D01*
X2540Y-331633D01*
X-2540D01*
X-2560Y-330992D01*
X-2620Y-330377D01*
X-2721Y-329788D01*
X-2862Y-329225D01*
X-3043Y-328687D01*
X-3264Y-328176D01*
X-3525Y-327691D01*
X-3826Y-327232D01*
X-4168Y-326799D01*
X-4550Y-326392D01*
X4550D01*
X4168Y-326799D01*
D02*
G37*
G36*
X-22954Y-333796D02*
X-23531Y-334410D01*
X-24020Y-335010D01*
X-24422Y-335597D01*
X-24736Y-336170D01*
X-24962Y-336730D01*
X-25101Y-337275D01*
X-25152Y-337808D01*
X-25115Y-338326D01*
X-24991Y-338831D01*
X-24779Y-339322D01*
X-32072Y-332029D01*
X-31581Y-332241D01*
X-31076Y-332365D01*
X-30557Y-332402D01*
X-30025Y-332351D01*
X-29480Y-332212D01*
X-28920Y-331986D01*
X-28347Y-331672D01*
X-27761Y-331270D01*
X-27160Y-330781D01*
X-26546Y-330204D01*
X-22954Y-333796D01*
D02*
G37*
G36*
X2567Y167857D02*
X2648Y167175D01*
X2784Y166510D01*
X2974Y165863D01*
X3217Y165234D01*
X3516Y164623D01*
X3868Y164030D01*
X4274Y163454D01*
X4735Y162896D01*
X5250Y162356D01*
X-5250D01*
X-4735Y162896D01*
X-4274Y163454D01*
X-3868Y164030D01*
X-3516Y164623D01*
X-3217Y165234D01*
X-2974Y165863D01*
X-2784Y166510D01*
X-2648Y167175D01*
X-2567Y167857D01*
X-2540Y168557D01*
X2540D01*
X2567Y167857D01*
D02*
G37*
G36*
X-129738Y163530D02*
X-129668Y162789D01*
X-129548Y162076D01*
X-129376Y161390D01*
X-129153Y160732D01*
X-128878Y160102D01*
X-128552Y159500D01*
X-128175Y158925D01*
X-127746Y158378D01*
X-127266Y157858D01*
X-130858Y154266D01*
X-131378Y154746D01*
X-131925Y155175D01*
X-132500Y155552D01*
X-133102Y155878D01*
X-133733Y156153D01*
X-134390Y156376D01*
X-135076Y156548D01*
X-135789Y156668D01*
X-136530Y156737D01*
X-137299Y156755D01*
X-129755Y164299D01*
X-129738Y163530D01*
D02*
G37*
G36*
X-137451Y156755D02*
X-138220Y156737D01*
X-138961Y156668D01*
X-139674Y156548D01*
X-140360Y156376D01*
X-141018Y156153D01*
X-141648Y155878D01*
X-142250Y155552D01*
X-142825Y155175D01*
X-143372Y154746D01*
X-143892Y154266D01*
X-147484Y157858D01*
X-147004Y158378D01*
X-146575Y158925D01*
X-146198Y159500D01*
X-145872Y160102D01*
X-145597Y160732D01*
X-145374Y161390D01*
X-145202Y162076D01*
X-145082Y162789D01*
X-145013Y163530D01*
X-144995Y164299D01*
X-137451Y156755D01*
D02*
G37*
G36*
X-317076Y171880D02*
X-317845Y171863D01*
X-318586Y171793D01*
X-319299Y171673D01*
X-319985Y171501D01*
X-320643Y171278D01*
X-321273Y171003D01*
X-321875Y170677D01*
X-322450Y170300D01*
X-322997Y169871D01*
X-323517Y169391D01*
X-327109Y172983D01*
X-326629Y173503D01*
X-326200Y174050D01*
X-325823Y174625D01*
X-325497Y175227D01*
X-325222Y175858D01*
X-324999Y176516D01*
X-324827Y177201D01*
X-324707Y177914D01*
X-324637Y178655D01*
X-324620Y179424D01*
X-317076Y171880D01*
D02*
G37*
G36*
X5998Y189803D02*
X6571Y189328D01*
X7160Y188909D01*
X7767Y188546D01*
X8390Y188239D01*
X9029Y187987D01*
X9686Y187792D01*
X10359Y187652D01*
X11049Y187568D01*
X11756Y187540D01*
Y182460D01*
X11049Y182432D01*
X10359Y182348D01*
X9686Y182209D01*
X9029Y182013D01*
X8390Y181761D01*
X7767Y181454D01*
X7160Y181091D01*
X6571Y180672D01*
X5998Y180197D01*
X5442Y179666D01*
Y190334D01*
X5998Y189803D01*
D02*
G37*
G36*
X-311002Y184303D02*
X-310429Y183828D01*
X-309840Y183409D01*
X-309233Y183046D01*
X-308610Y182738D01*
X-307971Y182487D01*
X-307314Y182292D01*
X-306641Y182152D01*
X-305951Y182068D01*
X-305244Y182040D01*
Y176960D01*
X-305951Y176932D01*
X-306641Y176848D01*
X-307314Y176709D01*
X-307971Y176513D01*
X-308610Y176262D01*
X-309233Y175954D01*
X-309840Y175591D01*
X-310429Y175172D01*
X-311002Y174697D01*
X-311558Y174166D01*
Y184834D01*
X-311002Y184303D01*
D02*
G37*
G36*
X4803Y179002D02*
X4328Y178429D01*
X3909Y177840D01*
X3546Y177233D01*
X3239Y176610D01*
X2987Y175970D01*
X2792Y175314D01*
X2652Y174641D01*
X2568Y173951D01*
X2540Y173244D01*
X-2540D01*
X-2568Y173951D01*
X-2652Y174641D01*
X-2792Y175314D01*
X-2987Y175970D01*
X-3239Y176610D01*
X-3546Y177233D01*
X-3909Y177840D01*
X-4328Y178429D01*
X-4803Y179002D01*
X-5334Y179558D01*
X5334D01*
X4803Y179002D01*
D02*
G37*
G36*
X-116542Y147150D02*
X-114995Y145844D01*
X-114458Y145452D01*
X-113352Y144732D01*
X-112783Y144404D01*
X-111614Y143813D01*
X-121422Y140426D01*
X-121165Y141005D01*
X-120992Y141581D01*
X-120903Y142153D01*
X-120897Y142720D01*
X-120976Y143282D01*
X-121138Y143841D01*
X-121384Y144395D01*
X-121713Y144945D01*
X-122127Y145491D01*
X-122625Y146033D01*
X-117036Y147628D01*
X-116542Y147150D01*
D02*
G37*
G36*
X433888Y146492D02*
X434428Y146067D01*
X434994Y145693D01*
X435585Y145370D01*
X436203Y145098D01*
X436846Y144876D01*
X437514Y144706D01*
X438209Y144586D01*
X438929Y144517D01*
X439675Y144500D01*
X432250Y137075D01*
X432233Y137821D01*
X432164Y138541D01*
X432044Y139236D01*
X431874Y139904D01*
X431652Y140548D01*
X431380Y141165D01*
X431057Y141756D01*
X430683Y142322D01*
X430258Y142862D01*
X429782Y143376D01*
X433374Y146968D01*
X433888Y146492D01*
D02*
G37*
G36*
X369968Y143376D02*
X369492Y142862D01*
X369067Y142322D01*
X368693Y141756D01*
X368370Y141165D01*
X368098Y140548D01*
X367876Y139904D01*
X367706Y139236D01*
X367586Y138541D01*
X367518Y137821D01*
X367500Y137075D01*
X360075Y144500D01*
X360821Y144517D01*
X361541Y144586D01*
X362236Y144706D01*
X362905Y144876D01*
X363548Y145098D01*
X364165Y145370D01*
X364756Y145693D01*
X365322Y146067D01*
X365862Y146492D01*
X366376Y146968D01*
X369968Y143376D01*
D02*
G37*
G36*
X-87183Y147857D02*
X-87102Y147175D01*
X-86966Y146510D01*
X-86776Y145863D01*
X-86532Y145234D01*
X-86234Y144623D01*
X-85882Y144030D01*
X-85476Y143454D01*
X-85015Y142896D01*
X-84500Y142356D01*
X-95000D01*
X-94485Y142896D01*
X-94024Y143454D01*
X-93618Y144030D01*
X-93266Y144623D01*
X-92968Y145234D01*
X-92724Y145863D01*
X-92534Y146510D01*
X-92398Y147175D01*
X-92317Y147857D01*
X-92290Y148557D01*
X-87210D01*
X-87183Y147857D01*
D02*
G37*
G36*
X30896Y161735D02*
X31454Y161274D01*
X32030Y160868D01*
X32623Y160516D01*
X33234Y160217D01*
X33863Y159974D01*
X34510Y159784D01*
X35175Y159648D01*
X35857Y159567D01*
X36557Y159540D01*
Y154460D01*
X35857Y154433D01*
X35175Y154352D01*
X34510Y154216D01*
X33863Y154026D01*
X33234Y153783D01*
X32623Y153484D01*
X32030Y153132D01*
X31454Y152726D01*
X30896Y152265D01*
X30356Y151750D01*
Y162250D01*
X30896Y161735D01*
D02*
G37*
G36*
X-17483Y156179D02*
X-17414Y155459D01*
X-17294Y154764D01*
X-17124Y154095D01*
X-16902Y153453D01*
X-16630Y152835D01*
X-16307Y152244D01*
X-15933Y151678D01*
X-15508Y151138D01*
X-15032Y150624D01*
X-18624Y147032D01*
X-19138Y147508D01*
X-19678Y147933D01*
X-20244Y148307D01*
X-20835Y148630D01*
X-21453Y148902D01*
X-22095Y149124D01*
X-22764Y149294D01*
X-23459Y149414D01*
X-24179Y149482D01*
X-24925Y149500D01*
X-17500Y156925D01*
X-17483Y156179D01*
D02*
G37*
G36*
X312567Y147857D02*
X312648Y147175D01*
X312784Y146510D01*
X312974Y145863D01*
X313218Y145234D01*
X313516Y144623D01*
X313868Y144030D01*
X314274Y143454D01*
X314735Y142896D01*
X315250Y142356D01*
X304750D01*
X305265Y142896D01*
X305726Y143454D01*
X306132Y144030D01*
X306484Y144623D01*
X306782Y145234D01*
X307026Y145863D01*
X307216Y146510D01*
X307352Y147175D01*
X307433Y147857D01*
X307460Y148557D01*
X312540D01*
X312567Y147857D01*
D02*
G37*
G36*
X-314432Y190550D02*
X-314348Y189859D01*
X-314209Y189186D01*
X-314013Y188530D01*
X-313762Y187890D01*
X-313454Y187267D01*
X-313091Y186660D01*
X-312672Y186071D01*
X-312197Y185498D01*
X-311666Y184942D01*
X-322334D01*
X-321803Y185498D01*
X-321328Y186071D01*
X-320909Y186660D01*
X-320546Y187267D01*
X-320238Y187890D01*
X-319987Y188530D01*
X-319792Y189186D01*
X-319652Y189859D01*
X-319568Y190550D01*
X-319540Y191256D01*
X-314460D01*
X-314432Y190550D01*
D02*
G37*
G36*
X67998Y242303D02*
X68571Y241828D01*
X69160Y241409D01*
X69767Y241046D01*
X70390Y240739D01*
X71030Y240487D01*
X71686Y240292D01*
X72359Y240152D01*
X73049Y240068D01*
X73756Y240040D01*
Y234960D01*
X73049Y234932D01*
X72359Y234848D01*
X71686Y234708D01*
X71030Y234513D01*
X70390Y234261D01*
X69767Y233954D01*
X69160Y233591D01*
X68571Y233172D01*
X67998Y232697D01*
X67442Y232166D01*
Y242834D01*
X67998Y242303D01*
D02*
G37*
G36*
X220998Y240803D02*
X221571Y240328D01*
X222160Y239909D01*
X222767Y239546D01*
X223390Y239238D01*
X224030Y238987D01*
X224686Y238792D01*
X225359Y238652D01*
X226049Y238568D01*
X226756Y238540D01*
Y233460D01*
X226049Y233432D01*
X225359Y233348D01*
X224686Y233209D01*
X224030Y233013D01*
X223390Y232761D01*
X222767Y232454D01*
X222160Y232091D01*
X221571Y231672D01*
X220998Y231197D01*
X220442Y230666D01*
Y241334D01*
X220998Y240803D01*
D02*
G37*
G36*
X-89432Y223549D02*
X-89348Y222859D01*
X-89208Y222186D01*
X-89013Y221530D01*
X-88762Y220890D01*
X-88454Y220267D01*
X-88091Y219660D01*
X-87672Y219071D01*
X-87197Y218498D01*
X-86666Y217942D01*
X-97334D01*
X-96803Y218498D01*
X-96328Y219071D01*
X-95909Y219660D01*
X-95546Y220267D01*
X-95239Y220890D01*
X-94987Y221530D01*
X-94791Y222186D01*
X-94652Y222859D01*
X-94568Y223549D01*
X-94540Y224256D01*
X-89460D01*
X-89432Y223549D01*
D02*
G37*
G36*
X-255891Y246517D02*
X-256371Y245997D01*
X-256800Y245450D01*
X-257177Y244875D01*
X-257503Y244273D01*
X-257778Y243643D01*
X-258001Y242985D01*
X-258173Y242299D01*
X-258293Y241586D01*
X-258363Y240845D01*
X-258380Y240076D01*
X-265924Y247620D01*
X-265155Y247638D01*
X-264414Y247707D01*
X-263701Y247827D01*
X-263015Y247999D01*
X-262358Y248222D01*
X-261727Y248497D01*
X-261125Y248823D01*
X-260550Y249200D01*
X-260003Y249629D01*
X-259483Y250109D01*
X-255891Y246517D01*
D02*
G37*
G36*
X-180891Y356517D02*
X-181371Y355997D01*
X-181800Y355450D01*
X-182177Y354875D01*
X-182503Y354273D01*
X-182778Y353642D01*
X-183001Y352985D01*
X-183173Y352299D01*
X-183293Y351586D01*
X-183363Y350845D01*
X-183380Y350076D01*
X-190924Y357620D01*
X-190155Y357637D01*
X-189414Y357707D01*
X-188701Y357827D01*
X-188015Y357999D01*
X-187358Y358222D01*
X-186727Y358497D01*
X-186125Y358823D01*
X-185550Y359200D01*
X-185003Y359629D01*
X-184483Y360109D01*
X-180891Y356517D01*
D02*
G37*
G36*
X-120442Y288416D02*
X-120998Y288947D01*
X-121571Y289422D01*
X-122160Y289841D01*
X-122767Y290204D01*
X-123390Y290511D01*
X-124030Y290763D01*
X-124686Y290958D01*
X-125359Y291098D01*
X-126049Y291182D01*
X-126756Y291210D01*
Y296290D01*
X-126049Y296318D01*
X-125359Y296402D01*
X-124686Y296542D01*
X-124030Y296737D01*
X-123390Y296989D01*
X-122767Y297296D01*
X-122160Y297659D01*
X-121571Y298078D01*
X-120998Y298553D01*
X-120442Y299084D01*
Y288416D01*
D02*
G37*
G36*
X71558Y249666D02*
X71002Y250197D01*
X70429Y250672D01*
X69840Y251091D01*
X69233Y251454D01*
X68610Y251761D01*
X67970Y252013D01*
X67314Y252208D01*
X66641Y252348D01*
X65951Y252432D01*
X65244Y252460D01*
Y257540D01*
X65951Y257568D01*
X66641Y257652D01*
X67314Y257792D01*
X67970Y257987D01*
X68610Y258239D01*
X69233Y258546D01*
X69840Y258909D01*
X70429Y259328D01*
X71002Y259803D01*
X71558Y260334D01*
Y249666D01*
D02*
G37*
G36*
X117803Y206502D02*
X117328Y205929D01*
X116909Y205340D01*
X116546Y204733D01*
X116238Y204110D01*
X115987Y203470D01*
X115792Y202814D01*
X115652Y202141D01*
X115568Y201451D01*
X115540Y200744D01*
X110460D01*
X110432Y201451D01*
X110348Y202141D01*
X110209Y202814D01*
X110013Y203470D01*
X109761Y204110D01*
X109454Y204733D01*
X109091Y205340D01*
X108672Y205929D01*
X108197Y206502D01*
X107666Y207058D01*
X118334D01*
X117803Y206502D01*
D02*
G37*
G36*
X-219002Y210803D02*
X-218429Y210328D01*
X-217840Y209909D01*
X-217233Y209546D01*
X-216610Y209238D01*
X-215970Y208987D01*
X-215314Y208792D01*
X-214641Y208652D01*
X-213951Y208568D01*
X-213244Y208540D01*
Y203460D01*
X-213951Y203432D01*
X-214641Y203348D01*
X-215314Y203209D01*
X-215970Y203013D01*
X-216610Y202761D01*
X-217233Y202454D01*
X-217840Y202091D01*
X-218429Y201672D01*
X-219002Y201197D01*
X-219558Y200666D01*
Y211334D01*
X-219002Y210803D01*
D02*
G37*
G36*
X334803Y203002D02*
X334328Y202429D01*
X333909Y201840D01*
X333546Y201233D01*
X333238Y200610D01*
X332987Y199970D01*
X332791Y199314D01*
X332652Y198641D01*
X332568Y197951D01*
X332540Y197244D01*
X327460D01*
X327432Y197951D01*
X327348Y198641D01*
X327209Y199314D01*
X327013Y199970D01*
X326762Y200610D01*
X326454Y201233D01*
X326091Y201840D01*
X325672Y202429D01*
X325197Y203002D01*
X324666Y203558D01*
X335334D01*
X334803Y203002D01*
D02*
G37*
G36*
X62924Y204880D02*
X62155Y204862D01*
X61414Y204793D01*
X60701Y204673D01*
X60016Y204501D01*
X59358Y204278D01*
X58727Y204003D01*
X58125Y203677D01*
X57550Y203300D01*
X57003Y202871D01*
X56483Y202391D01*
X52891Y205983D01*
X53371Y206503D01*
X53800Y207050D01*
X54177Y207625D01*
X54503Y208227D01*
X54778Y208857D01*
X55001Y209515D01*
X55173Y210201D01*
X55293Y210914D01*
X55363Y211655D01*
X55380Y212424D01*
X62924Y204880D01*
D02*
G37*
G36*
X200998Y223803D02*
X201571Y223328D01*
X202160Y222909D01*
X202767Y222546D01*
X203390Y222239D01*
X204030Y221987D01*
X204686Y221791D01*
X205359Y221652D01*
X206049Y221568D01*
X206756Y221540D01*
Y216460D01*
X206049Y216432D01*
X205359Y216348D01*
X204686Y216208D01*
X204030Y216013D01*
X203390Y215762D01*
X202767Y215454D01*
X202160Y215091D01*
X201571Y214672D01*
X200998Y214197D01*
X200442Y213666D01*
Y224334D01*
X200998Y223803D01*
D02*
G37*
G36*
X107558Y207166D02*
X107002Y207697D01*
X106429Y208172D01*
X105840Y208591D01*
X105233Y208954D01*
X104610Y209261D01*
X103970Y209513D01*
X103314Y209708D01*
X102641Y209848D01*
X101951Y209932D01*
X101244Y209960D01*
Y215040D01*
X101951Y215068D01*
X102641Y215152D01*
X103314Y215292D01*
X103970Y215487D01*
X104610Y215739D01*
X105233Y216046D01*
X105840Y216409D01*
X106429Y216828D01*
X107002Y217303D01*
X107558Y217834D01*
Y207166D01*
D02*
G37*
G36*
X68998Y217303D02*
X69571Y216828D01*
X70160Y216409D01*
X70767Y216046D01*
X71390Y215739D01*
X72030Y215487D01*
X72686Y215292D01*
X73359Y215152D01*
X74049Y215068D01*
X74756Y215040D01*
Y209960D01*
X74049Y209932D01*
X73359Y209848D01*
X72686Y209708D01*
X72030Y209513D01*
X71390Y209261D01*
X70767Y208954D01*
X70160Y208591D01*
X69571Y208172D01*
X68998Y207697D01*
X68442Y207166D01*
Y217834D01*
X68998Y217303D01*
D02*
G37*
G36*
X354138Y146492D02*
X354678Y146067D01*
X355244Y145693D01*
X355835Y145370D01*
X356452Y145098D01*
X357095Y144876D01*
X357764Y144706D01*
X358459Y144586D01*
X359179Y144517D01*
X359925Y144500D01*
X352500Y137075D01*
X352482Y137821D01*
X352414Y138541D01*
X352294Y139236D01*
X352124Y139904D01*
X351902Y140548D01*
X351630Y141165D01*
X351307Y141756D01*
X350933Y142322D01*
X350508Y142862D01*
X350032Y143376D01*
X353624Y146968D01*
X354138Y146492D01*
D02*
G37*
G36*
X-135015Y131104D02*
X-135476Y130546D01*
X-135882Y129970D01*
X-136234Y129377D01*
X-136532Y128766D01*
X-136776Y128137D01*
X-136966Y127490D01*
X-137102Y126826D01*
X-137183Y126143D01*
X-137210Y125443D01*
X-142290D01*
X-142317Y126143D01*
X-142398Y126826D01*
X-142534Y127490D01*
X-142724Y128137D01*
X-142968Y128766D01*
X-143266Y129377D01*
X-143618Y129970D01*
X-144024Y130546D01*
X-144485Y131104D01*
X-145000Y131644D01*
X-134500D01*
X-135015Y131104D01*
D02*
G37*
G36*
X-409515D02*
X-409976Y130546D01*
X-410382Y129970D01*
X-410734Y129377D01*
X-411032Y128766D01*
X-411276Y128137D01*
X-411466Y127490D01*
X-411602Y126826D01*
X-411683Y126143D01*
X-411710Y125443D01*
X-416790D01*
X-416817Y126143D01*
X-416898Y126826D01*
X-417034Y127490D01*
X-417224Y128137D01*
X-417467Y128766D01*
X-417766Y129377D01*
X-418118Y129970D01*
X-418524Y130546D01*
X-418985Y131104D01*
X-419500Y131644D01*
X-409000D01*
X-409515Y131104D01*
D02*
G37*
G36*
X-384515D02*
X-384976Y130546D01*
X-385382Y129970D01*
X-385734Y129377D01*
X-386032Y128766D01*
X-386276Y128137D01*
X-386466Y127490D01*
X-386602Y126826D01*
X-386683Y126143D01*
X-386702Y125646D01*
X-386681Y125130D01*
X-386595Y124439D01*
X-386452Y123768D01*
X-386252Y123116D01*
X-385994Y122484D01*
X-385680Y121871D01*
X-385307Y121278D01*
X-384878Y120704D01*
X-384391Y120149D01*
X-383847Y119614D01*
X-394510Y119264D01*
X-393993Y119840D01*
X-393531Y120431D01*
X-393123Y121035D01*
X-392769Y121654D01*
X-392470Y122287D01*
X-392225Y122934D01*
X-392035Y123595D01*
X-391899Y124270D01*
X-391817Y124959D01*
X-391794Y125553D01*
X-391817Y126143D01*
X-391898Y126826D01*
X-392034Y127490D01*
X-392224Y128137D01*
X-392467Y128766D01*
X-392766Y129377D01*
X-393118Y129970D01*
X-393524Y130546D01*
X-393985Y131104D01*
X-394500Y131644D01*
X-384000D01*
X-384515Y131104D01*
D02*
G37*
G36*
X-110015D02*
X-110476Y130546D01*
X-110882Y129970D01*
X-111234Y129377D01*
X-111532Y128766D01*
X-111776Y128137D01*
X-111966Y127490D01*
X-112102Y126826D01*
X-112183Y126143D01*
X-112210Y125443D01*
X-117290D01*
X-117317Y126143D01*
X-117398Y126826D01*
X-117534Y127490D01*
X-117724Y128137D01*
X-117968Y128766D01*
X-118266Y129377D01*
X-118618Y129970D01*
X-119024Y130546D01*
X-119485Y131104D01*
X-120000Y131644D01*
X-109500D01*
X-110015Y131104D01*
D02*
G37*
G36*
X419485D02*
X419024Y130546D01*
X418618Y129970D01*
X418266Y129377D01*
X417967Y128766D01*
X417724Y128137D01*
X417534Y127490D01*
X417398Y126826D01*
X417317Y126143D01*
X417290Y125443D01*
X412210D01*
X412183Y126143D01*
X412102Y126826D01*
X411966Y127490D01*
X411776Y128137D01*
X411533Y128766D01*
X411234Y129377D01*
X410882Y129970D01*
X410476Y130546D01*
X410015Y131104D01*
X409500Y131644D01*
X420000D01*
X419485Y131104D01*
D02*
G37*
G36*
X394485D02*
X394024Y130546D01*
X393618Y129970D01*
X393266Y129377D01*
X392967Y128766D01*
X392724Y128137D01*
X392534Y127490D01*
X392398Y126826D01*
X392317Y126143D01*
X392290Y125443D01*
X387210D01*
X387183Y126143D01*
X387102Y126826D01*
X386966Y127490D01*
X386776Y128137D01*
X386533Y128766D01*
X386234Y129377D01*
X385882Y129970D01*
X385476Y130546D01*
X385015Y131104D01*
X384500Y131644D01*
X395000D01*
X394485Y131104D01*
D02*
G37*
G36*
X339735D02*
X339274Y130546D01*
X338868Y129970D01*
X338516Y129377D01*
X338218Y128766D01*
X337974Y128137D01*
X337784Y127490D01*
X337648Y126826D01*
X337567Y126143D01*
X337540Y125443D01*
X332460D01*
X332433Y126143D01*
X332352Y126826D01*
X332216Y127490D01*
X332026Y128137D01*
X331782Y128766D01*
X331484Y129377D01*
X331132Y129970D01*
X330726Y130546D01*
X330265Y131104D01*
X329750Y131644D01*
X340250D01*
X339735Y131104D01*
D02*
G37*
G36*
X87925Y104500D02*
X87179Y104482D01*
X86459Y104414D01*
X85764Y104294D01*
X85095Y104124D01*
X84452Y103902D01*
X83835Y103630D01*
X83244Y103307D01*
X82678Y102933D01*
X82138Y102508D01*
X81624Y102032D01*
X78032Y105624D01*
X78508Y106138D01*
X78933Y106678D01*
X79307Y107244D01*
X79630Y107835D01*
X79902Y108453D01*
X80124Y109095D01*
X80294Y109764D01*
X80414Y110459D01*
X80483Y111179D01*
X80500Y111925D01*
X87925Y104500D01*
D02*
G37*
G36*
X-309002Y100803D02*
X-308429Y100328D01*
X-307840Y99909D01*
X-307233Y99546D01*
X-306610Y99239D01*
X-305970Y98987D01*
X-305314Y98792D01*
X-304641Y98652D01*
X-303951Y98568D01*
X-303244Y98540D01*
Y93460D01*
X-303951Y93432D01*
X-304641Y93348D01*
X-305314Y93209D01*
X-305970Y93013D01*
X-306610Y92761D01*
X-307233Y92454D01*
X-307840Y92091D01*
X-308429Y91672D01*
X-309002Y91197D01*
X-309558Y90666D01*
Y101334D01*
X-309002Y100803D01*
D02*
G37*
G36*
X276499Y98202D02*
X276551Y97655D01*
X276651Y97118D01*
X276800Y96591D01*
X276997Y96073D01*
X277243Y95565D01*
X277537Y95067D01*
X277880Y94579D01*
X278271Y94100D01*
X278710Y93632D01*
X275012Y90146D01*
X274546Y90584D01*
X274069Y90978D01*
X273582Y91327D01*
X273085Y91630D01*
X272578Y91888D01*
X272060Y92101D01*
X271533Y92269D01*
X270995Y92391D01*
X270447Y92469D01*
X269888Y92501D01*
X276495Y98758D01*
X276499Y98202D01*
D02*
G37*
G36*
X310308Y106666D02*
X309752Y107197D01*
X309179Y107672D01*
X308590Y108091D01*
X307983Y108454D01*
X307360Y108762D01*
X306721Y109013D01*
X306064Y109208D01*
X305391Y109348D01*
X304701Y109432D01*
X303994Y109460D01*
Y114540D01*
X304701Y114568D01*
X305391Y114652D01*
X306064Y114791D01*
X306721Y114987D01*
X307360Y115239D01*
X307983Y115546D01*
X308590Y115909D01*
X309179Y116328D01*
X309752Y116803D01*
X310308Y117334D01*
Y106666D01*
D02*
G37*
G36*
X442319Y123630D02*
X442405Y122939D01*
X442548Y122268D01*
X442748Y121616D01*
X443006Y120984D01*
X443321Y120371D01*
X443693Y119778D01*
X444122Y119204D01*
X444609Y118649D01*
X445153Y118114D01*
X434490Y117764D01*
X435007Y118340D01*
X435469Y118931D01*
X435877Y119535D01*
X436231Y120154D01*
X436530Y120787D01*
X436775Y121434D01*
X436965Y122095D01*
X437101Y122770D01*
X437183Y123460D01*
X437210Y124163D01*
X442290Y124340D01*
X442319Y123630D01*
D02*
G37*
G36*
X392318Y123049D02*
X392402Y122359D01*
X392542Y121686D01*
X392737Y121030D01*
X392989Y120390D01*
X393296Y119767D01*
X393659Y119160D01*
X394078Y118571D01*
X394553Y117998D01*
X395084Y117442D01*
X384416D01*
X384947Y117998D01*
X385422Y118571D01*
X385841Y119160D01*
X386204Y119767D01*
X386511Y120390D01*
X386763Y121030D01*
X386959Y121686D01*
X387098Y122359D01*
X387182Y123049D01*
X387210Y123756D01*
X392290D01*
X392318Y123049D01*
D02*
G37*
G36*
X60568Y122049D02*
X60652Y121359D01*
X60792Y120686D01*
X60987Y120029D01*
X61238Y119390D01*
X61546Y118767D01*
X61909Y118160D01*
X62328Y117571D01*
X62803Y116998D01*
X63334Y116442D01*
X52666D01*
X53197Y116998D01*
X53672Y117571D01*
X54091Y118160D01*
X54454Y118767D01*
X54762Y119390D01*
X55013Y120029D01*
X55209Y120686D01*
X55348Y121359D01*
X55432Y122049D01*
X55460Y122756D01*
X60540D01*
X60568Y122049D01*
D02*
G37*
G36*
X444485Y131104D02*
X444024Y130546D01*
X443618Y129970D01*
X443266Y129377D01*
X442967Y128766D01*
X442724Y128137D01*
X442534Y127490D01*
X442398Y126826D01*
X442317Y126143D01*
X442290Y125443D01*
X437210D01*
X437183Y126143D01*
X437102Y126826D01*
X436966Y127490D01*
X436776Y128137D01*
X436533Y128766D01*
X436234Y129377D01*
X435882Y129970D01*
X435476Y130546D01*
X435015Y131104D01*
X434500Y131644D01*
X445000D01*
X444485Y131104D01*
D02*
G37*
G36*
X-349532Y143376D02*
X-350008Y142862D01*
X-350433Y142322D01*
X-350807Y141756D01*
X-351130Y141165D01*
X-351402Y140548D01*
X-351624Y139904D01*
X-351794Y139236D01*
X-351914Y138541D01*
X-351983Y137821D01*
X-352000Y137075D01*
X-359425Y144500D01*
X-358679Y144517D01*
X-357959Y144586D01*
X-357264Y144706D01*
X-356595Y144876D01*
X-355953Y145098D01*
X-355335Y145370D01*
X-354744Y145693D01*
X-354178Y146067D01*
X-353638Y146492D01*
X-353124Y146968D01*
X-349532Y143376D01*
D02*
G37*
G36*
X-365362Y146492D02*
X-364822Y146067D01*
X-364256Y145693D01*
X-363665Y145370D01*
X-363047Y145098D01*
X-362405Y144876D01*
X-361736Y144706D01*
X-361041Y144586D01*
X-360321Y144517D01*
X-359575Y144500D01*
X-367000Y137075D01*
X-367018Y137821D01*
X-367086Y138541D01*
X-367206Y139236D01*
X-367376Y139904D01*
X-367598Y140548D01*
X-367870Y141165D01*
X-368193Y141756D01*
X-368567Y142322D01*
X-368992Y142862D01*
X-369468Y143376D01*
X-365876Y146968D01*
X-365362Y146492D01*
D02*
G37*
G36*
X-429282Y143376D02*
X-429758Y142862D01*
X-430183Y142322D01*
X-430557Y141756D01*
X-430880Y141165D01*
X-431152Y140548D01*
X-431374Y139904D01*
X-431544Y139236D01*
X-431664Y138541D01*
X-431732Y137821D01*
X-431750Y137075D01*
X-439175Y144500D01*
X-438429Y144517D01*
X-437709Y144586D01*
X-437014Y144706D01*
X-436345Y144876D01*
X-435703Y145098D01*
X-435085Y145370D01*
X-434494Y145693D01*
X-433928Y146067D01*
X-433388Y146492D01*
X-432874Y146968D01*
X-429282Y143376D01*
D02*
G37*
G36*
X-324532D02*
X-325008Y142862D01*
X-325433Y142322D01*
X-325807Y141756D01*
X-326130Y141165D01*
X-326402Y140548D01*
X-326624Y139904D01*
X-326794Y139236D01*
X-326914Y138541D01*
X-326983Y137821D01*
X-327000Y137075D01*
X-334425Y144500D01*
X-333679Y144517D01*
X-332959Y144586D01*
X-332264Y144706D01*
X-331595Y144876D01*
X-330953Y145098D01*
X-330335Y145370D01*
X-329744Y145693D01*
X-329178Y146067D01*
X-328638Y146492D01*
X-328124Y146968D01*
X-324532Y143376D01*
D02*
G37*
G36*
X97968D02*
X97492Y142862D01*
X97067Y142322D01*
X96693Y141756D01*
X96370Y141165D01*
X96098Y140548D01*
X95876Y139904D01*
X95706Y139236D01*
X95586Y138541D01*
X95518Y137821D01*
X95500Y137075D01*
X88075Y144500D01*
X88821Y144517D01*
X89541Y144586D01*
X90236Y144706D01*
X90905Y144876D01*
X91547Y145098D01*
X92165Y145370D01*
X92756Y145693D01*
X93322Y146067D01*
X93862Y146492D01*
X94376Y146968D01*
X97968Y143376D01*
D02*
G37*
G36*
X-154782D02*
X-155258Y142862D01*
X-155683Y142322D01*
X-156057Y141756D01*
X-156380Y141165D01*
X-156652Y140548D01*
X-156874Y139904D01*
X-157044Y139236D01*
X-157164Y138541D01*
X-157233Y137821D01*
X-157250Y137075D01*
X-164675Y144500D01*
X-163929Y144517D01*
X-163209Y144586D01*
X-162514Y144706D01*
X-161845Y144876D01*
X-161203Y145098D01*
X-160585Y145370D01*
X-159994Y145693D01*
X-159428Y146067D01*
X-158888Y146492D01*
X-158374Y146968D01*
X-154782Y143376D01*
D02*
G37*
G36*
X-170612Y146492D02*
X-170072Y146067D01*
X-169506Y145693D01*
X-168915Y145370D01*
X-168298Y145098D01*
X-167655Y144876D01*
X-166986Y144706D01*
X-166291Y144586D01*
X-165571Y144517D01*
X-164825Y144500D01*
X-172250Y137075D01*
X-172267Y137821D01*
X-172336Y138541D01*
X-172456Y139236D01*
X-172626Y139904D01*
X-172848Y140548D01*
X-173120Y141165D01*
X-173443Y141756D01*
X-173817Y142322D01*
X-174242Y142862D01*
X-174718Y143376D01*
X-171126Y146968D01*
X-170612Y146492D01*
D02*
G37*
G36*
X-309575Y129500D02*
X-310321Y129482D01*
X-311041Y129414D01*
X-311736Y129294D01*
X-312405Y129124D01*
X-313048Y128902D01*
X-313665Y128630D01*
X-314256Y128307D01*
X-314822Y127933D01*
X-315362Y127508D01*
X-315876Y127032D01*
X-319468Y130624D01*
X-318992Y131138D01*
X-318567Y131678D01*
X-318193Y132244D01*
X-317870Y132835D01*
X-317598Y133453D01*
X-317376Y134095D01*
X-317206Y134764D01*
X-317086Y135459D01*
X-317017Y136179D01*
X-317000Y136925D01*
X-309575Y129500D01*
D02*
G37*
G36*
X-334575D02*
X-335321Y129482D01*
X-336041Y129414D01*
X-336736Y129294D01*
X-337405Y129124D01*
X-338047Y128902D01*
X-338665Y128630D01*
X-339256Y128307D01*
X-339822Y127933D01*
X-340362Y127508D01*
X-340876Y127032D01*
X-344468Y130624D01*
X-343992Y131138D01*
X-343567Y131678D01*
X-343193Y132244D01*
X-342870Y132835D01*
X-342598Y133453D01*
X-342376Y134095D01*
X-342206Y134764D01*
X-342086Y135459D01*
X-342018Y136179D01*
X-342000Y136925D01*
X-334575Y129500D01*
D02*
G37*
G36*
X-84894Y131219D02*
X-85247Y130756D01*
X-85558Y130255D01*
X-85828Y129718D01*
X-86056Y129142D01*
X-86243Y128530D01*
X-86388Y127880D01*
X-86492Y127192D01*
X-86554Y126468D01*
X-86575Y125705D01*
X-92925D01*
X-92946Y126468D01*
X-93008Y127192D01*
X-93112Y127880D01*
X-93257Y128530D01*
X-93444Y129142D01*
X-93672Y129718D01*
X-93942Y130255D01*
X-94253Y130756D01*
X-94606Y131219D01*
X-95000Y131644D01*
X-84500D01*
X-84894Y131219D01*
D02*
G37*
G36*
X-164825Y129500D02*
X-165571Y129482D01*
X-166291Y129414D01*
X-166986Y129294D01*
X-167655Y129124D01*
X-168298Y128902D01*
X-168915Y128630D01*
X-169506Y128307D01*
X-170072Y127933D01*
X-170612Y127508D01*
X-171126Y127032D01*
X-174718Y130624D01*
X-174242Y131138D01*
X-173817Y131678D01*
X-173443Y132244D01*
X-173120Y132835D01*
X-172848Y133453D01*
X-172626Y134095D01*
X-172456Y134764D01*
X-172336Y135459D01*
X-172267Y136179D01*
X-172250Y136925D01*
X-164825Y129500D01*
D02*
G37*
G36*
X-303604Y141735D02*
X-303046Y141274D01*
X-302470Y140868D01*
X-301877Y140516D01*
X-301266Y140218D01*
X-300637Y139974D01*
X-299990Y139784D01*
X-299326Y139648D01*
X-298643Y139567D01*
X-297943Y139540D01*
Y134460D01*
X-298643Y134433D01*
X-299326Y134352D01*
X-299990Y134216D01*
X-300637Y134026D01*
X-301266Y133783D01*
X-301877Y133484D01*
X-302470Y133132D01*
X-303046Y132726D01*
X-303604Y132265D01*
X-304144Y131750D01*
Y142250D01*
X-303604Y141735D01*
D02*
G37*
G36*
X-271442Y131666D02*
X-271998Y132197D01*
X-272571Y132672D01*
X-273160Y133091D01*
X-273767Y133454D01*
X-274390Y133762D01*
X-275030Y134013D01*
X-275686Y134208D01*
X-276359Y134348D01*
X-277049Y134432D01*
X-277756Y134460D01*
Y139540D01*
X-277049Y139568D01*
X-276359Y139652D01*
X-275686Y139791D01*
X-275030Y139987D01*
X-274390Y140239D01*
X-273767Y140546D01*
X-273160Y140909D01*
X-272571Y141328D01*
X-271998Y141803D01*
X-271442Y142334D01*
Y131666D01*
D02*
G37*
G36*
X95518Y136179D02*
X95586Y135459D01*
X95706Y134764D01*
X95876Y134095D01*
X96098Y133453D01*
X96370Y132835D01*
X96693Y132244D01*
X97067Y131678D01*
X97492Y131138D01*
X97968Y130624D01*
X94376Y127032D01*
X93862Y127508D01*
X93322Y127933D01*
X92756Y128307D01*
X92165Y128630D01*
X91547Y128902D01*
X90905Y129124D01*
X90236Y129294D01*
X89541Y129414D01*
X88821Y129482D01*
X88075Y129500D01*
X95500Y136925D01*
X95518Y136179D01*
D02*
G37*
D10*
X316000Y-259000D02*
Y-115000D01*
X269000Y-306000D02*
X316000Y-259000D01*
Y-115000D02*
X447000D01*
X-113500Y-26000D02*
X-89750Y-49750D01*
X-121000Y-26000D02*
X-113500D01*
X-136000Y-11000D02*
X-121000Y-26000D01*
X-136000Y-11000D02*
Y58000D01*
X-89750Y104250D01*
Y137000D01*
X115000Y-440000D02*
X178000D01*
X70750Y-409750D02*
X95000D01*
X66000Y-405000D02*
X70750Y-409750D01*
X95000Y-424750D02*
Y-409750D01*
X90000Y-429750D02*
X95000Y-424750D01*
X90000Y-440000D02*
Y-429750D01*
X34500Y-405000D02*
X66000D01*
X-110250Y-312000D02*
Y-280250D01*
Y-312000D02*
X-102750Y-319500D01*
Y-347500D02*
Y-319500D01*
X-90000Y-426250D02*
X-71500Y-407750D01*
X-90000Y-440000D02*
Y-426250D01*
X-102750Y-395500D02*
Y-347500D01*
X-115000Y-407750D02*
X-102750Y-395500D01*
X-115000Y-440000D02*
Y-407750D01*
D11*
X294000Y-108500D02*
Y74750D01*
X265000Y-137500D02*
X294000Y-108500D01*
X-266000Y240000D02*
X-162000Y344000D01*
X-302000Y212000D02*
X-253000D01*
X-317000Y197000D02*
X-302000Y212000D01*
X-317000Y179500D02*
Y197000D01*
X-171250Y293750D02*
X-115000D01*
X-253000Y212000D02*
X-171250Y293750D01*
X-162000Y344000D02*
X96000D01*
X-65000Y323000D02*
X94000D01*
X-92000Y296000D02*
X-65000Y323000D01*
X-92000Y212500D02*
Y296000D01*
X-100000Y188000D02*
X-78000D01*
X-118000Y206000D02*
X-100000Y188000D01*
X-225000Y206000D02*
X-118000D01*
X-89750Y137000D02*
Y150750D01*
X-129000Y190000D02*
X-89750Y150750D01*
X-160000Y190000D02*
X-129000D01*
X-78000Y188000D02*
X-66000Y200000D01*
Y242000D01*
X94000Y323000D02*
X141000Y276000D01*
X58000Y111000D02*
Y141000D01*
X42000Y157000D02*
X58000Y141000D01*
X25000Y157000D02*
X42000D01*
X51000Y75000D02*
X88000Y112000D01*
Y32000D02*
Y62000D01*
Y137000D02*
X109000Y116000D01*
Y108000D02*
Y116000D01*
X88000Y87000D02*
X109000Y108000D01*
X-317000Y179500D02*
X-170500D01*
X-160000Y190000D01*
X-137375Y164375D02*
X-114750Y141750D01*
Y137000D02*
Y141750D01*
X-139750Y118250D02*
Y137000D01*
X-77000Y-276000D02*
X-31000D01*
X-6000Y-301000D01*
X181000D01*
X214000Y-268000D01*
Y-100000D01*
X196500Y-82500D02*
X214000Y-100000D01*
X196500Y-82500D02*
Y-69000D01*
Y-159500D02*
Y-125000D01*
X176000Y-180000D02*
X196500Y-159500D01*
X110000Y-180000D02*
X176000D01*
X51000Y-121000D02*
X110000Y-180000D01*
X0Y-200500D02*
X159500D01*
X0Y-225500D02*
X159500D01*
X0Y-279500D02*
X159500D01*
X-309500Y137000D02*
X-266000D01*
X102000Y363000D02*
X175000Y290000D01*
X-178000Y363000D02*
X102000D01*
X-191000Y350000D02*
X-178000Y363000D01*
X175000Y203000D02*
Y290000D01*
X96000Y344000D02*
X157000Y283000D01*
Y193000D02*
Y283000D01*
X175000Y203000D02*
X196500Y181500D01*
Y79000D02*
Y181500D01*
X157000Y193000D02*
X180000Y170000D01*
Y65500D02*
Y170000D01*
Y65500D02*
X196500Y49000D01*
X208000Y219000D02*
X255000Y172000D01*
X195000Y219000D02*
X208000D01*
X242000Y236000D02*
X310000Y168000D01*
X215000Y236000D02*
X242000D01*
X141000Y70000D02*
Y276000D01*
X136000Y65000D02*
X141000Y70000D01*
X136000Y49000D02*
Y65000D01*
X13000Y138000D02*
X22000Y129000D01*
Y79000D02*
Y129000D01*
Y79000D02*
X51000Y50000D01*
X-205750Y96000D02*
X-164750Y137000D01*
X-315000Y96000D02*
X-205750D01*
X-312500Y159000D02*
X-186750D01*
X-164750Y137000D01*
X-334500D02*
X-312500Y159000D01*
X-359500Y137000D02*
X-317000Y179500D01*
X-363500Y83000D02*
X-309500Y137000D01*
X-405000Y83000D02*
X-363500D01*
X-411000Y89000D02*
X-405000Y83000D01*
X-424000Y89000D02*
X-411000D01*
X-376500Y95000D02*
X-334500Y137000D01*
X-398000Y95000D02*
X-376500D01*
X-414250Y111250D02*
X-398000Y95000D01*
X-414250Y111250D02*
Y137000D01*
X-389250Y114250D02*
Y137000D01*
X0Y157000D02*
Y185000D01*
X-25000Y157000D02*
X-6000Y138000D01*
X13000D01*
X51000Y-121000D02*
Y50000D01*
X-164750Y137000D02*
X-137375Y164375D01*
X-114750Y105250D02*
Y137000D01*
X310000D02*
Y168000D01*
X255000Y145000D02*
Y172000D01*
Y145000D02*
X288000Y112000D01*
X315750D01*
X389750D02*
Y137000D01*
X-377500Y155000D02*
X-359500Y137000D01*
X-421250Y155000D02*
X-377500D01*
X-439250Y137000D02*
X-421250Y155000D01*
X-89750Y-142250D02*
X-37000Y-195000D01*
X-89750Y-142250D02*
Y-49750D01*
X-139750Y-176000D02*
Y-49750D01*
X-131500Y-33000D02*
X-114750Y-49750D01*
X-148000Y-33000D02*
X-131500D01*
X-164750Y-49750D02*
X-148000Y-33000D01*
X-114750Y-148250D02*
Y-49750D01*
Y-148250D02*
X-68000Y-195000D01*
X269875Y98875D02*
X294000Y74750D01*
X330000Y167000D02*
Y209000D01*
Y167000D02*
X360000Y137000D01*
X387500Y62500D02*
X414750D01*
X335000Y115000D02*
X387500Y62500D01*
X335000Y115000D02*
Y137000D01*
X418750Y158000D02*
X439750Y137000D01*
X381000Y158000D02*
X418750D01*
X360000Y137000D02*
X381000Y158000D01*
X439750Y112750D02*
Y137000D01*
X414750Y62500D02*
Y137000D01*
X0Y-254500D02*
X159500D01*
X50750Y-425750D02*
X65000Y-440000D01*
X50750Y-425750D02*
Y-424250D01*
X25250Y-479750D02*
X65000Y-440000D01*
X-55750Y-479750D02*
X25250D01*
X-65000Y-470500D02*
X-55750Y-479750D01*
X-65000Y-470500D02*
Y-440000D01*
X0Y-367500D02*
Y-321750D01*
X-24750Y-332000D02*
Y-310000D01*
X-40250Y-347500D02*
X-24750Y-332000D01*
X-66000Y242000D02*
X-53000Y255000D01*
X77000D01*
X0Y185000D02*
X35500D01*
X63000Y212500D01*
X113000D01*
X62000Y237500D02*
X111500D01*
X-190000Y-24500D02*
X-164750Y-49750D01*
X-190000Y-24500D02*
Y30000D01*
X-114750Y105250D01*
X-228000Y-125000D02*
X-77000Y-276000D01*
X-228000Y-125000D02*
Y30000D01*
X-139750Y118250D01*
X88000Y137000D02*
X113000Y162000D01*
Y209000D01*
X115000Y211000D01*
X114000Y62000D02*
X127000Y75000D01*
Y222000D01*
X111500Y237500D02*
X127000Y222000D01*
D12*
X-68000Y-230000D02*
D03*
Y-255000D02*
D03*
X230000Y281000D02*
D03*
X280000D02*
D03*
X-25000Y293750D02*
D03*
X25000D02*
D03*
X178000Y-390000D02*
D03*
Y-370000D02*
D03*
X121000Y-380000D02*
D03*
X96000D02*
D03*
X71000D02*
D03*
X0Y-392500D02*
D03*
Y-367500D02*
D03*
X-227750Y-371000D02*
D03*
Y-389000D02*
D03*
X221500Y347250D02*
D03*
X171500D02*
D03*
X274750Y-59750D02*
D03*
Y-41750D02*
D03*
X-317500Y280000D02*
D03*
X-342500D02*
D03*
X342500D02*
D03*
X317500D02*
D03*
D13*
X40000Y409500D02*
D03*
X-40000D02*
D03*
X96000Y185000D02*
D03*
Y265000D02*
D03*
X0Y-321750D02*
D03*
X80000D02*
D03*
X56000Y-162000D02*
D03*
X136000D02*
D03*
X270000Y179000D02*
D03*
Y99000D02*
D03*
D14*
X-361500Y8000D02*
D03*
X-386500D02*
D03*
X-411500D02*
D03*
X-336500D02*
D03*
X-424000Y67000D02*
D03*
X-349000D02*
D03*
X-374000D02*
D03*
X-399000D02*
D03*
X-324000D02*
D03*
X-115000Y-440000D02*
D03*
X-90000D02*
D03*
X-65000D02*
D03*
X65000D02*
D03*
X90000D02*
D03*
X115000D02*
D03*
X440750Y62500D02*
D03*
Y37250D02*
D03*
Y12250D02*
D03*
Y-12750D02*
D03*
Y87500D02*
D03*
Y-37750D02*
D03*
Y-87750D02*
D03*
Y-62750D02*
D03*
X315750Y-62500D02*
D03*
Y-87500D02*
D03*
Y-37500D02*
D03*
Y87500D02*
D03*
Y-12500D02*
D03*
Y12500D02*
D03*
Y37500D02*
D03*
Y62500D02*
D03*
X0Y-279500D02*
D03*
Y-254500D02*
D03*
Y-200500D02*
D03*
Y-225500D02*
D03*
X-37500Y237500D02*
D03*
X37500D02*
D03*
X12500D02*
D03*
X-12500D02*
D03*
Y212500D02*
D03*
X12500D02*
D03*
X37500D02*
D03*
X-37500D02*
D03*
X-89750Y-49750D02*
D03*
X-164750D02*
D03*
X-139750D02*
D03*
X-114750D02*
D03*
X-89750Y137000D02*
D03*
X-164750D02*
D03*
X-139750D02*
D03*
X-114750D02*
D03*
X-309500D02*
D03*
X-359500D02*
D03*
X-334500D02*
D03*
X389750D02*
D03*
X439750D02*
D03*
X414750D02*
D03*
X0Y157000D02*
D03*
X25000D02*
D03*
X-25000D02*
D03*
X88000Y62000D02*
D03*
Y137000D02*
D03*
Y112000D02*
D03*
Y87000D02*
D03*
X-389250Y137000D02*
D03*
X-439250D02*
D03*
X-414250D02*
D03*
X310000D02*
D03*
X360000D02*
D03*
X335000D02*
D03*
D15*
X-40250Y-347500D02*
D03*
X-102750D02*
D03*
X-71500Y-302500D02*
D03*
D16*
X159000Y-162500D02*
D03*
Y-12500D02*
D03*
Y-37500D02*
D03*
Y-62500D02*
D03*
Y-87500D02*
D03*
Y-112500D02*
D03*
Y-137500D02*
D03*
Y12500D02*
D03*
Y37500D02*
D03*
Y62500D02*
D03*
Y87500D02*
D03*
Y112500D02*
D03*
Y137500D02*
D03*
X234000D02*
D03*
Y112500D02*
D03*
Y87500D02*
D03*
Y62500D02*
D03*
Y37500D02*
D03*
Y12500D02*
D03*
Y-137500D02*
D03*
Y-112500D02*
D03*
Y-87500D02*
D03*
Y-62500D02*
D03*
Y-37500D02*
D03*
Y-12500D02*
D03*
Y-162500D02*
D03*
Y162500D02*
D03*
D17*
X159000Y162500D02*
D03*
D18*
X316000Y-115000D02*
D03*
X448000Y-116000D02*
D03*
X269000Y-306000D02*
D03*
X-34000Y-406000D02*
D03*
X-266000Y240000D02*
D03*
X-115000Y293750D02*
D03*
X-92000Y212500D02*
D03*
X58000Y111000D02*
D03*
X51000Y75000D02*
D03*
X88000Y32000D02*
D03*
X-137375Y164375D02*
D03*
X196500Y-125000D02*
D03*
Y-69000D02*
D03*
X-191000Y350000D02*
D03*
X159500Y-200500D02*
D03*
X-225000Y206000D02*
D03*
X-266000Y137000D02*
D03*
X195000Y219000D02*
D03*
X215000Y236000D02*
D03*
X196500Y79000D02*
D03*
Y49000D02*
D03*
X136000Y49000D02*
D03*
X114000Y62000D02*
D03*
X-315000Y96000D02*
D03*
X-317000Y179500D02*
D03*
X-424000Y89000D02*
D03*
X-389000Y114000D02*
D03*
X0Y185000D02*
D03*
X315750Y112000D02*
D03*
X389750D02*
D03*
X-37000Y-195000D02*
D03*
X-139750Y-176000D02*
D03*
X-68000Y-195000D02*
D03*
X265000Y-137500D02*
D03*
X330000Y209000D02*
D03*
X440000Y112500D02*
D03*
X414750Y62500D02*
D03*
X159500Y-225500D02*
D03*
Y-254500D02*
D03*
X178000Y-440000D02*
D03*
X95000Y-409750D02*
D03*
X50750Y-424250D02*
D03*
X34500Y-405000D02*
D03*
X-110250Y-280250D02*
D03*
X-71500Y-407750D02*
D03*
X159500Y-279500D02*
D03*
X-115000Y-407750D02*
D03*
X-65000Y-470500D02*
D03*
X-24750Y-310000D02*
D03*
X77000Y255000D02*
D03*
X62000Y237500D02*
D03*
X63000Y212500D02*
D03*
X113000D02*
D03*
M02*
