M48
;Layer_Color=9474304
;FILE_FORMAT=4:4
METRIC,LZ
;TYPE=PLATED
T1F00S00C0.8000
T2F00S00C0.8500
T3F00S00C0.9000
T4F00S00C1.0000
T5F00S00C2.5000
%
T01
X-0022775Y-00389
X-00115Y-0040775
X-000715Y-0040775
X-00034Y-00406
X0Y-003925
X000345Y-00405
X0005075Y-0042425
X00095Y-0040975
X00178Y-0039
Y-0044
X-00065Y-004705
X00269Y-00306
X00265Y-001375
X00316Y-00115
X0027475Y-0005975
Y-0004175
X00448Y-00116
X00234Y-001125
Y-000875
Y-000625
Y-000375
Y-000125
X00159
Y-000375
Y-000625
Y-000875
Y-001125
Y-001375
Y-001625
X00136Y-00162
X001595Y-002005
Y-002255
Y-002545
Y-002795
X00178Y-0037
X00121Y-0038
X00096
X00071
X0008Y-0032175
X-0002475Y-0031
X0Y-003675
X-00068Y-00255
Y-0023
Y-00195
X-00037
X-0013975Y-00176
X-0011025Y-0028025
X00234Y-001625
Y-001375
X001965Y-00125
Y-00069
X-0022775Y-00371
X-00266Y00137
X-00315Y00096
X-00317Y001795
X-003175Y0028
X-003425
X-00266Y0024
X-00225Y00206
X-00191Y0035
X-00389Y00114
X-00424Y00089
X-00137375Y00164375
X-00092Y002125
X-00115Y0029375
X-00025
X00025
X00077Y00255
X00096Y00265
X00062Y002375
X00063Y002125
X00113
X00195Y00219
X00215Y00236
X0023Y00281
X002215Y0034725
X001715
X00159Y001625
Y001375
Y001125
Y000875
Y000625
Y000375
Y000125
X00136Y00049
X00114Y00062
X00088Y00032
X00051Y00075
X00058Y00111
X0Y00185
X00234Y001625
Y001375
Y001125
Y000875
Y000625
Y000375
Y000125
X001965Y00049
Y00079
X0027Y00099
X0031575Y00112
X0038975
X0044Y001125
X0041475Y000625
X0033Y00209
X003175Y0028
X003425
X0028Y00281
X-0004Y004095
T02
X0Y-0032175
X00056Y-00162
X00096Y00185
X0027Y00179
X0004Y004095
T03
X0031575Y-000875
Y-000625
Y-000375
Y-000125
X0044075Y-0001275
Y-0003775
Y-0006275
Y-0008775
X0Y-002005
Y-002255
Y-002545
Y-002795
X-0008975Y-0004975
X-0011475
X-0013975
X-0016475
X-003365Y00008
X-003615
X-003865
X-004115
X-00399Y00067
X-00374
X-00349
X-00324
X-003345Y00137
X-003595
X-0038925
X-0041425
X-0043925
X-00424Y00067
X-003095Y00137
X-0016475
X-0013975
X-0011475
X-0008975
X-00025Y00157
X0
X00025
X000375Y002125
X000125
X-000125
X-000375
Y002375
X-000125
X000125
X000375
X00088Y00137
Y00112
Y00087
Y00062
X0031575Y000625
Y000375
Y000125
Y000875
X0031Y00137
X00335
X0036
X0038975
X0041475
X0043975
X0044075Y000875
Y000625
Y0003725
Y0001225
T04
X-00115Y-0044
X-0009
X-00065
X00065
X0009
X00115
T05
X-0010275Y-003475
X-0004025
X-000715Y-003025
M30
