G04 Layer_Color=8388736*
%FSLAX44Y44*%
%MOMM*%
G71*
G01*
G75*
%ADD10C,1.5532*%
%ADD11C,1.5032*%
%ADD12C,1.7032*%
%ADD13C,3.7032*%
%ADD14O,2.2032X1.2032*%
%ADD15R,2.2032X1.2032*%
%ADD16C,1.7272*%
D10*
X-68000Y-230000D02*
D03*
Y-255000D02*
D03*
X230000Y281000D02*
D03*
X280000D02*
D03*
X-25000Y293750D02*
D03*
X25000D02*
D03*
X178000Y-390000D02*
D03*
Y-370000D02*
D03*
X121000Y-380000D02*
D03*
X96000D02*
D03*
X71000D02*
D03*
X0Y-392500D02*
D03*
Y-367500D02*
D03*
X-227750Y-371000D02*
D03*
Y-389000D02*
D03*
X221500Y347250D02*
D03*
X171500D02*
D03*
X274750Y-59750D02*
D03*
Y-41750D02*
D03*
X-317500Y280000D02*
D03*
X-342500D02*
D03*
X342500D02*
D03*
X317500D02*
D03*
D11*
X40000Y409500D02*
D03*
X-40000D02*
D03*
X96000Y185000D02*
D03*
Y265000D02*
D03*
X0Y-321750D02*
D03*
X80000D02*
D03*
X56000Y-162000D02*
D03*
X136000D02*
D03*
X270000Y179000D02*
D03*
Y99000D02*
D03*
D12*
X-361500Y8000D02*
D03*
X-386500D02*
D03*
X-411500D02*
D03*
X-336500D02*
D03*
X-424000Y67000D02*
D03*
X-349000D02*
D03*
X-374000D02*
D03*
X-399000D02*
D03*
X-324000D02*
D03*
X-115000Y-440000D02*
D03*
X-90000D02*
D03*
X-65000D02*
D03*
X65000D02*
D03*
X90000D02*
D03*
X115000D02*
D03*
X440750Y62500D02*
D03*
Y37250D02*
D03*
Y12250D02*
D03*
Y-12750D02*
D03*
Y87500D02*
D03*
Y-37750D02*
D03*
Y-87750D02*
D03*
Y-62750D02*
D03*
X315750Y-62500D02*
D03*
Y-87500D02*
D03*
Y-37500D02*
D03*
Y87500D02*
D03*
Y-12500D02*
D03*
Y12500D02*
D03*
Y37500D02*
D03*
Y62500D02*
D03*
X0Y-279500D02*
D03*
Y-254500D02*
D03*
Y-200500D02*
D03*
Y-225500D02*
D03*
X-37500Y237500D02*
D03*
X37500D02*
D03*
X12500D02*
D03*
X-12500D02*
D03*
Y212500D02*
D03*
X12500D02*
D03*
X37500D02*
D03*
X-37500D02*
D03*
X-89750Y-49750D02*
D03*
X-164750D02*
D03*
X-139750D02*
D03*
X-114750D02*
D03*
X-89750Y137000D02*
D03*
X-164750D02*
D03*
X-139750D02*
D03*
X-114750D02*
D03*
X-309500D02*
D03*
X-359500D02*
D03*
X-334500D02*
D03*
X389750D02*
D03*
X439750D02*
D03*
X414750D02*
D03*
X0Y157000D02*
D03*
X25000D02*
D03*
X-25000D02*
D03*
X88000Y62000D02*
D03*
Y137000D02*
D03*
Y112000D02*
D03*
Y87000D02*
D03*
X-389250Y137000D02*
D03*
X-439250D02*
D03*
X-414250D02*
D03*
X310000D02*
D03*
X360000D02*
D03*
X335000D02*
D03*
D13*
X-40250Y-347500D02*
D03*
X-102750D02*
D03*
X-71500Y-302500D02*
D03*
D14*
X159000Y-162500D02*
D03*
Y-12500D02*
D03*
Y-37500D02*
D03*
Y-62500D02*
D03*
Y-87500D02*
D03*
Y-112500D02*
D03*
Y-137500D02*
D03*
Y12500D02*
D03*
Y37500D02*
D03*
Y62500D02*
D03*
Y87500D02*
D03*
Y112500D02*
D03*
Y137500D02*
D03*
X234000D02*
D03*
Y112500D02*
D03*
Y87500D02*
D03*
Y62500D02*
D03*
Y37500D02*
D03*
Y12500D02*
D03*
Y-137500D02*
D03*
Y-112500D02*
D03*
Y-87500D02*
D03*
Y-62500D02*
D03*
Y-37500D02*
D03*
Y-12500D02*
D03*
Y-162500D02*
D03*
Y162500D02*
D03*
D15*
X159000Y162500D02*
D03*
D16*
X316000Y-115000D02*
D03*
X448000Y-116000D02*
D03*
X269000Y-306000D02*
D03*
X-34000Y-406000D02*
D03*
X-266000Y240000D02*
D03*
X-115000Y293750D02*
D03*
X-92000Y212500D02*
D03*
X58000Y111000D02*
D03*
X51000Y75000D02*
D03*
X88000Y32000D02*
D03*
X-137375Y164375D02*
D03*
X196500Y-125000D02*
D03*
Y-69000D02*
D03*
X-191000Y350000D02*
D03*
X159500Y-200500D02*
D03*
X-225000Y206000D02*
D03*
X-266000Y137000D02*
D03*
X195000Y219000D02*
D03*
X215000Y236000D02*
D03*
X196500Y79000D02*
D03*
Y49000D02*
D03*
X136000Y49000D02*
D03*
X114000Y62000D02*
D03*
X-315000Y96000D02*
D03*
X-317000Y179500D02*
D03*
X-424000Y89000D02*
D03*
X-389000Y114000D02*
D03*
X0Y185000D02*
D03*
X315750Y112000D02*
D03*
X389750D02*
D03*
X-37000Y-195000D02*
D03*
X-139750Y-176000D02*
D03*
X-68000Y-195000D02*
D03*
X265000Y-137500D02*
D03*
X330000Y209000D02*
D03*
X440000Y112500D02*
D03*
X414750Y62500D02*
D03*
X159500Y-225500D02*
D03*
Y-254500D02*
D03*
X178000Y-440000D02*
D03*
X95000Y-409750D02*
D03*
X50750Y-424250D02*
D03*
X34500Y-405000D02*
D03*
X-110250Y-280250D02*
D03*
X-71500Y-407750D02*
D03*
X159500Y-279500D02*
D03*
X-115000Y-407750D02*
D03*
X-65000Y-470500D02*
D03*
X-24750Y-310000D02*
D03*
X77000Y255000D02*
D03*
X62000Y237500D02*
D03*
X63000Y212500D02*
D03*
X113000D02*
D03*
M02*
